<svg version="1.2" xmlns="http://www.w3.org/2000/svg" viewBox="0 0 601 424" width="601" height="424">
	<title>item3</title>
	<defs>
		<clipPath clipPathUnits="userSpaceOnUse" id="cp1">
			<path d="m240 124c-7.74 0-14-6.26-14-14 0-7.74 6.26-14 14-14 7.74 0 14 6.26 14 14 0 7.74-6.26 14-14 14z"/>
		</clipPath>
		<linearGradient id="g1" x2="1" gradientUnits="userSpaceOnUse" gradientTransform="matrix(4.593,-1.742,2.81,7.408,230.183,112.601)">
			<stop offset="0" stop-color="#61c7c7"/>
			<stop offset="1" stop-color="#54b9c7"/>
		</linearGradient>
		<clipPath clipPathUnits="userSpaceOnUse" id="cp2">
			<path d="m240 88c-7.74 0-14-6.26-14-14 0-7.74 6.26-14 14-14 7.74 0 14 6.26 14 14 0 7.74-6.26 14-14 14z"/>
		</clipPath>
		<clipPath clipPathUnits="userSpaceOnUse" id="cp3">
			<path d="m240 251c-7.74 0-14-6.26-14-14 0-7.74 6.26-14 14-14 7.74 0 14 6.26 14 14 0 7.74-6.26 14-14 14z"/>
		</clipPath>
		<linearGradient id="g2" x2="1" gradientUnits="userSpaceOnUse" gradientTransform="matrix(1.24,14.526,-17.119,1.461,236.009,225.786)">
			<stop offset="0" stop-color="#ffc285"/>
			<stop offset="1" stop-color="#db8d6b"/>
		</linearGradient>
		<linearGradient id="g3" x2="1" gradientUnits="userSpaceOnUse" gradientTransform="matrix(26.183,-12.825,5.258,10.735,223.786,240.656)">
			<stop offset="0" stop-color="#d67569"/>
			<stop offset="1" stop-color="#e39e7f"/>
		</linearGradient>
		<clipPath clipPathUnits="userSpaceOnUse" id="cp4">
			<path d="m240 215c-7.74 0-14-6.26-14-14 0-7.74 6.26-14 14-14 7.74 0 14 6.26 14 14 0 7.74-6.26 14-14 14z"/>
		</clipPath>
		<clipPath clipPathUnits="userSpaceOnUse" id="cp5">
			<path d="m491 231c-29.86 0-54-24.14-54-54 0-29.86 24.14-54 54-54 29.86 0 54 24.14 54 54 0 29.86-24.14 54-54 54z"/>
		</clipPath>
		<linearGradient id="g4" x2="1" gradientUnits="userSpaceOnUse" gradientTransform="matrix(0,33.32,-21.661,0,185.75,368.614)">
			<stop offset="0" stop-color="#ed9653"/>
			<stop offset="1" stop-color="#f0a85e"/>
		</linearGradient>
		<clipPath clipPathUnits="userSpaceOnUse" id="cp6">
			<path d="m240 344c-7.74 0-14-6.26-14-14 0-7.74 6.26-14 14-14 7.74 0 14 6.26 14 14 0 7.74-6.26 14-14 14z"/>
		</clipPath>
	</defs>
	<style>
		.s0 { fill: #292841 } 
		.s1 { opacity: .09;fill: #807cef } 
		.s2 { fill: #cfdeff } 
		.s3 { fill: #b8c5ff } 
		.s4 { fill: #5697b0 } 
		.s5 { fill: #ffffff } 
		.s6 { fill: #7ce4cc } 
		.s7 { fill: #aafae7 } 
		.s8 { opacity: .74;fill: url(#g1) } 
		.s9 { fill: #2c4661 } 
		.s10 { fill: #738eff } 
		.s11 { opacity: .41;fill: #284e7a } 
		.s12 { fill: #61c7c7 } 
		.s13 { fill: #21354a } 
		.s14 { fill: #d4ffdc } 
		.s15 { fill: #335a70 } 
		.s16 { fill: #b2a6ff } 
		.s17 { fill: #8684bd } 
		.s18 { fill: #628bf7 } 
		.s19 { fill: #33beb5 } 
		.s20 { fill: #33a2be } 
		.s21 { fill: #f7e5bc } 
		.s22 { fill: #f7d197 } 
		.s23 { fill: #242236 } 
		.s24 { fill: #9e4b34 } 
		.s25 { fill: #7a2f28 } 
		.s26 { fill: #1e6470 } 
		.s27 { fill: #66251f } 
		.s28 { fill: #5e221d } 
		.s29 { fill: #000000 } 
		.s30 { fill: #d6dfff } 
		.s31 { fill: #cad5fc } 
		.s32 { fill: #de5d70 } 
		.s33 { fill: #ff9ccd } 
		.s34 { fill: #ffebf5 } 
		.s35 { fill: #ff70b7 } 
		.s36 { fill: #a8c3ff } 
		.s37 { fill: #c27059 } 
		.s38 { fill: #dcddde } 
		.s39 { fill: #ff82a6 } 
		.s40 { fill: url(#g2) } 
		.s41 { fill: url(#g3) } 
		.s42 { fill: #6b3143 } 
		.s43 { fill: #ef6270 } 
		.s44 { fill: #bd3c53 } 
		.s45 { fill: #ffb685 } 
		.s46 { fill: #543247 } 
		.s47 { fill: #c74153 } 
		.s48 { fill: #a82c3c } 
		.s49 { fill: #5e2737 } 
		.s50 { fill: #ffb869 } 
		.s51 { fill: #4d7ae8 } 
		.s52 { fill: #dbe7ff } 
		.s53 { fill: #201e2f } 
		.s54 { fill: #590942 } 
		.s55 { fill: #b5cdff } 
		.s56 { fill: #ef6767 } 
		.s57 { fill: #3366e0 } 
		.s58 { fill: #bed3ff } 
		.s59 { fill: #ed988d } 
		.s60 { fill: #fdd2f8 } 
		.s61 { fill: #1c1b29 } 
		.s62 { fill: #99aab5 } 
		.s63 { fill: #6adbc6 } 
		.s64 { fill: #b9bbbe } 
		.s65 { opacity: .2;fill: #ed988d } 
		.s66 { opacity: .22;fill: #bed3ff } 
		.s67 { fill: #9f90a8 } 
		.s68 { fill: #433e6b } 
		.s69 { fill: #b4a3be } 
		.s70 { fill: #527ff7 } 
		.s71 { fill: #4c65d4 } 
		.s72 { fill: url(#g4) } 
		.s73 { fill: #fccc7e } 
		.s74 { fill: #ff7abc } 
		.s75 { fill: #1f1e41 } 
		.s76 { fill: #f0ad60 } 
		.s77 { fill: #eea456 } 
		.s78 { fill: #8dadfc } 
		.s79 { fill: #ffadd6 } 
		.s80 { fill: #a63281 } 
		.s81 { fill: #f06a9f } 
		.s82 { fill: #db5191 } 
		.s83 { fill: #d14590 } 
		.s84 { fill: #bf3d8d } 
		.s85 { fill: #ab3582 } 
		.s86 { fill: #e663a0 } 
		.s87 { fill: #cf4e9d } 
		.s88 { fill: #2c9da3 } 
		.s89 { fill: #4cccb5 } 
		.s90 { fill: #f2db96 } 
		.s91 { fill: #eebd79 } 
		.s92 { fill: #e0aa5e } 
	</style>
	<path fill-rule="evenodd" class="s0" d="m209 2h254c4.4 0 8 3.6 8 8v353c0 4.4-3.6 8-8 8h-254c-4.4 0-8-3.6-8-8v-353c0-4.4 3.6-8 8-8z"/>
	<path fill-rule="evenodd" class="s1" d="m225 182h218c2.2 0 4 1.8 4 4v30c0 2.2-1.8 4-4 4h-218c-2.2 0-4-1.8-4-4v-30c0-2.2 1.8-4 4-4z"/>
	<g id="Clip-Path" clip-path="url(#cp1)">
		<g>
			<path fill-rule="evenodd" class="s2" d="m240 124c-7.7 0-14-6.3-14-14 0-7.7 6.3-14 14-14 7.7 0 14 6.3 14 14 0 7.7-6.3 14-14 14z"/>
			<path class="s2" d="m255.6 128.8c-0.2-0.7-0.7-1.2-1.2-1.7-0.6-0.4-1.3-0.7-2-0.7l-1.4-0.2c-2.1-7.6-1.1-9.3-7.3-11l-5-0.2c0 0-5.2 0.1-7.1 2.6l2.7 8.7c0 0-1.1 5.7-0.6 8.6l6.6-0.9 2.8 9.3c10.7-1.6 15.7-6.6 15.7-6.6z"/>
			<path class="s3" d="m232.8 115.7c7.2 6.7 13.7 11.3 12.6 0.7z"/>
			<path class="s4" d="m236.4 116.5c6.2 2.9 7.8 4 7.4 0.5z"/>
			<path class="s5" d="m249.8 121.4c-0.8-3.2-1.3-4.6-4.5-5.7 0.8 2 1.2 6.1 1.2 6.1z"/>
			<path class="s6" d="m239.2 106l-0.3-1.8c0-0.6-0.3-1.1-0.7-1.5-0.4-0.5-0.9-0.7-1.5-0.8-0.6-0.1-1.3 0-1.8 0.3-0.6 0.3-1 0.8-1.2 1.4-0.8 2.2-2.1 5.7-2.9 8.6-1.4 4.7 4.8 5.8 10.9 5.3 6.1-0.4 6.7-3.1 5.9-7-0.6-2.4-1.3-4.9-1.7-6.4q-0.2-0.7-0.7-1.1-0.6-0.4-1.2-0.5c-0.5-0.1-1 0-1.5 0.3-0.4 0.3-0.7 0.7-0.9 1.1l-0.7 1.8z"/>
			<path class="s7" d="m246.7 112.4l-0.4-0.2-2.2 0.8-2.3 0.3-3.9-0.8c0 0-2.2-3.3-2 0.4 0.1 2.5 1.2 4 1.9 4.7q1.9 0.1 3.9-0.1 1.5-0.1 2.9-0.5c0.7-0.9 1.8-2.6 2.1-4.6z"/>
			<path class="s8" d="m235.8 112.6c-0.5-1.4-1.4-4.4-1-6.6 0.4-2.3 0.9-4.1 1.9-4.1-0.6-0.1-1.3 0-1.8 0.3-0.6 0.3-1 0.8-1.2 1.4-0.8 2.2-2.1 5.7-2.9 8.6-1.3 4.2 3.6 5.5 9 5.4-1.2-0.2-2.7-1.4-4-5z"/>
			<path class="s7" d="m239.8 117.6h-0.4-0.5-0.6-0.2-0.3c-0.7-0.6-1.8-2.1-1.9-4.7q0 0 0-0.1c1.3 3.4 2.7 4.6 3.9 4.8z"/>
			<path class="s9" d="m246.2 112v0.5c-2.4 1.6-2.8 2-8.9 0.1l-0.1-0.5 0.3 0.1c5.2 1.3 6.2 1.4 8.7-0.2z"/>
			<path class="s10" d="m236.8 114c0.8-0.2 1.3-1.1 1-2-0.2-0.9-1.1-1.5-1.9-1.3-0.8 0.3-1.2 1.2-1 2.1 0.3 0.9 1.1 1.4 1.9 1.2z"/>
			<path class="s10" d="m247.3 112.1c0.2-0.7 0-1.5-0.5-1.5-0.4-0.1-0.9 0.4-1.1 1.2-0.1 0.8 0.1 1.5 0.5 1.6 0.5 0.1 1-0.5 1.1-1.3z"/>
			<path class="s11" d="m241.3 110.6c-0.1-0.1 0-0.2 0.2-0.3q0.1 0 0.2 0 0.1 0 0.2 0.1l0.5 0.7c0.2 0.3 0 0.3-0.3 0.1-0.2-0.1-0.7-0.3-0.8-0.6z"/>
			<path class="s11" d="m243.9 111l0.1-0.4q0.1-0.1 0.1-0.2-0.1-0.2-0.1-0.2l-0.1-0.1q0 0 0 0-0.1-0.1-0.1-0.1 0 0.1 0 0.1 0 0 0 0-0.2 0.4-0.3 0.9c0 0.3 0.2 0.3 0.4 0z"/>
			<path class="s12" d="m241.3 106.1l-2.1-0.1 1.7-0.3 0.7-1.8c0.2-0.4 0.5-0.8 0.9-1.1 0.5-0.3 1-0.4 1.5-0.3l0.4 0.1c-1-0.2-1.4 1-1.6 2.4-0.1 0.8-0.1 1.2-1.5 1.1z"/>
			<path class="s13" d="m245.4 105.8c0-0.6-0.3-1-0.8-1-0.4 0-0.8 0.4-0.8 1 0 0.5 0.3 1 0.8 1 0.4 0 0.8-0.5 0.8-1z"/>
			<path class="s13" d="m237.7 105.5c0.1-0.6-0.2-1.1-0.7-1.1-0.4-0.1-0.8 0.3-0.9 0.9-0.1 0.5 0.3 1 0.7 1.1 0.5 0 0.9-0.4 0.9-0.9z"/>
			<path class="s5" d="m234.3 126.3c0.9 0 2.1-0.1 3.2-0.2q0-0.6 0.1-1.3 0.3-1 0.8-2c-0.9-0.1-1.9-0.1-2.8-0.2-0.2-4.2-2.4-6.5-3.6-5.3-0.6 0.5-1 1.3-1 2.1-0.1 0.6 0 1.7 0 1.9-0.1 0.8-0.7 1 0 2.5 0.3 0.7-0.3 2.4 3.3 2.5z"/>
			<path class="s14" d="m237.2 102c0.9 0.6 1.1 1.9 1.2 2.5 0.1 0.5 0.2 1.5 0.2 1.7 0.1 0.3 0.1 0.4 1 0.7 0.8 0.4 0.5 0.1 0.1-0.4l-0.5-0.5-0.3-1.8q-0.1-0.7-0.5-1.3-0.5-0.6-1.2-0.9z"/>
			<path class="s15" d="m244.9 105.1c0.4 0.1 0.4 0.9 0.1 0.6-0.3-0.3-0.5-0.7-0.1-0.6z"/>
			<path class="s15" d="m237.3 104.7c0.3 0.1 0.4 0.9 0.1 0.6-0.3-0.3-0.5-0.7-0.1-0.6z"/>
			<path class="s16" d="m237.3 113c0.3-0.1 0.3-0.7 0-1.2-0.2-0.5-0.7-0.8-1-0.6-0.3 0.2-0.3 0.7-0.1 1.2 0.3 0.5 0.8 0.8 1.1 0.6z"/>
			<path class="s16" d="m247.3 111.5c0-0.4-0.1-0.7-0.3-0.7-0.2 0-0.3 0.3-0.3 0.7 0 0.4 0.1 0.7 0.3 0.7 0.2 0 0.3-0.3 0.3-0.7z"/>
			<path class="s14" d="m245 103.2c0.5 0.4 0.7 1.1 0.1 0.6-0.5-0.5-0.7-1.1-0.1-0.6z"/>
		</g>
	</g>
	<path class="s17" d="m449 35.1h-7.1v-7.1h-1.8v7.1h-7.1v1.8h7.1v7.1h1.8v-7.1h7.1z"/>
	<g id="Clip-Path" clip-path="url(#cp2)">
		<g>
			<path fill-rule="evenodd" class="s18" d="m240 88c-7.7 0-14-6.3-14-14 0-7.7 6.3-14 14-14 7.7 0 14 6.3 14 14 0 7.7-6.3 14-14 14z"/>
			<path class="s19" d="m236.9 50.1l10.4 19.5c0.2 0.4 0.3 0.9 0.3 1.4-0.1 0.5-0.3 1-0.7 1.3l-0.1 0.2c-1.7 1.7-3.9 3.1-6.3 3.8-2.3 0.7-4.9 0.8-7.3 0.3q-0.5-0.1-0.9-0.6-0.3-0.4-0.3-1l-0.5-23.5c-0.1-8.8 0.4-10.8 5.4-1.4z"/>
			<path class="s20" d="m246.8 72.5c0.3-0.4 0.6-0.9 0.7-1.5 0-0.5 0-1.1-0.3-1.6l-10.3-19.3c-2.4-4.6-3.8-6.5-4.5-6.1 1.9 13.6 6 31.4 6 31.4l2.7 0.7c2.2-0.8 4.1-2 5.7-3.6z"/>
			<path class="s21" d="m244.3 63.9c-0.7-1.2-0.9-1.5-1.2-1-4.3-6.8-6.4-5.4-6.4 1.2 0 0-3-1.6-2.6 4.3-0.4-0.1-0.9-0.1-1.3 0-0.4 0.2-0.8 0.5-1 0.9l0.2 5.7q0 0.5 0.2 0.9 0.3 0.4 0.7 0.6c2.6 0.4 5.2 0.2 7.6-0.6 2.5-0.7 4.7-2.1 6.6-3.8q0.4-0.6 0.5-1.3 0-0.6-0.3-1.2z"/>
			<path class="s22" d="m247.3 69.6l-3-5.7c-0.7-1.2-0.9-1.5-1.2-1-4.3-6.8-6.4-5.4-6.4 1.2q-0.4-0.2-0.8-0.2c0.8 0.2 0.9 1 1.4 2.8 0.4 1.8 0.8 3.4 0.8 3.4l7.6 3.2q0.7-0.6 1.4-1.2 0.4-0.6 0.5-1.3 0-0.6-0.3-1.2z"/>
			<path class="s23" d="m247 69.8c-3.7-3.9-7-5.3-14.4 5.5q-0.1 0.2-0.1 0.4 0 0.2 0.1 0.4 0.1 0.2 0.2 0.3 0.2 0.1 0.4 0.2c2.4 0.5 4.9 0.4 7.3-0.3 2.4-0.7 4.5-2.1 6.3-3.8l0.1-0.2 0.4-0.4q0.2-0.5 0.2-1.1-0.1-0.6-0.5-1z"/>
			<path class="s24" d="m246.3 73.2l-0.9-4.9c-2.7-2.2-5.6-2.3-10.3 3.7l2 4.6c3.3-0.3 6.5-1.5 9.2-3.4z"/>
			<path class="s25" d="m246.6 73l-3.5-0.3-0.5 1.3-0.9-1.8c-0.8-2-0.8-1.9-1.6-0.3-0.7 1.7-3.9 1.1-3.9 1.1l-0.7-1.5c4.2-5.1 6.8-5.3 9.3-3.7z"/>
			<path class="s19" d="m230.7 79.7l0.6-1.7q0.2-0.5 0.6-0.8 0.4-0.3 0.9-0.5l2.5-0.4 9.7-0.2 5.3 2.6q0.3 0.2 0.5 0.5 0.2 0.3 0.3 0.7l0.2 1.2 2.5 1.7q0.2 0.1 0.4 0.4 0.1 0.2 0 0.5c-0.7 5.8-6.7 14.8-15 10.8-6.3-3-12-7.3-14.8-9.6l-1.1 1.5c-0.3-1.4 0-1.9 0.9-2.7q0.4-0.3 0.8-0.6 0.1-0.4 0.1-0.7c0.3-1.2 0-1.4 1.3-1.7z"/>
			<path class="s26" d="m235.3 76.8c-2.2 0.4-3.5 0.4 0 2.4 3.5 2.1 0-2.4 0-2.4z"/>
			<path class="s27" d="m241.5 69.9l0.4 1.7c0.1 0 0.1 0.1 0.2 0.1l0.7 0.1-0.6-1.4v-0.1l0.1-1-0.6 0.4z"/>
			<path class="s28" d="m238.1 71.6l1.3 0.2c-0.5 0.7-1.1 0.6-1.3-0.2z"/>
			<path class="s28" d="m242.8 71.1l1.3-0.4c-0.1 0.9-0.7 1-1.3 0.4z"/>
			<path class="s29" d="m238.9 71.8c0.2 0 0.4-0.3 0.4-0.6 0-0.4-0.2-0.7-0.4-0.7-0.2 0-0.3 0.3-0.3 0.7 0 0.3 0.1 0.6 0.3 0.6z"/>
			<path class="s29" d="m243.5 71c0.3 0 0.4-0.3 0.4-0.7 0-0.4-0.1-0.7-0.4-0.7-0.2 0-0.3 0.3-0.3 0.7 0 0.4 0.1 0.7 0.3 0.7z"/>
			<path class="s5" d="m244.8 67.8l1.1 0.9c0.3 1 0.5 2.5 0.9 3.8 0.4 1.2 0.9 3.1 0.6 4.1-0.2 1.1 0 1.2 0.7 2.5 0.6 1.4 1.9 2.8 1.5 4.5 0.7 1.1 0.4 1.7 0.2 2.7-0.1 1.1-1 3.7-2.8 3.7-0.6 0.9-1.5 1.5-2.5 1.9-1 0.3-2 0.4-3.1 0.1-2.9-0.7-5.8-2.7-5.5-5.4-1-0.7-0.8-2.8-0.6-3.9 0.1-0.9-0.1-1.9-0.5-2.8-0.3-1-0.3-2 0-4q-0.5-1.2-0.7-2.6l1.4-1.9 0.7 1.6q0.5 0.9 0.9 2 0.3-0.2 0.7-0.2 0.3-0.6 0.8-0.9 0.5-0.4 1.2-0.4l2.8 0.5 0.5-1.3c1.3-0.2 2-0.2 2.5 0.1 0.2-0.7 0.3-1.5 0.1-2.3-0.3-0.9-0.9-2.7-0.9-2.7z"/>
			<path class="s30" d="m242.8 75.1l-1.1-0.2c-0.5-0.1-0.5-0.2-1.9-1.4l2.8 0.5 0.5-1.3c1.3-0.2 2-0.2 2.5 0.1 0.2-0.7 0.3-1.5 0.1-2.3-0.3-0.9-0.9-2.7-0.9-2.7l1 0.9c0.4 1 0.6 2.5 1 3.8 0.4 1.2 0.9 3.1 0.6 4.1-0.2 1.1 0 1.2 0.7 2.5 0.6 1.4 1.9 2.8 1.5 4.5 0.7 1.1 0.4 1.7 0.2 2.7-0.1 1.1-1 3.7-2.8 3.7-0.6 0.9-1.5 1.5-2.5 1.9-1 0.3-2 0.4-3.1 0.1-2.9-0.7-5.8-2.7-5.5-5.4 0.9 2.5 2.8 2.1 2.8 2.1q1.8-0.4 3.6-0.4c0.7-1.2 1.5-2.3 2.2-2.8 1.4-2.8 0.3-5.7-0.4-7.3z"/>
			<path class="s31" d="m242.8 75.1c0.7 0.2 0.7-0.4 0.7-1.1q-0.1-0.7-0.4-1.3l-0.5 1.3-2.8-0.5c1.4 1.2 1.4 1.3 1.9 1.4z"/>
			<path class="s2" d="m237.4 70.8l2.6-0.8q-0.3-0.2-0.7-0.2-0.4-0.1-0.7 0-0.4 0.1-0.7 0.4-0.3 0.2-0.5 0.6z"/>
			<path class="s2" d="m242 69.7l2.7-0.5c-0.4-0.3-1-0.4-1.5-0.3-0.5 0.1-0.9 0.4-1.2 0.8z"/>
			<path class="s32" d="m244 76.2q0 0.2-0.2 0.4-0.2 0.2-0.5 0.3c-2.9 0.4-4.1-0.3-4.6-0.7q-0.1-0.1-0.1-0.2-0.1-0.1 0-0.2v-0.1c1.5 0.5 3.8 0.3 4.3 0.2 0.6-0.1 0.4-0.3 0.3-0.5q0.2 0 0.3 0 0.1 0.1 0.3 0.2 0.1 0.1 0.1 0.3 0.1 0.1 0.1 0.3z"/>
			<path class="s33" d="m240.4 63.5c0.5-0.2 0.6-1.1 0.2-2-0.4-0.8-1.2-1.3-1.6-1.1-0.5 0.2-0.6 1.1-0.2 2 0.4 0.8 1.2 1.3 1.6 1.1z"/>
			<path class="s34" d="m240.6 61.5c-0.4-0.9-1.2-1.4-1.7-1.2q-0.1 0.1-0.1 0.2-0.1 0-0.1 0.1c0.8 0 0.4 0.9 1.9 0.9z"/>
			<path class="s35" d="m238.6 61.2q0 0.6 0.2 1.2l0.2 0.2c0.1 0 0.5-0.1 0.6 0.1 0.2 0.3 0.3 0.7 0.9 0.8q0.2-0.1 0.3-0.4 0.1-0.2 0.1-0.5h-0.2c-1 0-1.6-1-2.1-1.4z"/>
			<path class="s22" d="m235.5 66.6c0.3 0 0.5-0.2 0.5-0.6 0-0.3-0.2-0.6-0.5-0.6-0.2 0-0.5 0.3-0.5 0.6 0 0.4 0.3 0.6 0.5 0.6z"/>
			<path class="s22" d="m233 70.8c0.2 0 0.5-0.3 0.5-0.7 0-0.3-0.3-0.6-0.5-0.6-0.3 0-0.5 0.3-0.5 0.6 0 0.4 0.2 0.7 0.5 0.7z"/>
			<path class="s36" d="m234.1 73.3q0.2 1.1 0.6 2.2c0-0.5 0.2-1.2 0.6-1.4 0.4-0.1 0.4-1.1 0.9-1.1l-0.7-1.6z"/>
			<path class="s5" d="m244.3 78.7c1.2 1.2 1.7 2 1.7 2.7q-0.7-0.3-1.3-0.8z"/>
			<path class="s27" d="m239.7 69.1q1.6-0.4 3.2-0.7c-1.7-0.2-2.7 0.1-3.2 0.7z"/>
			<path class="s37" d="m240.8 71.2q0 0.3 0.2 0.6 0.1 0.3 0.4 0.6c0.2 0.1 0-0.2-0.3-0.8-0.2-0.6-0.4-0.8-0.3-0.4z"/>
		</g>
	</g>
	<path class="s38" d="m269.3 80l-0.3-1.9h-3.7v-9.1h-2.1v11zm8-3.9c0-2.5-1.6-4-3.7-4-2.1 0-3.6 1.5-3.6 4 0 2.6 1.5 4.1 3.6 4.1 2.1 0 3.7-1.6 3.7-4.1zm-1.9 0c0 1.5-0.6 2.5-1.8 2.5-1.1 0-1.7-1-1.7-2.5 0-1.4 0.6-2.4 1.7-2.4 1.2 0 1.8 1 1.8 2.4zm9.2 3.3l-0.2-1.6c-0.7 0.5-1.4 0.7-2 0.7-1.2 0-2-0.8-2-2.4 0-1.5 0.8-2.3 1.9-2.3 0.8 0 1.4 0.2 2 0.7l0.3-1.7c-0.6-0.4-1.4-0.7-2.4-0.7-2.1 0-3.8 1.4-3.8 4.1 0 2.5 1.5 3.9 3.7 3.9 1 0 1.8-0.2 2.5-0.7zm6.3 0.7l2.1-0.3-3.1-4 2.9-3.5h-2.2l-2.5 3.2v-7.1l-1.9 0.4v11.2h1.9v-3.8zm9.4-0.9l-0.2-1.5c-0.8 0.6-1.7 0.9-2.6 0.9-1.2 0-2-0.6-2.1-2.1h4.9c0-0.2 0-0.3 0-0.5 0-2.2-1-3.9-3.3-3.9-2 0-3.5 1.5-3.5 4 0 2.8 1.6 4 3.7 4 1.3 0 2.3-0.4 3.1-0.9zm-3.4-5.8c1 0 1.4 0.7 1.6 1.9h-3.1c0.1-1.3 0.8-1.9 1.5-1.9z"/>
	<g id="Clip-Path" clip-path="url(#cp3)">
		<g>
			<path fill-rule="evenodd" class="s39" d="m240 251c-7.7 0-14-6.3-14-14 0-7.7 6.3-14 14-14 7.7 0 14 6.3 14 14 0 7.7-6.3 14-14 14z"/>
			<path class="s40" d="m247.9 226.3v0.1l-0.2 0.3v0.1l-0.1 0.2c-2.1 4.9-6.1 8.5-8.7 11-2.8 2.6-5.9 4.7-9.2 6.4-3.4 1.6-4.8 0.2-4.5-2.5l0.4-1.4 1.6-6.8v-0.3c1.2-4.5 2.9-7 8.4-8.4l8.4-2.1c2.9-0.7 5 0.3 3.9 3.4z"/>
			<path class="s41" d="m247 223c-2.6 0.4-7.6 3.6-12.6 8.3-4.9 4.7-8.7 9.9-9 12.5 0.4 1.4 1.9 1.8 4.3 0.6 3.3-1.7 6.4-3.8 9.2-6.4 2.6-2.5 6.6-6.1 8.7-11l0.1-0.2v-0.1l0.2-0.3v-0.1c0.7-1.8 0.2-2.9-0.9-3.3z"/>
			<path class="s42" d="m239.1 236.2c4.8-4.5 8-9 7.2-9.9-0.9-0.9-5.5 2-10.3 6.6-4.8 4.6-8 9-7.2 9.9 0.9 0.9 5.5-2 10.3-6.6z"/>
			<path class="s43" d="m238.1 244.1l-1.3 1q-0.4 0.3-0.7 0.8-0.3 0.4-0.3 1l-0.3 1.7-2.2 2c-0.5 0.5-0.7 1.1-0.8 1.8v1.5c0 0 12.3 6.6 18.9 5.4 6.6-1.2 2.6-12.5 2.6-12.5q-0.1-0.1-0.3-0.2-0.2-0.1-0.3-0.1l-2-0.2-0.8-2q-0.2-0.3-0.4-0.5-0.2-0.2-0.5-0.3l-5.8-1.2z"/>
			<path class="s44" d="m238.4 247.6c-1.8-0.4-1.6-0.3-1.1-1.1 0.3-0.5 0.7-1 1.2-1.2z"/>
			<path class="s45" d="m241.1 231.3c-0.2-0.2-2 1-3.9 2.9-2 1.8-3.4 3.4-3.2 3.7 2.3 3.6 3.9 7 4.4 9.7l9.6 1.8c-0.5-8.5-4.5-14.3-6.9-18.1z"/>
			<path class="s46" d="m244.7 238.9c0-0.3-0.3-0.5-0.5-0.5-0.2 0.1-0.3 0.4-0.2 0.7 0.1 0.3 0.3 0.5 0.5 0.4 0.2 0 0.3-0.3 0.2-0.6z"/>
			<path class="s46" d="m241.6 240.7c0.1-0.3 0-0.6-0.3-0.8-0.2-0.2-0.6-0.2-0.7 0-0.2 0.3-0.1 0.6 0.2 0.8 0.3 0.2 0.6 0.2 0.8 0z"/>
			<path class="s47" d="m243.6 243.6c0.8-0.4 1.5-0.8 1.8-0.7 0.4 0.1 0.2 0.7-0.1 1.5-0.4 0.7-0.3 0.4-1.2 0.1-0.9-0.2-1.2-0.6-0.5-0.9z"/>
			<path class="s48" d="m243.9 243.5l-0.6 0.4c0 0.3 0.4 0.5 0.8 0.6 0.5 0.1 1 0.2 1.2-0.1l0.1-0.4c-0.2-0.2-0.8-0.6-1.5-0.5z"/>
			<path class="s5" d="m245.1 242.9q-0.8 0.3-1.5 0.7c-0.4 0.2-0.4 0.4-0.2 0.5l1.8-0.8c0.1 0 0-0.2-0.1-0.4z"/>
			<path class="s42" d="m247.4 240.4c0 0 0-0.1 0-0.1q0-0.4-0.3-0.7-0.3-0.4-0.7-0.5 0.1 0.1 0.2 0.3 0 0.1 0 0.2 0 0.1-0.1 0.3 0 0.1-0.1 0.1-0.4 0.3-0.9 0.3-0.6 0.1-1.1 0.4-0.5 0.3-0.8 0.8c-1.4-0.1-1.8 0.8-2.8 1.2q-0.4 0.2-0.8 0.3c-1 0.2-1.1-0.2-1.1-0.7-1.1 0.8-0.4 2 0.4 2.3 0.5 0.2 1.1 0.1 1.8-0.4 1.6 0.4 2.2 0.2 3.2-1.4 1.6 0.4 2.6-0.2 2.7-1.7q0.2-0.1 0.3-0.3 0.1-0.2 0.1-0.4z"/>
			<path class="s49" d="m244.3 242.8c1.6 0.4 2.6-0.2 2.7-1.7q0.2-0.1 0.3-0.3 0.1-0.2 0.1-0.4c0 0 0-0.1 0-0.1q0-0.2-0.1-0.4 0 0.3-0.2 0.6-0.2 0.3-0.5 0.3c-0.5 1.1-1.5 1.3-2.6 1.1 0 0-1.2 1.7-2.9 1.3-1.2 1-2.5 0.9-2.8-0.1q0 0.5 0.2 0.9 0.3 0.4 0.8 0.6c0.5 0.2 1.1 0.1 1.8-0.4 1.6 0.4 2.2 0.2 3.2-1.4z"/>
		</g>
	</g>
	<path class="s38" d="m271.2 242.2l-0.3-1.8c-0.8 0.6-1.7 1-2.8 1-2 0-3.2-1.5-3.2-3.9 0-2.4 1.2-3.9 3.2-3.9 1.1 0 1.9 0.4 2.6 1l0.3-2c-0.8-0.5-1.7-0.8-3-0.8-3.2 0-5.3 2.3-5.3 5.7 0 3.4 2.1 5.7 5.3 5.7 1.2 0 2.4-0.4 3.2-1zm7.8 0.8v-5.3c0-1.9-1-2.6-3-2.6-1.2 0-2.2 0.3-3.1 0.6l0.3 1.6c0.8-0.4 1.6-0.7 2.5-0.7 0.9 0 1.4 0.4 1.4 1.2v0.2c-3.2 0.3-4.7 1.1-4.7 3 0 1.4 0.9 2.2 2.2 2.2 1.1 0 1.9-0.6 2.6-1.2l0.1 1zm-1.9-2.1c-0.5 0.5-1.1 0.8-1.8 0.8-0.6 0-0.9-0.3-0.9-0.9 0-0.7 0.5-1.4 2.7-1.7zm10.9-1.9c0-2.6-1.3-3.8-2.9-3.8-1.1 0-1.8 0.6-2.4 1.2l-0.1-1.1h-1.7v10.7l2-0.2v-3c0.4 0.2 1 0.4 1.7 0.4 1.8 0 3.4-1.3 3.4-4.2zm-1.9 0.1c0 1.7-0.8 2.5-1.8 2.5-0.6 0-1-0.1-1.4-0.3v-3.3c0.5-0.7 1-1.1 1.7-1.1 0.9 0 1.5 0.7 1.5 2.2z"/>
	<g id="Clip-Path" clip-path="url(#cp4)">
		<g>
			<path fill-rule="evenodd" class="s50" d="m240 215c-7.7 0-14-6.3-14-14 0-7.7 6.3-14 14-14 7.7 0 14 6.3 14 14 0 7.7-6.3 14-14 14z"/>
			<path class="s51" d="m232.8 205.6c1.6 5.7 8.2 9.6 13.5 5.9 5.3-3.7 0-11.3 0-11.3 0 0 2.9-7.3-4.3-9-7.1-1.7-8.9 1.4-9.2 14.4z"/>
			<path class="s52" d="m243.4 201.4c-0.8 0-1.4-0.9-1.4-1.9 0-1.1 0.6-1.9 1.4-1.9 0.8 0 1.5 0.8 1.5 1.9 0 1-0.7 1.9-1.5 1.9z"/>
			<path class="s53" d="m244.1 200.9c-0.2 0-0.4-0.3-0.4-0.7 0.1-0.4 0.2-0.7 0.5-0.7 0.2 0.1 0.3 0.4 0.3 0.8-0.1 0.4-0.2 0.7-0.4 0.6z"/>
			<path class="s53" d="m245.1 195.9q-0.1-0.5-0.5-0.7-0.4-0.3-0.9-0.3-0.4 0-0.8 0.3-0.4 0.2-0.5 0.7z"/>
			<path class="s54" d="m245 204.1c-1.5 0.4-3 0-4.2-1.3q-0.3-0.3-0.7-0.4-0.4 0-0.7 0.2-0.3 0.3-0.4 0.7-0.1 0.3 0.2 0.7c1.9 3.1 4.9 3.6 6.8 1.8q0.2-0.1 0.2-0.4 0.1-0.2 0.1-0.5-0.1-0.2-0.2-0.4-0.1-0.2-0.3-0.3-0.2-0.1-0.4-0.1-0.2-0.1-0.4 0z"/>
			<path class="s52" d="m243.9 204.2q0.5 0 1.1-0.1h0.3v0.9c0 0-0.6 0.4-2.6 0.2v-0.5l-3.7-1.2q0-0.3 0.1-0.5 0.1-0.2 0.3-0.3 0 0 0-0.1 0 0 0.1 0 0.2-0.1 0.5-0.1c0 0 0.1 0 0.1 0h0.4c0 0 0 0 0 0.1 0 0 0.1 0 0.1 0l0.2 0.1q0.3 0.4 0.7 0.7l0.5 0.3q0.4 0.2 0.8 0.4 0.5 0.1 1.1 0.1z"/>
			<path class="s55" d="m239.4 202.6q0 0 0 0 0 0 0.1 0 0.2-0.2 0.5-0.1c0-0.1 0.1 0 0.1 0h0.4c0 0 0 0 0 0 0 0.1 0.1 0 0.1 0.1l0.2 0.1q0.1 0.2 0.4 0.4l-1.1 0.6-1.1-0.4q0-0.2 0.1-0.4 0.2-0.1 0.3-0.3z"/>
			<path class="s53" d="m234.3 193.8c1.4-2.9 3.7-3.5 7.7-2.6q1.2 0.3 2.3 0.9c0.3 1.2-1.6 1.6-4.9 0.5 1.1 2-1.2 5.6-5.1 1.2z"/>
			<path class="s53" d="m239 191.1l0.2-2.4q0-0.4-0.1-0.7-0.1-0.3-0.3-0.5-0.3-0.3-0.6-0.4-0.3-0.1-0.7-0.1-0.4 0-0.7 0.2-0.3 0.2-0.5 0.5-0.2 0.4-0.2 0.8-0.1 0.3 0.1 0.7l1.1 2.5z"/>
			<path class="s56" d="m229.4 204.2l1.1 0.4 2.3-1.5v1.9l1.9 1.5q0.7 0.5 1 1.2 0.4 0.8 0.5 1.5v1.6c2.9 2.3 6.7 3.1 10.1 0.7q0.8-0.6 1.4-1.4l1.2 0.4c0 0-2.3 9.9-6.2 11.7-3.9 1.8-6.7 0-6.7 0-4-13.9-2.8-16.5-13-12.5l-0.4-2.8z"/>
			<path class="s51" d="m237.5 199.8l-7.4-6.9-0.7 0.9 5.7 10.6z"/>
			<path class="s57" d="m234.8 198.3l-2.9-2.1 2.2 4-0.4-1.5z"/>
		</g>
	</g>
	<path class="s5" d="m272 206.1v-5.3h-4.4l0.3 1.7h2.2v2.5c-0.5 0.3-1.1 0.4-1.9 0.4-2.2 0-3.3-1.6-3.3-3.9 0-2.4 1.1-3.9 3.2-3.9 1.3 0 2.3 0.4 3.1 1l0.3-2c-0.9-0.5-2-0.8-3.4-0.8-3.3 0-5.4 2.3-5.4 5.7 0 3.4 2 5.7 5.5 5.7 1.4 0 2.8-0.4 3.8-1.1zm6.7-5.1l-0.3-1.9c-1.2 0.1-2 0.8-2.5 1.7l-0.3-1.5h-1.6v7.7h1.9v-4.4c0.6-0.9 1.6-1.5 2.8-1.6zm7 6v-5.3c0-1.9-0.9-2.6-2.9-2.6-1.3 0-2.2 0.3-3.1 0.6l0.2 1.6c0.9-0.4 1.7-0.7 2.6-0.7 0.8 0 1.3 0.4 1.3 1.2v0.2c-3.1 0.3-4.6 1.1-4.6 3 0 1.4 0.8 2.2 2.2 2.2 1.1 0 1.9-0.6 2.5-1.2l0.2 1zm-1.9-2.1c-0.6 0.5-1.2 0.8-1.8 0.8-0.6 0-1-0.3-1-0.9 0-0.7 0.6-1.4 2.8-1.7zm10.7 2.5c0-1.2-1-1.7-2.5-1.9l-1-0.1c-1.2-0.2-1.5-0.2-1.5-0.5 0-0.1 0.1-0.3 0.3-0.4q0.3 0 0.7 0c1.6 0 3.1-1 3.1-2.6q0-0.6-0.3-1l1.5-0.1-0.3-1.6-1.9 0.7q-0.8-0.7-2.2-0.7c-1.7 0-3.1 1-3.1 2.7 0 1 0.6 1.8 1.5 2.3q-1 0.6-1 1.2 0 0.5 0.4 0.8c-0.9 0.6-1.4 1.1-1.4 1.9 0 1.2 1.6 1.9 3.7 1.9 2.2 0 4-0.9 4-2.6zm-2.7-5.5c0 0.8-0.5 1.4-1.4 1.4-0.8 0-1.3-0.6-1.3-1.4 0-0.8 0.5-1.5 1.3-1.5 0.8 0 1.4 0.6 1.4 1.5zm-1.2 6.9c-1.5 0-2.2-0.4-2.2-0.9 0-0.4 0.3-0.8 0.9-1.2 0.3 0.1 0.6 0.1 1.1 0.2l1.1 0.1c0.9 0.2 1.3 0.4 1.3 0.8 0 0.6-0.8 1-2.2 1zm12.2-1.4c0-1.2-1-1.7-2.6-1.9l-0.9-0.1c-1.2-0.2-1.5-0.2-1.5-0.5 0-0.1 0.1-0.3 0.3-0.4q0.3 0 0.7 0c1.6 0 3-1 3-2.6q0.1-0.6-0.2-1l1.4-0.1-0.2-1.6-1.9 0.7q-0.8-0.7-2.2-0.7c-1.7 0-3.1 1-3.1 2.7 0 1 0.6 1.8 1.5 2.3q-1 0.6-1 1.2 0 0.5 0.4 0.8c-0.9 0.6-1.4 1.1-1.4 1.9 0 1.2 1.6 1.9 3.7 1.9 2.2 0 4-0.9 4-2.6zm-2.7-5.5c0 0.8-0.5 1.4-1.4 1.4-0.8 0-1.3-0.6-1.3-1.4 0-0.8 0.5-1.5 1.3-1.5 0.8 0 1.4 0.6 1.4 1.5zm-1.2 6.9c-1.5 0-2.2-0.4-2.2-0.9 0-0.4 0.3-0.8 0.9-1.2 0.3 0.1 0.6 0.1 1.1 0.2l1.1 0.1c0.9 0.2 1.2 0.4 1.2 0.8 0 0.6-0.7 1-2.1 1zm7.3-1.7v-11.6l-1.9 0.3v11.3zm8.5-0.8l-0.3-1.5c-0.8 0.6-1.6 0.9-2.6 0.9-1.2 0-2-0.6-2.1-2.1h5c0-0.1 0-0.3 0-0.5 0-2.2-1.1-3.9-3.4-3.9-2 0-3.5 1.5-3.5 4 0 2.8 1.6 4 3.8 4 1.2 0 2.2-0.3 3.1-0.9zm-3.4-5.8c0.9 0 1.4 0.7 1.5 1.9h-3.1c0.2-1.3 0.8-1.9 1.6-1.9z"/>
	<path class="s38" d="m272 333.1v-5.3h-4.4l0.3 1.7h2.2v2.5c-0.5 0.3-1.1 0.4-1.9 0.4-2.2 0-3.3-1.6-3.3-3.9 0-2.4 1.1-3.9 3.2-3.9 1.3 0 2.3 0.4 3.1 1l0.3-2c-0.9-0.5-2-0.8-3.4-0.8-3.3 0-5.4 2.3-5.4 5.7 0 3.4 2 5.7 5.5 5.7 1.4 0 2.8-0.4 3.8-1.1zm6.7-5.1l-0.3-1.9c-1.2 0.1-2 0.8-2.5 1.7l-0.3-1.5h-1.6v7.7h1.9v-4.4c0.6-0.9 1.6-1.5 2.8-1.6zm7 6v-5.3c0-1.9-0.9-2.6-2.9-2.6-1.3 0-2.2 0.3-3.1 0.6l0.2 1.6c0.9-0.4 1.7-0.7 2.6-0.7 0.8 0 1.3 0.4 1.3 1.2v0.2c-3.1 0.3-4.6 1.1-4.6 3 0 1.4 0.8 2.2 2.2 2.2 1.1 0 1.9-0.6 2.5-1.2l0.2 1zm-1.9-2.1c-0.6 0.5-1.2 0.8-1.8 0.8-0.6 0-1-0.3-1-0.9 0-0.7 0.6-1.4 2.8-1.7zm10.7 2.5c0-1.2-1-1.7-2.5-1.9l-1-0.1c-1.2-0.2-1.5-0.2-1.5-0.5 0-0.1 0.1-0.3 0.3-0.4q0.3 0 0.7 0c1.6 0 3.1-1 3.1-2.6q0-0.6-0.3-1l1.5-0.1-0.3-1.6-1.9 0.7q-0.8-0.7-2.2-0.7c-1.7 0-3.1 1-3.1 2.7 0 1 0.6 1.8 1.5 2.3q-1 0.6-1 1.2 0 0.5 0.4 0.8c-0.9 0.6-1.4 1.1-1.4 1.9 0 1.2 1.6 1.9 3.7 1.9 2.2 0 4-0.9 4-2.6zm-2.7-5.5c0 0.8-0.5 1.4-1.4 1.4-0.8 0-1.3-0.6-1.3-1.4 0-0.8 0.5-1.5 1.3-1.5 0.8 0 1.4 0.6 1.4 1.5zm-1.2 6.9c-1.5 0-2.2-0.4-2.2-0.9 0-0.4 0.3-0.8 0.9-1.2 0.3 0.1 0.6 0.1 1.1 0.2l1.1 0.1c0.9 0.2 1.3 0.4 1.3 0.8 0 0.6-0.8 1-2.2 1zm12.2-1.4c0-1.2-1-1.7-2.6-1.9l-0.9-0.1c-1.2-0.2-1.5-0.2-1.5-0.5 0-0.1 0.1-0.3 0.3-0.4q0.3 0 0.7 0c1.6 0 3-1 3-2.6q0.1-0.6-0.2-1l1.4-0.1-0.2-1.6-1.9 0.7q-0.8-0.7-2.2-0.7c-1.7 0-3.1 1-3.1 2.7 0 1 0.6 1.8 1.5 2.3q-1 0.6-1 1.2 0 0.5 0.4 0.8c-0.9 0.6-1.4 1.1-1.4 1.9 0 1.2 1.6 1.9 3.7 1.9 2.2 0 4-0.9 4-2.6zm-2.7-5.5c0 0.8-0.5 1.4-1.4 1.4-0.8 0-1.3-0.6-1.3-1.4 0-0.8 0.5-1.5 1.3-1.5 0.8 0 1.4 0.6 1.4 1.5zm-1.2 6.9c-1.5 0-2.2-0.4-2.2-0.9 0-0.4 0.3-0.8 0.9-1.2 0.3 0.1 0.6 0.1 1.1 0.2l1.1 0.1c0.9 0.2 1.2 0.4 1.2 0.8 0 0.6-0.7 1-2.1 1zm7.3-1.7v-11.6l-1.9 0.3v11.3zm8.5-0.8l-0.3-1.5c-0.8 0.6-1.6 0.9-2.6 0.9-1.2 0-2-0.6-2.1-2.1h5c0-0.1 0-0.3 0-0.5 0-2.2-1.1-3.9-3.4-3.9-2 0-3.5 1.5-3.5 4 0 2.8 1.6 4 3.8 4 1.2 0 2.2-0.3 3.1-0.9zm-3.4-5.8c0.9 0 1.4 0.7 1.5 1.9h-3.1c0.2-1.3 0.8-1.9 1.6-1.9z"/>
	<path class="s38" d="m263.2 116h2.1v-4.1h0.9c2.6 0 4.2-1.2 4.2-3.5 0-2.3-1.5-3.4-4-3.4h-3.2zm5.2-7.6c0 1.2-0.8 1.8-2.2 1.8h-0.9v-3.6h1c1.3 0 2.1 0.6 2.1 1.8zm10.1 7.6v-5.6c0-1.4-0.8-2.3-2.2-2.3-1.1 0-1.9 0.5-2.5 1.1v-4.8l-1.9 0.3v11.3h1.9v-5.3c0.5-0.5 1.2-0.9 1.7-0.9 0.8 0 1 0.4 1 1.1v5.1zm4.2-10.2c0-0.6-0.6-1.1-1.2-1.1-0.6 0-1.1 0.5-1.1 1.1 0 0.7 0.5 1.1 1.1 1.1 0.6 0 1.2-0.4 1.2-1.1zm-0.2 10.2v-7.8h-2v7.8zm9.1-4.1c0-2.6-1.3-3.8-2.9-3.8-1 0-1.7 0.5-2.2 1v-4.7l-1.9 0.3v10.8c0.9 0.4 1.9 0.6 3.1 0.6 2.3 0 3.9-1.4 3.9-4.2zm-1.9 0.1c0 1.8-0.8 2.5-2 2.5-0.5 0-0.8-0.1-1.2-0.2v-3.5c0.5-0.6 1-1 1.7-1 0.9 0 1.5 0.7 1.5 2.2zm5.7-6.2c0-0.6-0.6-1.1-1.2-1.1-0.6 0-1.1 0.5-1.1 1.1 0 0.7 0.5 1.1 1.1 1.1 0.6 0 1.2-0.4 1.2-1.1zm-0.2 10.2v-7.8h-2v7.8z"/>
	<path class="s21" d="m237.5 42.1l-0.3-2.4c-1.1 0.7-2.2 1.2-3.5 1.2-2.5 0-4.1-1.8-4.1-4.8 0-3 1.5-4.9 4-4.9 1.4 0 2.4 0.6 3.3 1.3l0.4-2.5c-1-0.7-2.2-1-3.8-1-4 0-6.6 2.8-6.6 7.1 0 4.3 2.5 7.1 6.5 7.1 1.6 0 3-0.4 4.1-1.1zm10.5-3.9c0-3.2-1.9-5.1-4.6-5.1-2.6 0-4.5 1.9-4.5 5.1 0 3.1 1.9 5 4.5 5 2.6 0 4.6-1.9 4.6-5zm-2.4 0c0 1.8-0.7 3-2.2 3-1.4 0-2.2-1.3-2.2-3 0-1.8 0.8-3.1 2.2-3.1 1.4 0 2.2 1.3 2.2 3.1zm12 4.8v-6.6c0-2.3-1.2-3.3-3.7-3.3-1.6 0-2.7 0.4-3.9 0.8l0.3 1.9c1.1-0.4 2.1-0.7 3.3-0.7 1 0 1.6 0.4 1.6 1.4v0.3c-3.9 0.4-5.8 1.4-5.8 3.7 0 1.7 1.1 2.7 2.7 2.7 1.5 0 2.5-0.6 3.3-1.5l0.2 1.3zm-2.4-2.7c-0.7 0.7-1.5 1.1-2.3 1.1-0.7 0-1.2-0.4-1.2-1.1 0-1 0.7-1.8 3.5-2.1zm12 1.9l-0.3-2.1c-0.9 0.7-1.7 1-2.5 1-1.4 0-2.5-1-2.5-3 0-1.9 1-2.9 2.4-2.9 0.9 0 1.7 0.3 2.5 0.9l0.3-2.2c-0.7-0.4-1.7-0.8-2.9-0.8-2.7 0-4.8 1.7-4.8 5.1 0 3.1 1.9 4.9 4.6 4.9 1.3 0 2.3-0.3 3.2-0.9zm10.2 0.7v-6.9c0-1.8-1-2.9-2.8-2.9-1.3 0-2.3 0.7-3.1 1.4v-6l-2.4 0.4v14h2.4v-6.5c0.7-0.7 1.5-1.2 2.2-1.2 0.9 0 1.3 0.6 1.3 1.4v6.3z"/>
	<path class="s58" d="m235.9 166.1c0-2.2-1.1-3.2-3.9-4.3-1.9-0.8-2.4-1.2-2.4-2.1 0-0.9 0.6-1.5 1.9-1.5 1.1 0 2.3 0.4 3.3 1.1l0.4-2.4c-1-0.5-2.1-0.9-3.7-0.9-2.5 0-4.4 1.5-4.4 3.9 0 2.1 1.1 3 3.7 4.1 2 0.9 2.5 1.3 2.5 2.3 0 1.1-0.8 1.7-2 1.7-1.4 0-2.9-0.5-4-1.2l-0.4 2.4c1.2 0.6 2.6 1 4.3 1 2.7 0 4.7-1.4 4.7-4.1zm7.2 3.9l-0.3-2q-0.4 0.1-0.8 0.1c-0.9 0-1.2-0.5-1.2-1.2v-4.6h2.2l-0.3-2h-1.9v-3.4l-2.4 0.4v3h-1.4v2h1.4v5c0 2.2 1.3 2.9 3.2 2.9 0.7 0 1.1-0.1 1.5-0.2zm1.7-9.7v7c0 1.8 1 2.9 2.8 2.9 1.3 0 2.3-0.7 3.2-1.6l0.2 1.4h2.1v-9.7h-2.4v6.6c-0.7 0.7-1.5 1.2-2.2 1.2-0.9 0-1.3-0.6-1.3-1.4v-6.4zm10.2 5.1c0 3.3 1.7 4.8 3.7 4.8 1.3 0 2.3-0.7 2.9-1.5l0.2 1.3h2.1v-14.4l-2.4 0.3v4.7c-0.6-0.2-1.3-0.4-2.2-0.4-2.3 0-4.3 1.6-4.3 5.2zm2.5-0.1c0-2.1 0.9-3.1 2.1-3.1 0.8 0 1.3 0.1 1.9 0.4v4.1c-0.6 0.8-1.3 1.4-2.2 1.4-1.1 0-1.8-0.9-1.8-2.8zm16.9 3.7l-0.3-1.9c-1 0.8-2 1.2-3.3 1.2-1.5 0-2.5-0.8-2.6-2.7h6.2c0-0.1 0-0.3 0-0.5 0-2.8-1.3-5-4.2-5-2.5 0-4.4 1.9-4.4 5.1 0 3.5 2.1 5 4.8 5 1.5 0 2.8-0.5 3.8-1.2zm-4.2-7.2c1.1 0 1.7 0.8 1.9 2.3h-3.9c0.2-1.5 1-2.3 2-2.3zm14.4 8.2v-7c0-1.8-0.9-2.9-2.7-2.9-1.3 0-2.4 0.7-3.3 1.6l-0.2-1.4h-2v9.7h2.4v-6.5c0.7-0.8 1.4-1.2 2.2-1.2 0.9 0 1.2 0.5 1.2 1.4v6.3zm7.6 0l-0.3-2q-0.3 0.1-0.7 0.1c-1 0-1.3-0.5-1.3-1.2v-4.6h2.3l-0.3-2h-2v-3.4l-2.4 0.4v3h-1.3v2h1.3v5c0 2.2 1.3 2.9 3.2 2.9 0.7 0 1.1-0.1 1.5-0.2zm14 0l-0.4-2.4h-4.6v-11.4h-2.7v13.8zm9.5-1l-0.3-1.9c-1 0.8-2 1.2-3.3 1.2-1.5 0-2.5-0.8-2.6-2.7h6.2c0-0.1 0-0.3 0-0.5 0-2.8-1.3-5-4.2-5-2.5 0-4.4 1.9-4.4 5.1 0 3.5 2.1 5 4.8 5 1.5 0 2.8-0.5 3.8-1.2zm-4.2-7.2c1.1 0 1.7 0.8 1.9 2.3h-3.9c0.2-1.5 1-2.3 2-2.3zm13.9 8.2v-6.6c0-2.3-1.3-3.3-3.8-3.3-1.5 0-2.7 0.4-3.8 0.8l0.3 1.9c1-0.4 2.1-0.7 3.2-0.7 1.1 0 1.7 0.4 1.7 1.4v0.3c-3.9 0.4-5.9 1.4-5.9 3.7 0 1.7 1.1 2.7 2.8 2.7 1.4 0 2.4-0.6 3.2-1.5l0.2 1.3zm-2.4-2.7c-0.7 0.7-1.4 1.1-2.3 1.1-0.7 0-1.1-0.4-1.1-1.1 0-1 0.6-1.8 3.4-2.1zm4.3-1.9c0 3.2 1.6 4.7 3.6 4.7 1.4 0 2.3-0.7 3-1.5l0.2 1.3h2v-14.4l-2.4 0.4v4.6c-0.5-0.2-1.3-0.3-2.2-0.3-2.2 0-4.2 1.6-4.2 5.2zm2.4-0.2c0-2.1 0.9-3.1 2.2-3.1 0.8 0 1.2 0.1 1.8 0.4v4.2c-0.6 0.8-1.3 1.3-2.2 1.3-1 0-1.8-0.9-1.8-2.8z"/>
	<path class="s59" d="m236.8 297.1l2.7-0.4-5.1-13.6h-2.8l-5.2 13.9h2.7l1.2-3.5h5.2zm-3.9-11.1l1.9 5.3h-3.8zm16.5 11v-7c0-1.8-1-2.9-2.8-2.9-1.3 0-2.3 0.7-3.2 1.6l-0.2-1.4h-2.1v9.7h2.4v-6.5c0.7-0.8 1.5-1.2 2.2-1.2 0.9 0 1.3 0.5 1.3 1.4v6.3zm5.1-12.6c0-0.9-0.6-1.4-1.4-1.4-0.8 0-1.4 0.5-1.4 1.4 0 0.8 0.6 1.3 1.4 1.3 0.8 0 1.4-0.5 1.4-1.3zm-0.2 12.6v-9.7h-2.4v9.7zm16.4 0v-7c0-1.8-0.9-2.9-2.7-2.9-1.3 0-2.4 0.7-3.2 1.6-0.4-0.9-1.2-1.6-2.5-1.6-1.3 0-2.3 0.7-3.2 1.6l-0.2-1.4h-2.1v9.7h2.4v-6.5c0.7-0.8 1.4-1.2 2.2-1.2 0.9 0 1.2 0.5 1.2 1.4v6.3h2.4v-6.5c0.7-0.8 1.4-1.2 2.1-1.2 0.9 0 1.2 0.5 1.2 1.4v6.3zm10.1 0v-6.6c0-2.3-1.3-3.3-3.8-3.3-1.5 0-2.7 0.4-3.8 0.8l0.3 1.9c1-0.4 2.1-0.7 3.2-0.7 1.1 0 1.7 0.4 1.7 1.4v0.3c-3.9 0.4-5.8 1.4-5.8 3.7 0 1.7 1.1 2.7 2.7 2.7 1.4 0 2.4-0.6 3.2-1.5l0.2 1.3zm-2.4-2.7c-0.6 0.7-1.4 1.1-2.2 1.1-0.8 0-1.2-0.4-1.2-1.1 0-1 0.6-1.8 3.4-2.1zm7.3 2.6v-14.4l-2.4 0.4v14zm17.1-0.9l-0.3-2.3c-1.1 0.7-2.2 1.2-3.5 1.2-2.5 0-4.1-1.9-4.1-4.9 0-2.9 1.5-4.8 4-4.8 1.4 0 2.4 0.5 3.3 1.2l0.4-2.5c-1-0.6-2.2-1-3.8-1-4 0-6.6 2.9-6.6 7.2 0 4.3 2.5 7.1 6.5 7.1 1.6 0 3-0.5 4.1-1.2zm7.9-6.5l-0.4-2.4c-1.5 0.1-2.5 1-3.1 2.1l-0.3-1.9h-2.1v9.6h2.4v-5.5c0.7-1 2-1.8 3.5-1.9zm9.8 2.6c0-3.1-1.9-5-4.5-5-2.7 0-4.6 1.9-4.6 5 0 3.2 1.9 5 4.5 5 2.7 0 4.6-1.9 4.6-5zm-2.3 0c0 1.8-0.8 3.1-2.3 3.1-1.4 0-2.1-1.3-2.1-3.1 0-1.8 0.7-3.1 2.1-3.1 1.5 0 2.3 1.3 2.3 3.1zm11.4 2c0-1.8-0.9-2.5-3.4-3.1-1.5-0.4-1.8-0.7-1.8-1.2 0-0.6 0.4-0.9 1.3-0.9 1 0 2.1 0.3 3.1 0.9l0.3-2c-1-0.5-2.1-0.7-3.4-0.7-2.2 0-3.6 1.2-3.6 2.8 0 1.8 1 2.5 3.4 3.1 1.5 0.4 1.9 0.6 1.9 1.3 0 0.7-0.5 1-1.6 1-1.2 0-2.5-0.4-3.5-1.1l-0.3 2c0.9 0.5 2.3 0.9 3.7 0.9 2.6 0 3.9-1.1 3.9-3zm9 0c0-1.8-1-2.5-3.5-3.1-1.4-0.4-1.8-0.7-1.8-1.2 0-0.6 0.5-0.9 1.4-0.9 0.9 0 2.1 0.3 3 0.9l0.4-2c-1-0.5-2.2-0.7-3.4-0.7-2.3 0-3.6 1.2-3.6 2.8 0 1.8 1 2.5 3.3 3.1 1.6 0.4 2 0.6 2 1.3 0 0.7-0.6 1-1.6 1-1.2 0-2.5-0.4-3.5-1.1l-0.3 2c0.9 0.5 2.3 0.9 3.7 0.9 2.6 0 3.9-1.1 3.9-3zm4.7-9.8c0-0.8-0.7-1.4-1.5-1.4-0.8 0-1.4 0.6-1.4 1.4 0 0.8 0.6 1.4 1.4 1.4 0.8 0 1.5-0.6 1.5-1.4zm-0.3 12.6v-9.6h-2.4v9.6zm10.8 0v-6.9c0-1.8-1-2.9-2.8-2.9-1.3 0-2.3 0.7-3.2 1.5l-0.2-1.3h-2v9.6h2.4v-6.5c0.7-0.7 1.4-1.2 2.2-1.2 0.8 0 1.2 0.6 1.2 1.4v6.3zm11.1 0.4c0-1.4-1.3-2.1-3.3-2.3l-1.2-0.2c-1.5-0.2-1.8-0.3-1.8-0.6 0-0.1 0.2-0.3 0.4-0.5q0.4 0.1 0.8 0.1c2.1 0 3.8-1.3 3.8-3.4 0-0.4 0-0.8-0.2-1.2l1.7-0.1-0.3-2-2.3 0.9q-1.1-0.9-2.8-0.9c-2.1 0-3.9 1.3-3.9 3.4 0 1.3 0.7 2.3 1.9 2.8q-1.2 0.7-1.3 1.6 0 0.5 0.6 1c-1.2 0.7-1.8 1.4-1.8 2.3 0 1.6 2 2.4 4.6 2.4 2.8 0 5.1-1.2 5.1-3.3zm-3.5-6.9c0 1.1-0.6 1.9-1.7 1.9-1 0-1.6-0.8-1.6-1.8 0-1.1 0.6-1.9 1.6-1.9 1.1 0 1.7 0.8 1.7 1.8zm-1.5 8.8c-1.8 0-2.6-0.6-2.6-1.3 0-0.5 0.3-0.9 1-1.4 0.5 0.1 0.8 0.1 1.4 0.2l1.3 0.2c1.2 0.1 1.6 0.4 1.6 1 0 0.7-0.9 1.3-2.7 1.3z"/>
	<path class="s60" d="m519.5 21.4l-6.4-2.8c-0.1 0-0.1-0.2 0-0.2l6.4-2.9h0.1l2.8-6.4c0-0.1 0.2-0.1 0.2 0l2.9 6.4 6.4 2.9c0.1 0 0.1 0.2 0 0.2l-6.4 2.8-2.9 6.4h-0.2l-2.8-6.4z"/>
	<path fill-rule="evenodd" class="s0" d="m390 105h200c4.4 0 8 3.6 8 8v281c0 4.4-3.6 8-8 8h-200c-4.4 0-8-3.6-8-8v-281c0-4.4 3.6-8 8-8z"/>
	<path class="s61" d="m382 113c0-4.4 3.6-8 8-8h200c4.4 0 8 3.6 8 8v176h-216z"/>
	<path class="s62" d="m451 260.1v-5.3h-4.4l0.3 1.7h2.2v2.5c-0.5 0.3-1.1 0.4-1.9 0.4-2.2 0-3.3-1.6-3.3-3.9 0-2.4 1.1-3.9 3.2-3.9 1.3 0 2.3 0.4 3.1 1l0.3-2c-0.9-0.5-2-0.8-3.4-0.8-3.3 0-5.4 2.3-5.4 5.7 0 3.4 2 5.7 5.5 5.7 1.4 0 2.8-0.4 3.8-1.1zm6.7-5.1l-0.3-1.9c-1.2 0.1-2 0.8-2.5 1.7l-0.3-1.5h-1.6v7.7h1.9v-4.4c0.6-0.9 1.6-1.5 2.8-1.6zm7 6v-5.3c0-1.9-0.9-2.6-2.9-2.6-1.3 0-2.2 0.3-3.1 0.6l0.2 1.6c0.9-0.4 1.7-0.7 2.6-0.7 0.8 0 1.3 0.4 1.3 1.2v0.2c-3.1 0.3-4.6 1.1-4.6 3 0 1.4 0.8 2.2 2.2 2.2 1.1 0 1.9-0.6 2.5-1.2l0.2 1zm-1.9-2.1c-0.6 0.5-1.2 0.8-1.8 0.8-0.6 0-1-0.3-1-0.9 0-0.7 0.6-1.4 2.8-1.7zm10.7 2.5c0-1.2-1-1.7-2.5-1.9l-1-0.1c-1.2-0.2-1.5-0.2-1.5-0.5 0-0.1 0.1-0.3 0.3-0.4q0.3 0 0.7 0c1.6 0 3.1-1 3.1-2.6q0-0.6-0.3-1l1.5-0.1-0.3-1.6-1.9 0.7q-0.8-0.7-2.2-0.7c-1.7 0-3.1 1-3.1 2.7 0 1 0.6 1.8 1.5 2.3q-1 0.6-1 1.2 0 0.5 0.4 0.8c-0.9 0.6-1.4 1.1-1.4 1.9 0 1.2 1.6 1.9 3.7 1.9 2.2 0 4-0.9 4-2.6zm-2.7-5.5c0 0.8-0.5 1.4-1.4 1.4-0.8 0-1.3-0.6-1.3-1.4 0-0.8 0.5-1.5 1.3-1.5 0.8 0 1.4 0.6 1.4 1.5zm-1.2 6.9c-1.5 0-2.2-0.4-2.2-0.9 0-0.4 0.3-0.8 0.9-1.2 0.3 0.1 0.6 0.1 1.1 0.2l1.1 0.1c0.9 0.2 1.3 0.4 1.3 0.8 0 0.6-0.8 1-2.2 1zm12.2-1.4c0-1.2-1-1.7-2.6-1.9l-0.9-0.1c-1.2-0.2-1.5-0.2-1.5-0.5 0-0.1 0.1-0.3 0.3-0.4q0.3 0 0.7 0c1.6 0 3-1 3-2.6q0.1-0.6-0.2-1l1.4-0.1-0.2-1.6-1.9 0.7q-0.8-0.7-2.2-0.7c-1.7 0-3.1 1-3.1 2.7 0 1 0.6 1.8 1.5 2.3q-1 0.6-1 1.2 0 0.5 0.4 0.8c-0.9 0.6-1.4 1.1-1.4 1.9 0 1.2 1.6 1.9 3.7 1.9 2.2 0 4-0.9 4-2.6zm-2.7-5.5c0 0.8-0.5 1.4-1.4 1.4-0.8 0-1.3-0.6-1.3-1.4 0-0.8 0.5-1.5 1.3-1.5 0.8 0 1.4 0.6 1.4 1.5zm-1.2 6.9c-1.5 0-2.2-0.4-2.2-0.9 0-0.4 0.3-0.8 0.9-1.2 0.3 0.1 0.6 0.1 1.1 0.2l1.1 0.1c0.9 0.2 1.2 0.4 1.2 0.8 0 0.6-0.7 1-2.1 1zm7.3-1.7v-11.6l-1.9 0.3v11.3zm8.5-0.8l-0.3-1.5c-0.8 0.6-1.6 0.9-2.6 0.9-1.2 0-2-0.6-2.1-2.1h5c0-0.1 0-0.3 0-0.5 0-2.2-1.1-3.9-3.4-3.9-2 0-3.5 1.5-3.5 4 0 2.8 1.6 4 3.8 4 1.2 0 2.2-0.3 3.1-0.9zm-3.4-5.8c0.9 0 1.4 0.7 1.5 1.9h-3.1c0.2-1.3 0.8-1.9 1.6-1.9zm9.6 6.6h1.4l0.4-2.5h2.3l-0.3-1.7h-1.8l0.4-2.5h2v-1.6h-1.7l0.4-2.4-1.3-0.3-0.4 2.7h-2.5l0.4-2.6h-1.3l-0.4 2.6h-2.3l0.2 1.6h1.9l-0.5 2.5h-1.9v1.7h1.7l-0.4 2.3 1.3 0.3 0.4-2.6h2.5zm-1.8-4.2l0.4-2.6h2.4l-0.4 2.6zm7.5 4.1h7.3l-0.2-1.7h-4.6l2.7-2.6c1.3-1.3 1.9-2.2 1.9-3.6 0-1.9-1.3-3.1-3.5-3.1-1.4 0-2.5 0.5-3.4 1.2l0.3 1.8c0.9-0.7 1.9-1.2 2.9-1.2 1.1 0 1.7 0.5 1.7 1.5 0 0.8-0.4 1.4-1.3 2.3l-3.8 3.9zm12.6 0.2c2.5 0 4-1.3 4-3 0-1.4-0.7-2.2-2.1-2.9 1.1-0.6 1.7-1.4 1.7-2.5 0-1.6-1.3-2.8-3.5-2.8-2.2 0-3.7 1.1-3.7 2.8 0 1.2 0.6 2 1.7 2.6-1.3 0.6-2.1 1.6-2.1 2.8 0 1.7 1.4 3 4 3zm-1.7-8.4c0-0.8 0.7-1.4 1.7-1.4 1.1 0 1.8 0.6 1.8 1.5 0 0.7-0.6 1.3-1.4 1.8-1.5-0.6-2.1-1.1-2.1-1.9zm1.7 6.9c-1.2 0-2.1-0.7-2.1-1.6 0-0.9 0.7-1.6 1.6-2.1 1.9 0.7 2.5 1.2 2.5 2.2 0 0.9-0.8 1.5-2 1.5zm8.1 1.4l4.2-9.3v-1.6h-7.4l0.2 1.8h5l-4 8.8zm8.7 0c2.4 0 4-1.2 4-3.2 0-1.4-0.8-2.2-2.2-2.6 1.2-0.4 2-1.2 2-2.6 0-1.5-1.2-2.8-3.6-2.8-1.4 0-2.5 0.4-3.4 1l0.3 1.7c0.8-0.6 1.8-1 2.8-1 1.2 0 1.8 0.6 1.8 1.4 0 0.9-0.7 1.5-2.3 1.5h-1l0.3 1.7h0.7c1.8 0 2.5 0.6 2.5 1.7 0 1-0.7 1.5-2 1.5-1.1 0-2-0.3-2.9-0.8l-0.3 1.7c0.8 0.5 2 0.8 3.3 0.8z"/>
	<g id="Clip-Path" clip-path="url(#cp5)">
		<g>
			<path fill-rule="evenodd" class="s50" d="m491 231c-29.9 0-54-24.1-54-54 0-29.9 24.1-54 54-54 29.9 0 54 24.1 54 54 0 29.9-24.1 54-54 54z"/>
			<path class="s51" d="m463.3 194.6c6.3 22 31.6 37.1 52 22.8 20.3-14.3 0.1-43.7 0.1-43.7 0 0 11.1-27.8-16.6-34.4-27.6-6.5-34.5 5.5-35.5 55.3z"/>
			<path class="s52" d="m504.3 178.6c-3.1 0-5.6-3.3-5.6-7.5 0-4.1 2.5-7.4 5.6-7.4 3 0 5.5 3.3 5.5 7.4 0 4.2-2.5 7.5-5.5 7.5z"/>
			<path class="s53" d="m506.6 176.8c-0.7-0.1-1.3-1.3-1.2-2.8 0.1-1.5 0.8-2.7 1.6-2.6 0.8 0 1.4 1.3 1.3 2.8-0.1 1.5-0.9 2.7-1.7 2.6z"/>
			<path class="s53" d="m510.7 157.3c-0.4-1.2-1.1-2.1-2-2.8-1-0.7-2.1-1.1-3.3-1.1-1.2 0-2.3 0.4-3.3 1.1-0.9 0.7-1.6 1.6-2 2.7z"/>
			<path class="s54" d="m510.1 188.9c-5.4 1.4-11.3 0.1-16.2-5.2-0.6-0.7-1.5-1.1-2.5-1.2-0.9-0.1-1.9 0.2-2.6 0.8-0.8 0.6-1.4 1.4-1.6 2.4-0.2 1 0 2 0.6 2.8 7.4 12.2 19 14 26.2 7.1 0.5-0.4 0.9-1 1.1-1.6 0.2-0.6 0.2-1.3 0-1.9q-0.1-0.9-0.6-1.6-0.5-0.7-1.2-1.1-0.7-0.5-1.5-0.6-0.9-0.1-1.7 0.1z"/>
			<path class="s52" d="m506 189.5q2.1 0 4.1-0.6h1.3v3.6c0 0-2.1 1.6-10.2 0.7v-2l-14-4.7q0-0.9 0.4-1.7 0.5-0.8 1.2-1.3 0-0.1 0-0.1 0.1-0.1 0.1-0.1c0.6-0.4 1.3-0.6 2-0.6 0.2-0.1 0.5 0 0.6 0h1.3c0.1 0.2 0.3 0.2 0.3 0.3 0 0.2 0.3 0 0.3 0.2l0.5 0.4q1.3 1.5 2.9 2.6l2 1.3q1.4 0.8 3 1.3 2 0.7 4.2 0.7z"/>
			<path class="s55" d="m488.8 183.3q0 0 0-0.1 0.1 0 0.1 0c0.6-0.4 1.3-0.6 2-0.6 0.2-0.1 0.5 0 0.6 0h1.3c0.1 0.1 0.3 0.1 0.3 0.3 0 0.1 0.3 0 0.3 0.1l0.5 0.5q0.7 0.9 1.6 1.5l-4 2.5-4.3-1.5q0.1-0.8 0.5-1.5 0.4-0.7 1.1-1.2z"/>
			<path class="s53" d="m469.2 149.4c5.1-11.5 14.1-13.8 29.6-10.1 3.1 0.7 6.1 1.9 8.9 3.5 0.9 4.6-6.2 6-19.2 1.8 4.3 7.8-4.6 21.5-19.3 4.8z"/>
			<path class="s53" d="m487.2 138.9l0.7-9.4q0.1-1.3-0.3-2.6-0.5-1.2-1.4-2.1-1-1-2.2-1.4-1.2-0.5-2.5-0.4c-1 0.1-1.9 0.4-2.8 0.9-0.8 0.5-1.5 1.2-2 2-0.5 0.8-0.8 1.8-0.9 2.7 0 1 0.1 2 0.5 2.9l4.3 9.7z"/>
			<path class="s56" d="m450 189.5l4.3 1.6 9-5.9v7.3l7.4 5.9c1.6 1.2 2.9 2.8 3.8 4.6 1 1.8 1.5 3.8 1.7 5.8l0.3 5.9c10.9 9 25.7 11.9 38.8 2.7 2.1-1.4 4-3.1 5.6-5.1l4.4 1.5c0 0-9 38-24.1 44.9-15 6.8-25.4 0-25.4 0-15.8-53.6-11.2-63.6-50.2-48.2l-1.8-10.9z"/>
			<path class="s51" d="m481.2 172.4l-28.4-26.5-2.5 3.3 21.9 40.9z"/>
			<path class="s57" d="m470.9 166.4l-11.2-7.9 8.6 15.5-1.6-6z"/>
		</g>
	</g>
	<path fill-rule="evenodd" class="s63" d="m532 231c-6.6 0-12-5.4-12-12 0-6.6 5.4-12 12-12 6.6 0 12 5.4 12 12 0 6.6-5.4 12-12 12z"/>
	<path class="s64" d="m405.2 318.1l1.9-0.4-2.6-3.7c1.2-0.5 2-1.3 2-2.8 0-1.8-1.3-2.9-3.5-2.9h-3v9.7h1.9v-3.7h0.8zm-0.6-6.8c0 1-0.7 1.6-1.8 1.6h-1v-3.1h1.1c1.1 0 1.7 0.6 1.7 1.5zm9.3 3.3c0-2.2-1.3-3.5-3.2-3.5-1.8 0-3.2 1.3-3.2 3.5 0 2.2 1.4 3.5 3.2 3.5 1.8 0 3.2-1.3 3.2-3.5zm-1.6 0c0 1.3-0.6 2.2-1.6 2.2-1 0-1.5-0.9-1.5-2.2 0-1.2 0.5-2.1 1.5-2.1 1 0 1.6 0.9 1.6 2.1zm4.7 3.4v-10.1l-1.7 0.3v9.8zm7.5-0.7l-0.2-1.3c-0.8 0.5-1.5 0.8-2.3 0.8-1.1 0-1.8-0.5-1.9-1.8h4.4c0-0.1 0-0.3 0-0.5 0-1.9-0.9-3.4-3-3.4-1.7 0-3 1.3-3 3.5 0 2.5 1.4 3.5 3.3 3.5 1.1 0 1.9-0.3 2.7-0.8zm-3-5c0.8 0 1.2 0.6 1.3 1.6h-2.7c0.2-1.1 0.7-1.6 1.4-1.6zm9.4 3.7c0-1.3-0.7-1.7-2.5-2.2-1-0.2-1.2-0.5-1.2-0.8 0-0.4 0.3-0.6 0.9-0.6 0.7 0 1.5 0.2 2.1 0.6l0.3-1.4c-0.7-0.3-1.5-0.5-2.4-0.5-1.6 0-2.5 0.8-2.5 2 0 1.2 0.7 1.7 2.3 2.1 1.1 0.3 1.4 0.5 1.4 1 0 0.4-0.4 0.7-1.1 0.7-0.9 0-1.8-0.3-2.5-0.8l-0.2 1.4c0.6 0.3 1.6 0.6 2.6 0.6 1.8 0 2.8-0.8 2.8-2.1z"/>
	<path fill-rule="evenodd" class="s65" d="m411 330h115c6.6 0 12 5.4 12 12 0 6.6-5.4 12-12 12h-115c-6.6 0-12-5.4-12-12 0-6.6 5.4-12 12-12z"/>
	<path fill-rule="evenodd" class="s59" d="m411 350c-4.4 0-8-3.6-8-8 0-4.4 3.6-8 8-8 4.4 0 8 3.6 8 8 0 4.4-3.6 8-8 8z"/>
	<path class="s5" d="m434.6 347.1l1.8-0.3-3.5-9.5h-2l-3.6 9.7h1.9l0.8-2.5h3.7zm-2.8-7.7l1.3 3.7h-2.6zm11.5 7.7v-4.9c0-1.2-0.6-2-1.9-2-0.9 0-1.6 0.5-2.3 1.1l-0.1-1h-1.4v6.8h1.6v-4.6c0.5-0.5 1.1-0.8 1.6-0.8 0.6 0 0.8 0.4 0.8 1v4.4zm3.7-8.9c0-0.5-0.5-0.9-1-0.9-0.6 0-1.1 0.4-1.1 0.9 0 0.6 0.5 1 1.1 1 0.5 0 1-0.4 1-1zm-0.2 8.9v-6.8h-1.7v6.8zm11.5 0v-4.9c0-1.2-0.6-2-1.9-2-0.9 0-1.7 0.5-2.3 1.1-0.2-0.7-0.7-1.1-1.7-1.1-0.9 0-1.6 0.5-2.2 1.1l-0.2-1h-1.4v6.8h1.7v-4.6c0.5-0.5 0.9-0.8 1.5-0.8 0.6 0 0.8 0.4 0.8 1v4.4h1.7v-4.6c0.5-0.5 1-0.8 1.5-0.8 0.6 0 0.8 0.4 0.8 1v4.4zm7.1 0v-4.6c0-1.7-0.9-2.3-2.7-2.3-1 0-1.9 0.2-2.6 0.5l0.2 1.4c0.7-0.3 1.4-0.6 2.2-0.6 0.8 0 1.2 0.3 1.2 1v0.2c-2.7 0.3-4.1 1-4.1 2.7 0 1.1 0.8 1.8 1.9 1.8 1 0 1.7-0.4 2.3-1l0.1 0.9zm-1.7-1.9c-0.4 0.5-1 0.8-1.5 0.8-0.6 0-0.9-0.3-0.9-0.8 0-0.7 0.5-1.2 2.4-1.5zm5.1 1.9v-10.1l-1.6 0.2v9.9zm11.9-0.7l-0.2-1.6c-0.8 0.5-1.6 0.8-2.5 0.8-1.7 0-2.8-1.3-2.8-3.4 0-2 1.1-3.4 2.8-3.4 0.9 0 1.7 0.4 2.3 0.9l0.3-1.8c-0.7-0.4-1.6-0.7-2.7-0.7-2.8 0-4.6 2.1-4.6 5.1 0 3 1.8 4.9 4.6 4.9 1.1 0 2.1-0.3 2.8-0.8zm5.5-4.6l-0.2-1.6c-1.1 0-1.8 0.7-2.2 1.5l-0.2-1.4h-1.4v6.8h1.6v-3.9c0.5-0.7 1.4-1.3 2.4-1.4zm6.9 1.9c0-2.2-1.3-3.5-3.2-3.5-1.8 0-3.1 1.3-3.1 3.5 0 2.2 1.3 3.5 3.1 3.5 1.9 0 3.2-1.3 3.2-3.5zm-1.6 0c0 1.3-0.5 2.1-1.6 2.1-0.9 0-1.5-0.9-1.5-2.1 0-1.3 0.5-2.2 1.5-2.2 1 0 1.6 1 1.6 2.2zm8 1.4c0-1.3-0.7-1.8-2.4-2.2-1-0.3-1.3-0.5-1.3-0.8 0-0.4 0.3-0.7 1-0.7 0.6 0 1.4 0.3 2.1 0.7l0.2-1.4c-0.6-0.3-1.5-0.5-2.3-0.5-1.6 0-2.5 0.8-2.5 2 0 1.2 0.7 1.7 2.3 2.1 1.1 0.3 1.4 0.5 1.4 0.9 0 0.5-0.4 0.8-1.2 0.8-0.8 0-1.7-0.4-2.4-0.8l-0.2 1.4c0.6 0.3 1.6 0.6 2.6 0.6 1.8 0 2.7-0.8 2.7-2.1zm6.3 0c0-1.3-0.7-1.8-2.4-2.2-1-0.3-1.3-0.5-1.3-0.8 0-0.4 0.3-0.7 0.9-0.7 0.7 0 1.5 0.3 2.2 0.7l0.2-1.4c-0.7-0.3-1.5-0.5-2.4-0.5-1.5 0-2.4 0.8-2.4 2 0 1.2 0.6 1.7 2.3 2.1 1.1 0.3 1.3 0.5 1.3 0.9 0 0.5-0.3 0.8-1.1 0.8-0.8 0-1.7-0.4-2.4-0.8l-0.3 1.4c0.7 0.3 1.7 0.6 2.7 0.6 1.8 0 2.7-0.8 2.7-2.1zm3.3-6.9c0-0.5-0.5-1-1-1-0.6 0-1 0.5-1 1 0 0.6 0.4 1 1 1 0.5 0 1-0.4 1-1zm-0.2 8.9v-6.8h-1.7v6.8zm7.6 0v-4.9c0-1.3-0.7-2-2-2-0.9 0-1.6 0.5-2.2 1.1l-0.2-1h-1.4v6.8h1.7v-4.6c0.5-0.5 1-0.8 1.5-0.8 0.6 0 0.9 0.4 0.9 1v4.4zm7.7 0.3c0-1.1-0.9-1.5-2.2-1.7l-0.9-0.1c-1.1-0.1-1.3-0.2-1.3-0.4q0-0.2 0.3-0.4 0.3 0.1 0.6 0.1c1.4 0 2.7-0.9 2.7-2.4q0-0.4-0.2-0.9h1.2l-0.2-1.4-1.7 0.6q-0.7-0.6-1.9-0.6c-1.5 0-2.7 0.9-2.7 2.4 0 0.9 0.5 1.6 1.3 1.9q-0.9 0.6-0.9 1.1 0 0.4 0.4 0.7c-0.8 0.5-1.3 1-1.3 1.6 0 1.2 1.4 1.7 3.3 1.7 1.9 0 3.5-0.8 3.5-2.2zm-2.4-4.9c0 0.8-0.4 1.3-1.2 1.3-0.7 0-1.1-0.5-1.1-1.2 0-0.8 0.4-1.3 1.1-1.3 0.7 0 1.2 0.5 1.2 1.2zm-1 6.1c-1.3 0-1.9-0.3-1.9-0.8 0-0.4 0.2-0.7 0.7-1.1 0.3 0.1 0.6 0.2 1 0.2l0.9 0.1c0.9 0.1 1.2 0.4 1.2 0.7 0 0.5-0.7 0.9-1.9 0.9z"/>
	<path fill-rule="evenodd" class="s66" d="m412 362h96c6.6 0 12 5.4 12 12 0 6.6-5.4 12-12 12h-96c-6.6 0-12-5.4-12-12 0-6.6 5.4-12 12-12z"/>
	<path fill-rule="evenodd" class="s58" d="m412 382c-4.4 0-8-3.6-8-8 0-4.4 3.6-8 8-8 4.4 0 8 3.6 8 8 0 4.4-3.6 8-8 8z"/>
	<path class="s5" d="m434.9 376.2c0-1.5-0.7-2.1-2.7-3-1.4-0.5-1.7-0.8-1.7-1.4 0-0.6 0.4-1.1 1.4-1.1 0.7 0 1.5 0.3 2.2 0.8l0.3-1.7c-0.7-0.3-1.4-0.6-2.5-0.6-1.8 0-3.1 1-3.1 2.7 0 1.5 0.7 2.1 2.6 2.9 1.4 0.6 1.7 0.9 1.7 1.6 0 0.8-0.6 1.2-1.4 1.2-1 0-2-0.4-2.8-0.9l-0.3 1.7c0.9 0.4 1.9 0.7 3.1 0.7 1.8 0 3.2-1 3.2-2.9zm5.1 2.8l-0.3-1.4q-0.2 0-0.5 0c-0.6 0-0.9-0.3-0.9-0.8v-3.2h1.6l-0.2-1.4h-1.4v-2.4l-1.6 0.3v2.1h-1v1.4h1v3.5c0 1.5 0.9 2 2.2 2 0.5 0 0.8 0 1.1-0.1zm1.2-6.8v4.9c0 1.3 0.6 2 1.9 2 0.9 0 1.6-0.5 2.3-1.1l0.1 1h1.5v-6.8h-1.7v4.6c-0.5 0.5-1 0.8-1.6 0.8-0.6 0-0.8-0.3-0.8-0.9v-4.5zm7.1 3.6c0 2.3 1.1 3.3 2.6 3.3 0.9 0 1.6-0.5 2-1l0.2 0.9h1.4v-10.1l-1.7 0.3v3.2c-0.4-0.1-0.9-0.2-1.5-0.2-1.6 0-3 1.1-3 3.6zm1.7-0.1c0-1.5 0.6-2.2 1.5-2.2 0.6 0 0.9 0.1 1.3 0.3v2.9c-0.4 0.6-0.9 0.9-1.5 0.9-0.8 0-1.3-0.6-1.3-1.9zm11.9 2.6l-0.2-1.3c-0.8 0.5-1.5 0.8-2.3 0.8-1.1 0-1.8-0.5-1.9-1.9h4.4c0 0 0-0.2 0-0.4 0-1.9-0.9-3.4-3-3.4-1.7 0-3 1.3-3 3.5 0 2.5 1.4 3.5 3.3 3.5 1.1 0 1.9-0.3 2.7-0.8zm-3-5c0.8 0 1.2 0.5 1.4 1.6h-2.8c0.2-1.1 0.7-1.6 1.4-1.6zm10.1 5.7v-4.9c0-1.2-0.7-2-1.9-2-0.9 0-1.6 0.5-2.3 1.1l-0.1-1h-1.5v6.8h1.7v-4.6c0.5-0.5 1-0.8 1.6-0.8 0.6 0 0.8 0.4 0.8 1v4.4zm5.4 0l-0.3-1.4q-0.2 0-0.5 0c-0.6 0-0.9-0.3-0.9-0.8v-3.2h1.6l-0.2-1.4h-1.4v-2.4l-1.6 0.3v2.1h-1v1.4h1v3.5c0 1.5 0.9 2 2.2 2 0.5 0 0.8 0 1.1-0.1zm9.7 0l-0.2-1.7h-3.3v-8h-1.8v9.7zm6.6-0.7l-0.2-1.3c-0.7 0.5-1.4 0.8-2.3 0.8-1 0-1.8-0.5-1.8-1.9h4.3c0 0 0-0.2 0-0.4 0-1.9-0.9-3.4-2.9-3.4-1.8 0-3.1 1.3-3.1 3.5 0 2.5 1.4 3.5 3.3 3.5 1.1 0 2-0.3 2.7-0.8zm-3-5c0.9 0 1.3 0.5 1.4 1.6h-2.7c0.1-1.1 0.7-1.6 1.3-1.6zm9.8 5.7v-4.6c0-1.7-0.9-2.3-2.7-2.3-1 0-1.9 0.2-2.6 0.5l0.2 1.4c0.7-0.3 1.4-0.6 2.2-0.6 0.8 0 1.2 0.3 1.2 1v0.2c-2.8 0.3-4.1 1-4.1 2.7 0 1.1 0.8 1.8 1.9 1.8 1 0 1.7-0.4 2.3-1l0.1 0.9zm-1.7-1.9c-0.4 0.5-1 0.8-1.5 0.8-0.6 0-0.9-0.3-0.9-0.8 0-0.7 0.5-1.2 2.4-1.5zm3-1.3c0 2.3 1.2 3.3 2.6 3.3 0.9 0 1.6-0.5 2.1-1l0.1 0.9h1.4v-10.1l-1.6 0.2v3.3c-0.4-0.1-1-0.2-1.6-0.2-1.6 0-3 1.1-3 3.6zm1.7-0.1c0-1.5 0.7-2.2 1.5-2.2 0.6 0 0.9 0.1 1.4 0.3v2.9c-0.5 0.6-1 0.9-1.6 0.9-0.7 0-1.3-0.6-1.3-1.9z"/>
	<path class="s67" d="m132.9 170.3l12.3-20.4c0.2-0.2 0.4-0.4 0.7-0.5 0.3 0 0.6 0 0.8 0.2l4.5 2.7c0.3 0.1 0.4 0.4 0.5 0.7 0.1 0.2 0 0.5-0.1 0.8l-12.3 20.4z"/>
	<path class="s68" d="m135.5 165.1l7.3 4.4q0.1 0.1 0.2 0.2 0.1 0.1 0.2 0.3 0 0.1 0 0.3 0 0.1-0.1 0.3c-29.1 58-62.3 108.4-81.6 130.1l-4.8-2.9c10.3-27.1 39.6-79.9 77.6-132.5q0.1-0.2 0.2-0.3 0.2-0.1 0.3-0.1 0.2 0 0.4 0 0.1 0.1 0.3 0.2z"/>
	<path class="s69" d="m105 210.1l16.1-30.6c0.8-1.7 2.2-3.1 3.9-4l3.4-1.8q0.3-0.2 0.6-0.1 0.3 0.1 0.5 0.3 0.3 0.2 0.3 0.6 0 0.3-0.1 0.6l-22.1 36.5c-0.3 0.3-0.6 0.5-1 0.6-0.4 0.1-0.8 0.1-1.1-0.1-0.4-0.2-0.6-0.5-0.7-0.9-0.1-0.4 0-0.8 0.2-1.1z"/>
	<path class="s70" d="m188.4 289.9h-153.2q-0.7 0-1.3 0.3-0.5 0.4-0.9 0.9-0.3 0.6-0.4 1.2 0 0.7 0.3 1.3l0.8 1.8 152.1 30.6z"/>
	<path class="s71" d="m197.2 295.4h7.4l29.8 126.1q0.1 0.4 0 0.9-0.1 0.4-0.4 0.8-0.3 0.4-0.7 0.6-0.4 0.2-0.8 0.2h-4.9z"/>
	<path class="s72" d="m174.4 295.4h22.8l30.4 128.6h-83.6z"/>
	<path class="s73" d="m190.8 341c1 56.9-5 83-5 83h-20.6l12.3-67.8z"/>
	<path class="s73" d="m191 319.5c-0.5 57.1-18.7 104.5-18.7 104.5h-22.8l32.3-128.6h15.4z"/>
	<path class="s73" d="m185.9 319.5c2.5 68.4 30.2 104.5 30.2 104.5h11.5l-30.4-128.6h-15.4z"/>
	<path class="s71" d="m181.8 295.4h-7.4l-33 128.6h8.1c0.5 0 1-0.2 1.5-0.6 0.4-0.3 0.7-0.8 0.9-1.3z"/>
	<path class="s74" d="m48.9 206.8l7.7-3.4q0.1 0 0.1-0.1 0.1 0 0.1-0.1 0-0.1-0.1-0.2 0 0-0.1 0l-7.7-3.4q-0.1 0-0.1 0 0-0.1 0-0.1l-3.5-7.7c0-0.2-0.2-0.2-0.3 0l-3.4 7.7h-0.1l-7.8 3.5q-0.1 0.1-0.1 0.2 0 0.1 0.1 0.2l7.8 3.4h0.1l3.4 7.8c0.1 0.2 0.3 0.2 0.3 0l3.5-7.7q0-0.1 0-0.1 0 0 0.1 0z"/>
	<path class="s18" d="m174.4 295.4h-140.7l-29.6 125.4q-0.2 0.6 0 1.1 0.1 0.6 0.5 1.1 0.3 0.5 0.8 0.7 0.6 0.3 1.2 0.3h134.8c0.7 0 1.4-0.3 2-0.7 0.6-0.5 1-1.1 1.2-1.8z"/>
	<path class="s71" d="m203.1 289.9h-27.2q-0.7 0-1.3 0.3-0.6 0.3-1 0.9-0.3 0.5-0.4 1.2 0 0.7 0.3 1.3l0.9 1.8h30.2l0.9-1.8q0.3-0.6 0.2-1.3 0-0.7-0.4-1.2-0.4-0.6-1-0.9-0.6-0.3-1.2-0.3z"/>
	<path class="s75" d="m181.8 295.4c4 7.3 11.4 7.3 15.4 0z"/>
	<path class="s76" d="m222.1 424c-21-45.1-26.9-77-28.5-111.9 0 0 5.7 57.5 28.5 111.9z"/>
	<path class="s77" d="m185.5 344.2c-0.6 48-6.4 79.8-6.4 79.8h-8.5c0 0 5.7-15.7 14.9-79.8z"/>
	<path class="s78" d="m89.9 338.4c0.7-2.4 2.1-4.5 4-6.1 2-1.5 4.4-2.4 6.9-2.5h26.3c4.9 0 7.9 3.9 6.8 8.6l-10.1 42.5c-0.7 2.4-2.1 4.5-4 6.1-2 1.5-4.3 2.4-6.8 2.5h-26.3c-4.9 0-7.9-3.8-6.8-8.6z"/>
	<path class="s18" d="m116.1 334.8q0.3 0 0.6 0.2 0.3 0.1 0.5 0.4 0.2 0.2 0.3 0.5 0 0.4 0 0.7l-11.1 46.8c-0.1 0.3-0.2 0.6-0.5 0.8-0.3 0.3-0.6 0.4-0.9 0.4q-0.4 0-0.7-0.2-0.3-0.1-0.6-0.4-0.2-0.3-0.3-0.6 0-0.4 0.1-0.7l11.1-46.7q0.1-0.5 0.5-0.9 0.4-0.3 1-0.3z"/>
	<path class="s79" d="m133.4 222.1l-18.4-7.4h43.5z"/>
	<path class="s80" d="m127.9 268.9l-12.9 21h43.5z"/>
	<path class="s81" d="m127.9 268.9l5.5-46.8-40.1 30.2z"/>
	<path class="s82" d="m127.9 268.9l5.5-46.8 36.4 26.9z"/>
	<path class="s39" d="m115 214.7l18.4 7.4-40.1 30.2z"/>
	<path class="s83" d="m93.3 252.3l34.6 16.6-12.9 21z"/>
	<path class="s84" d="m127.9 268.9l41.9-19.9-11.3 40.9z"/>
	<path class="s85" d="m158.5 289.9l11.3-40.9 10.4 3.3z"/>
	<path class="s86" d="m158.5 214.7l-25.1 7.4 36.4 26.9z"/>
	<path class="s87" d="m180.2 252.3l-10.4-3.3-11.3-34.3z"/>
	<path class="s88" d="m383 371.3c4-3.3 5-8.9 5-8.9l-7.4 5.7z"/>
	<path class="s88" d="m361.7 368.1c-0.4-10.9-2.4-21.6-6-31.9-1.8-4.8 0.8-4.3 8.7 2.3 7.9 6.6 8.6 12.7-2.7 29.6z"/>
	<path class="s89" d="m363.8 370.2l6.1 6.1 18.1-13.9q0.1-0.1 0.2-0.3 0-0.1 0-0.3 0-0.1-0.1-0.3-0.1-0.1-0.2-0.2l-7.1-3.9-9.8-7.1q-0.5-0.4-1.2-0.5-0.6-0.1-1.2 0.1-0.6 0.2-1.1 0.6-0.5 0.4-0.7 1c-2.5 6.8-4 12.2-3 18.7z"/>
	<path class="s89" d="m381 368.8c14.2-3.7 17.9 5.9 16.8 15-1.1 9.1-4.6 1.5-8-5.6z"/>
	<path class="s89" d="m353.3 383.6c-1.8-1.4-3-3.3-3.5-5.4-0.4-2.2-0.1-4.5 0.9-6.4l8.6-16.5 19.8 15.3-13.7 12.5c-1.7 1.5-3.8 2.4-6 2.4-2.2 0.1-4.4-0.6-6.1-1.9z"/>
	<path class="s88" d="m369.4 369.8h-0.1q-1.6 1.6-3.5 2.7-2.4 1.3-5 2.2l0.6-4.3 0.7-5.1-5.4 2.9-3.3 1.8v-3.3l6.2-13.5 15.6 5.3c2.4 1.3-2.4 7.5-5.8 11.3z"/>
	<path class="s18" d="m294.2 396l7.8-3.4q0.1-0.1 0.1-0.2 0-0.1-0.1-0.2l-7.8-3.4-3.5-7.8q-0.1 0-0.1-0.1 0 0-0.1 0 0 0-0.1 0 0 0.1 0 0.1l-3.5 7.7-7.8 3.5q-0.1 0.1-0.1 0.2 0 0.1 0.1 0.2l7.8 3.4 3.5 7.7q0.2 0.3 0.3 0z"/>
	<path class="s90" d="m352.4 372.9c-14.9-6.8-31.9-1.5-37.9 11.7-3.3 7.2-2.6 15.4 1.2 22.4l1.9 4.2c0.4 0.9 0.6 1.8 0.6 2.8 0.1 1-0.1 1.9-0.5 2.8-0.4 0.9-0.9 1.7-1.6 2.4-0.8 0.7-1.6 1.2-2.5 1.5q-0.3 0.1-0.6 0.3-0.2 0.2-0.3 0.5-0.2 0.3-0.1 0.7 0 0.4 0.2 0.8 0.2 0.3 0.6 0.5 0.3 0.2 0.7 0.2h29.5c10.7 0.2 20.5-5.2 24.8-14.6 6-13.2-1.1-29.4-16-36.2z"/>
	<path class="s89" d="m354.7 347.1l6.6 6.1 13.9 5.3c-7.6 0-19.9 5.8-26.3 9.1q-0.8 0.4-1.7 0.4-0.9 0-1.8-0.3-0.8-0.4-1.4-1.1-0.5-0.7-0.7-1.6c-2.9-13.2-0.8-17.1 8.1-18.8q0.9-0.2 1.7 0 0.9 0.3 1.6 0.9z"/>
	<path class="s88" d="m365.7 376.9c9.2-7 21.4-3.2 24.1 1.3-7.2-15.7-19.2-20-24.1-1.3z"/>
	<path class="s91" d="m312.7 397.9c0.4 3.2 1.4 6.3 3 9.1l1.9 4.2c0.4 0.9 0.6 1.8 0.6 2.8 0.1 1-0.1 1.9-0.5 2.8-0.4 0.9-0.9 1.7-1.6 2.4-0.8 0.7-1.6 1.2-2.5 1.5q-0.3 0.1-0.6 0.3-0.2 0.2-0.3 0.5-0.2 0.3-0.1 0.7 0 0.4 0.2 0.8 0.2 0.3 0.6 0.5 0.3 0.2 0.7 0.2h29.5c10.7 0.2 20.5-5.2 24.8-14.6 4.3-9.4 1.8-20.8-5.7-28.8-7 21-28.5 31.8-50 17.6z"/>
	<path class="s91" d="m324 392.4c1.2 0 2.2-1 2.2-2.2 0-1.2-1-2.2-2.2-2.2-1.2 0-2.2 1-2.2 2.2 0 1.2 1 2.2 2.2 2.2z"/>
	<path class="s91" d="m346.1 392.5c0.8 0 1.5-0.7 1.5-1.5 0-0.8-0.7-1.5-1.5-1.5-0.9 0-1.5 0.7-1.5 1.5 0 0.8 0.6 1.5 1.5 1.5z"/>
	<path class="s91" d="m341.5 383.3c1.6 0 3-1.4 3-3 0-1.7-1.4-3-3-3-1.7 0-3 1.3-3 3 0 1.6 1.3 3 3 3z"/>
	<path class="s92" d="m353.4 411.2c1.2 0 2.2-1 2.2-2.2 0-1.2-1-2.2-2.2-2.2-1.2 0-2.2 1-2.2 2.2 0 1.2 1 2.2 2.2 2.2z"/>
	<path class="s92" d="m335.3 412.3c0.6 0 1.1-0.5 1.1-1.1 0-0.6-0.5-1.1-1.1-1.1-0.6 0-1.1 0.5-1.1 1.1 0 0.6 0.5 1.1 1.1 1.1z"/>
	<g id="Clip-Path" clip-path="url(#cp6)">
		<g>
			<path fill-rule="evenodd" class="s50" d="m240 344c-7.7 0-14-6.3-14-14 0-7.7 6.3-14 14-14 7.7 0 14 6.3 14 14 0 7.7-6.3 14-14 14z"/>
			<path class="s51" d="m232.8 334.6c1.6 5.7 8.2 9.6 13.5 5.9 5.3-3.7 0-11.4 0-11.4 0 0 2.9-7.2-4.3-8.9-7.1-1.7-8.9 1.4-9.2 14.4z"/>
			<path class="s52" d="m243.4 330.4c-0.8 0-1.4-0.9-1.4-1.9 0-1.1 0.6-1.9 1.4-1.9 0.8 0 1.5 0.8 1.5 1.9 0 1-0.7 1.9-1.5 1.9z"/>
			<path class="s53" d="m244.1 329.9c-0.2 0-0.4-0.3-0.4-0.7 0.1-0.4 0.2-0.7 0.5-0.7 0.2 0.1 0.3 0.4 0.3 0.8-0.1 0.4-0.2 0.7-0.4 0.6z"/>
			<path class="s53" d="m245.1 324.9q-0.1-0.5-0.5-0.7-0.4-0.3-0.9-0.3-0.4 0-0.8 0.3-0.4 0.2-0.5 0.7z"/>
			<path class="s54" d="m245 333.1c-1.5 0.4-3 0-4.2-1.4q-0.3-0.2-0.7-0.3-0.4 0-0.7 0.2-0.3 0.3-0.4 0.7-0.1 0.3 0.2 0.7c1.9 3.1 4.9 3.6 6.8 1.8q0.2-0.1 0.2-0.4 0.1-0.2 0.1-0.5-0.1-0.2-0.2-0.4-0.1-0.2-0.3-0.3-0.2-0.1-0.4-0.1-0.2-0.1-0.4 0z"/>
			<path class="s52" d="m243.9 333.2q0.5 0 1.1-0.1h0.3v0.9c0 0-0.6 0.4-2.6 0.2v-0.5l-3.7-1.2q0-0.3 0.1-0.5 0.1-0.2 0.3-0.3 0 0 0-0.1 0 0 0.1 0 0.2-0.1 0.5-0.1c0 0 0.1 0 0.1 0h0.4c0 0 0 0 0 0.1 0 0 0.1 0 0.1 0l0.2 0.1q0.3 0.4 0.7 0.7l0.5 0.3q0.4 0.2 0.8 0.4 0.5 0.1 1.1 0.1z"/>
			<path class="s55" d="m239.4 331.6q0 0 0 0 0 0 0.1 0 0.2-0.2 0.5-0.1c0-0.1 0.1 0 0.1 0h0.4c0 0 0 0 0 0 0 0.1 0.1 0 0.1 0.1l0.2 0.1q0.1 0.2 0.4 0.4l-1.1 0.6-1.1-0.4q0-0.2 0.1-0.4 0.2-0.1 0.3-0.3z"/>
			<path class="s53" d="m234.3 322.8c1.4-2.9 3.7-3.5 7.7-2.6q1.2 0.3 2.3 0.9c0.3 1.2-1.6 1.6-4.9 0.5 1.1 2-1.2 5.6-5.1 1.2z"/>
			<path class="s53" d="m239 320.1l0.2-2.4q0-0.4-0.1-0.7-0.1-0.3-0.3-0.5-0.3-0.3-0.6-0.4-0.3-0.1-0.7-0.1-0.4 0-0.7 0.2-0.3 0.2-0.5 0.5-0.2 0.4-0.2 0.8-0.1 0.3 0.1 0.7l1.1 2.5z"/>
			<path class="s56" d="m229.4 333.2l1.1 0.4 2.3-1.5v1.9l1.9 1.5q0.7 0.5 1 1.2 0.4 0.8 0.5 1.5v1.6c2.9 2.3 6.7 3.1 10.1 0.7q0.8-0.6 1.4-1.4l1.2 0.4c0 0-2.3 9.9-6.2 11.7-3.9 1.8-6.7 0-6.7 0-4-13.9-2.8-16.5-13-12.5l-0.4-2.8z"/>
			<path class="s51" d="m237.5 328.8l-7.4-6.9-0.7 0.9 5.7 10.6z"/>
			<path class="s57" d="m234.8 327.3l-2.9-2.1 2.2 4-0.4-1.5z"/>
		</g>
	</g>
</svg>