<svg version="1.2" xmlns="http://www.w3.org/2000/svg" viewBox="0 0 634 410" width="634" height="410">
	<title>item2</title>
	<defs>
		<clipPath clipPathUnits="userSpaceOnUse" id="cp1">
			<path d="m-16-30h678v440h-678z"/>
		</clipPath>
		<clipPath clipPathUnits="userSpaceOnUse" id="cp2">
			<path d="m363 290c-7.74 0-14-6.26-14-14 0-7.74 6.26-14 14-14 7.74 0 14 6.26 14 14 0 7.74-6.26 14-14 14z"/>
		</clipPath>
		<linearGradient id="g1" x2="1" gradientUnits="userSpaceOnUse" gradientTransform="matrix(4.593,-1.742,2.81,7.408,353.183,278.601)">
			<stop offset="0" stop-color="#61c7c7"/>
			<stop offset="1" stop-color="#54b9c7"/>
		</linearGradient>
		<clipPath clipPathUnits="userSpaceOnUse" id="cp3">
			<path d="m327 290c-7.74 0-14-6.26-14-14 0-7.74 6.26-14 14-14 7.74 0 14 6.26 14 14 0 7.74-6.26 14-14 14z"/>
		</clipPath>
		<linearGradient id="g2" x2="1" gradientUnits="userSpaceOnUse" gradientTransform="matrix(1.24,14.526,-17.119,1.461,323.009,264.786)">
			<stop offset="0" stop-color="#ffc285"/>
			<stop offset="1" stop-color="#db8d6b"/>
		</linearGradient>
		<linearGradient id="g3" x2="1" gradientUnits="userSpaceOnUse" gradientTransform="matrix(26.183,-12.825,5.258,10.735,310.786,279.656)">
			<stop offset="0" stop-color="#d67569"/>
			<stop offset="1" stop-color="#e39e7f"/>
		</linearGradient>
		<clipPath clipPathUnits="userSpaceOnUse" id="cp4">
			<path d="m327 202c-7.74 0-14-6.26-14-14 0-7.74 6.26-14 14-14 7.74 0 14 6.26 14 14 0 7.74-6.26 14-14 14z"/>
		</clipPath>
		<clipPath clipPathUnits="userSpaceOnUse" id="cp5">
			<path d="m326 130c-7.74 0-14-6.26-14-14 0-7.74 6.26-14 14-14 7.74 0 14 6.26 14 14 0 7.74-6.26 14-14 14z"/>
		</clipPath>
		<clipPath clipPathUnits="userSpaceOnUse" id="cp6">
			<path d="m327 166c-7.74 0-14-6.26-14-14 0-7.74 6.26-14 14-14 7.74 0 14 6.26 14 14 0 7.74-6.26 14-14 14z"/>
		</clipPath>
	</defs>
	<style>
		.s0 { fill: #292841 } 
		.s1 { fill: #cfdeff } 
		.s2 { fill: #b8c5ff } 
		.s3 { fill: #5697b0 } 
		.s4 { fill: #ffffff } 
		.s5 { fill: #7ce4cc } 
		.s6 { fill: #aafae7 } 
		.s7 { opacity: .74;fill: url(#g1) } 
		.s8 { fill: #2c4661 } 
		.s9 { fill: #738eff } 
		.s10 { opacity: .41;fill: #284e7a } 
		.s11 { fill: #61c7c7 } 
		.s12 { fill: #21354a } 
		.s13 { fill: #d4ffdc } 
		.s14 { fill: #335a70 } 
		.s15 { fill: #b2a6ff } 
		.s16 { fill: #ff82a6 } 
		.s17 { fill: url(#g2) } 
		.s18 { fill: url(#g3) } 
		.s19 { fill: #6b3143 } 
		.s20 { fill: #ef6270 } 
		.s21 { fill: #bd3c53 } 
		.s22 { fill: #ffb685 } 
		.s23 { fill: #543247 } 
		.s24 { fill: #c74153 } 
		.s25 { fill: #a82c3c } 
		.s26 { fill: #5e2737 } 
		.s27 { fill: #ffb869 } 
		.s28 { fill: #4d7ae8 } 
		.s29 { fill: #dbe7ff } 
		.s30 { fill: #201e2f } 
		.s31 { fill: #590942 } 
		.s32 { fill: #b5cdff } 
		.s33 { fill: #ef6767 } 
		.s34 { fill: #3366e0 } 
		.s35 { fill: #f7e5bc } 
		.s36 { fill: #d6569b } 
		.s37 { fill: #e374b0 } 
		.s38 { fill: #1f3a70 } 
		.s39 { fill: #f06ea8 } 
		.s40 { fill: #e05fa3 } 
		.s41 { fill: #1b1926 } 
		.s42 { fill: #751b40 } 
		.s43 { fill: #9c2455 } 
		.s44 { fill: #b9bbbe } 
		.s45 { fill: #dcddde } 
		.s46 { fill: #628bf7 } 
		.s47 { fill: #33beb5 } 
		.s48 { fill: #33a2be } 
		.s49 { fill: #f7d197 } 
		.s50 { fill: #242236 } 
		.s51 { fill: #9e4b34 } 
		.s52 { fill: #7a2f28 } 
		.s53 { fill: #1e6470 } 
		.s54 { fill: #66251f } 
		.s55 { fill: #5e221d } 
		.s56 { fill: #000000 } 
		.s57 { fill: #d6dfff } 
		.s58 { fill: #cad5fc } 
		.s59 { fill: #de5d70 } 
		.s60 { fill: #ff9ccd } 
		.s61 { fill: #ffebf5 } 
		.s62 { fill: #ff70b7 } 
		.s63 { fill: #a8c3ff } 
		.s64 { fill: #c27059 } 
		.s65 { fill: none;stroke: #29c566;stroke-width: 2 } 
		.s66 { fill: none;stroke: #000000 } 
		.s67 { fill: #1c1b29 } 
		.s68 { fill: #43b581 } 
		.s69 { fill: #6adbc6 } 
		.s70 { fill: #6b392b } 
		.s71 { fill: #542518 } 
		.s72 { fill: #6e2b17 } 
		.s73 { fill: #783522 } 
		.s74 { fill: #e66ca5 } 
		.s75 { fill: #f085b7 } 
		.s76 { fill: #ffabbb } 
		.s77 { fill: #244ab0 } 
		.s78 { fill: #203d87 } 
		.s79 { fill: #1a3578 } 
		.s80 { fill: #30868c } 
		.s81 { fill: #2b7585 } 
		.s82 { fill: #3d1a10 } 
		.s83 { fill: #542113 } 
		.s84 { fill: #ffa3b5 } 
		.s85 { fill: #ff85ab } 
		.s86 { fill: #f2c591 } 
		.s87 { fill: #172e5c } 
		.s88 { fill: #d4bf9b } 
		.s89 { fill: #ccac89 } 
		.s90 { fill: #de5d98 } 
		.s91 { fill: #914343 } 
		.s92 { fill: #ad482c } 
		.s93 { fill: #eb9151 } 
		.s94 { fill: #133dbd } 
		.s95 { fill: #90423b } 
		.s96 { fill: #3ee8dd } 
		.s97 { fill: #1e397d } 
		.s98 { fill: #152d69 } 
		.s99 { fill: #37cfc5 } 
		.s100 { fill: #2b98b3 } 
		.s101 { fill: #319bb5 } 
		.s102 { fill: #b83d50 } 
		.s103 { fill: #ba4e5d } 
		.s104 { fill: #d65a6b } 
		.s105 { fill: #ad4452 } 
		.s106 { fill: #ad3b4b } 
		.s107 { fill: #872c39 } 
		.s108 { fill: #ff8fb1 } 
		.s109 { fill: #f57fb5 } 
		.s110 { fill: #1e1c2b } 
		.s111 { fill: #c45f3d } 
		.s112 { fill: #179de0 } 
		.s113 { fill: #c7d3fc } 
		.s114 { fill: #a25751 } 
		.s115 { fill: #1a3e9c } 
		.s116 { fill: #913945 } 
		.s117 { fill: #1a40a1 } 
		.s118 { fill: none;stroke: #ba4173;stroke-linecap: round;stroke-miterlimit:10;stroke-width: 2 } 
		.s119 { fill: #f071ab } 
		.s120 { fill: #ffa1bd } 
		.s121 { fill: #fad596 } 
		.s122 { fill: #f7d08d } 
		.s123 { fill: #f278b0 } 
		.s124 { fill: #f073ab } 
		.s125 { fill: #13121c } 
		.s126 { fill: #db704c } 
		.s127 { fill: #173275 } 
		.s128 { fill: #91423b } 
		.s129 { fill: #f7e9cb } 
		.s130 { fill: #db7b47 } 
		.s131 { fill: #c2612c } 
		.s132 { fill: #ffae82 } 
		.s133 { fill: #1a606e } 
		.s134 { fill: #216c7a } 
		.s135 { fill: #2a858c } 
		.s136 { fill: #f77c7c } 
		.s137 { fill: #ff9191 } 
	</style>
	<g id="Clip-Path" clip-path="url(#cp1)">
		<g>
			<path fill-rule="evenodd" class="s0" d="m244 33h381c4.4 0 8 3.6 8 8v312c0 4.4-3.6 8-8 8h-381c-4.4 0-8-3.6-8-8v-312c0-4.4 3.6-8 8-8z"/>
			<g id="Clip-Path" clip-path="url(#cp2)">
				<g>
					<path fill-rule="evenodd" class="s1" d="m363 290c-7.7 0-14-6.3-14-14 0-7.7 6.3-14 14-14 7.7 0 14 6.3 14 14 0 7.7-6.3 14-14 14z"/>
					<path class="s1" d="m378.6 294.8c-0.2-0.7-0.7-1.2-1.2-1.7-0.6-0.4-1.3-0.7-2-0.7l-1.4-0.2c-2.1-7.6-1.1-9.3-7.3-11l-5-0.2c0 0-5.2 0.1-7.1 2.6l2.7 8.7c0 0-1.1 5.7-0.6 8.6l6.6-0.9 2.8 9.3c10.7-1.6 15.7-6.6 15.7-6.6z"/>
					<path class="s2" d="m355.8 281.7c7.2 6.7 13.7 11.3 12.6 0.7z"/>
					<path class="s3" d="m359.4 282.5c6.2 2.9 7.8 4 7.4 0.5z"/>
					<path class="s4" d="m372.8 287.4c-0.8-3.2-1.3-4.6-4.5-5.7 0.8 2 1.2 6.1 1.2 6.1z"/>
					<path class="s5" d="m362.2 272l-0.3-1.8c0-0.6-0.3-1.1-0.7-1.5-0.4-0.5-0.9-0.7-1.5-0.8-0.6-0.1-1.3 0-1.8 0.3-0.6 0.3-1 0.8-1.2 1.4-0.8 2.2-2.1 5.7-2.9 8.6-1.4 4.7 4.8 5.8 10.9 5.3 6.1-0.4 6.7-3.1 5.9-7-0.6-2.4-1.3-4.9-1.7-6.4q-0.2-0.7-0.7-1.1-0.6-0.4-1.2-0.5c-0.5-0.1-1 0-1.5 0.3-0.4 0.3-0.7 0.7-0.9 1.1l-0.7 1.8z"/>
					<path class="s6" d="m369.7 278.4l-0.4-0.2-2.2 0.8-2.3 0.3-3.9-0.8c0 0-2.2-3.3-2 0.4 0.1 2.5 1.2 4 1.9 4.7q1.9 0.1 3.9-0.1 1.5-0.1 2.9-0.5c0.7-0.9 1.8-2.6 2.1-4.6z"/>
					<path class="s7" d="m358.8 278.6c-0.5-1.4-1.4-4.4-1-6.6 0.4-2.3 0.9-4.1 1.9-4.1-0.6-0.1-1.3 0-1.8 0.3-0.6 0.3-1 0.8-1.2 1.4-0.8 2.2-2.1 5.7-2.9 8.6-1.3 4.2 3.6 5.5 9 5.4-1.2-0.2-2.7-1.4-4-5z"/>
					<path class="s6" d="m362.8 283.6h-0.4-0.5-0.6-0.2-0.3c-0.7-0.6-1.8-2.1-1.9-4.7q0 0 0-0.1c1.3 3.4 2.7 4.6 3.9 4.8z"/>
					<path class="s8" d="m369.2 278v0.5c-2.4 1.6-2.8 2-8.9 0.1l-0.1-0.5 0.3 0.1c5.2 1.3 6.2 1.4 8.7-0.2z"/>
					<path class="s9" d="m359.8 280c0.8-0.2 1.3-1.1 1-2-0.2-0.9-1.1-1.5-1.9-1.3-0.8 0.3-1.2 1.2-1 2.1 0.3 0.9 1.1 1.4 1.9 1.2z"/>
					<path class="s9" d="m370.3 278.1c0.2-0.7 0-1.5-0.5-1.5-0.4-0.1-0.9 0.4-1.1 1.2-0.1 0.8 0.1 1.5 0.5 1.6 0.5 0.1 1-0.5 1.1-1.3z"/>
					<path class="s10" d="m364.3 276.6c-0.1-0.1 0-0.2 0.2-0.3q0.1 0 0.2 0 0.1 0 0.2 0.1l0.5 0.7c0.2 0.3 0 0.3-0.3 0.1-0.2-0.1-0.7-0.3-0.8-0.6z"/>
					<path class="s10" d="m366.9 277l0.1-0.4q0.1-0.1 0.1-0.2-0.1-0.2-0.1-0.2l-0.1-0.1q0 0 0 0-0.1-0.1-0.1-0.1 0 0.1 0 0.1 0 0 0 0-0.2 0.4-0.3 0.9c0 0.3 0.2 0.3 0.4 0z"/>
					<path class="s11" d="m364.3 272.1l-2.1-0.1 1.7-0.3 0.7-1.8c0.2-0.4 0.5-0.8 0.9-1.1 0.5-0.3 1-0.4 1.5-0.3l0.4 0.1c-1-0.2-1.4 1-1.6 2.4-0.1 0.8-0.1 1.2-1.5 1.1z"/>
					<path class="s12" d="m368.4 271.8c0-0.6-0.3-1-0.8-1-0.4 0-0.8 0.4-0.8 1 0 0.5 0.3 1 0.8 1 0.4 0 0.8-0.5 0.8-1z"/>
					<path class="s12" d="m360.7 271.5c0.1-0.6-0.2-1.1-0.7-1.1-0.4-0.1-0.8 0.3-0.9 0.9-0.1 0.5 0.3 1 0.7 1.1 0.5 0 0.9-0.4 0.9-0.9z"/>
					<path class="s4" d="m357.3 292.3c0.9 0 2.1-0.1 3.2-0.2q0-0.6 0.1-1.3 0.3-1 0.8-2c-0.9-0.1-1.9-0.1-2.8-0.2-0.2-4.2-2.4-6.5-3.6-5.3-0.6 0.5-1 1.3-1 2.1-0.1 0.6 0 1.7 0 1.9-0.1 0.8-0.7 1 0 2.5 0.3 0.7-0.3 2.4 3.3 2.5z"/>
					<path class="s13" d="m360.2 268c0.9 0.6 1.1 1.9 1.2 2.5 0.1 0.5 0.2 1.5 0.2 1.7 0.1 0.3 0.1 0.4 1 0.7 0.8 0.4 0.5 0.1 0.1-0.4l-0.5-0.5-0.3-1.8q-0.1-0.7-0.5-1.3-0.5-0.6-1.2-0.9z"/>
					<path class="s14" d="m367.9 271.1c0.4 0.1 0.4 0.9 0.1 0.6-0.3-0.3-0.5-0.7-0.1-0.6z"/>
					<path class="s14" d="m360.3 270.7c0.3 0.1 0.4 0.9 0.1 0.6-0.3-0.3-0.5-0.7-0.1-0.6z"/>
					<path class="s15" d="m360.3 279c0.3-0.1 0.3-0.7 0-1.2-0.2-0.5-0.7-0.8-1-0.6-0.3 0.2-0.3 0.7-0.1 1.2 0.3 0.5 0.8 0.8 1.1 0.6z"/>
					<path class="s15" d="m370.3 277.5c0-0.4-0.1-0.7-0.3-0.7-0.2 0-0.3 0.3-0.3 0.7 0 0.4 0.1 0.7 0.3 0.7 0.2 0 0.3-0.3 0.3-0.7z"/>
					<path class="s13" d="m368 269.2c0.5 0.4 0.7 1.1 0.1 0.6-0.5-0.5-0.7-1-0.1-0.6z"/>
				</g>
			</g>
			<g id="Clip-Path" clip-path="url(#cp3)">
				<g>
					<path fill-rule="evenodd" class="s16" d="m327 290c-7.7 0-14-6.3-14-14 0-7.7 6.3-14 14-14 7.7 0 14 6.3 14 14 0 7.7-6.3 14-14 14z"/>
					<path class="s17" d="m334.9 265.3v0.1l-0.2 0.3v0.1l-0.1 0.2c-2.1 4.9-6.1 8.5-8.7 11-2.8 2.6-5.9 4.7-9.2 6.4-3.4 1.6-4.8 0.2-4.5-2.5l0.4-1.4 1.6-6.8 0.1-0.3c1.1-4.5 2.8-7 8.3-8.4l8.4-2.1c2.9-0.7 5 0.3 3.9 3.4z"/>
					<path class="s18" d="m334 262c-2.6 0.4-7.6 3.6-12.6 8.3-4.9 4.7-8.7 9.9-9 12.5 0.4 1.4 1.9 1.8 4.3 0.6 3.3-1.7 6.4-3.8 9.2-6.4 2.6-2.5 6.6-6.1 8.7-11l0.1-0.2v-0.1l0.2-0.3v-0.1c0.7-1.8 0.2-2.9-0.9-3.3z"/>
					<path class="s19" d="m326.1 275.2c4.8-4.5 8-9 7.2-9.9-0.9-0.9-5.5 2-10.3 6.6-4.8 4.6-8 9-7.2 9.9 0.9 0.9 5.5-2 10.3-6.6z"/>
					<path class="s20" d="m325.1 283.1l-1.3 1q-0.4 0.3-0.7 0.8-0.3 0.4-0.3 1l-0.3 1.7-2.2 2c-0.5 0.5-0.7 1.1-0.8 1.8v1.5c0 0 12.3 6.6 18.9 5.4 6.6-1.2 2.6-12.5 2.6-12.5q-0.1-0.1-0.3-0.2-0.2-0.1-0.3-0.1l-2-0.2-0.8-2q-0.2-0.3-0.4-0.5-0.2-0.2-0.5-0.3l-5.8-1.2z"/>
					<path class="s21" d="m325.4 286.6c-1.8-0.4-1.6-0.3-1.1-1.1 0.3-0.5 0.7-1 1.2-1.2z"/>
					<path class="s22" d="m328.1 270.3c-0.2-0.2-2 1.1-3.9 2.9-2 1.8-3.4 3.4-3.2 3.7 2.3 3.6 3.9 7 4.4 9.7l9.6 1.8c-0.5-8.5-4.5-14.3-6.9-18.1z"/>
					<path class="s23" d="m331.7 277.9c0-0.3-0.3-0.5-0.5-0.5-0.2 0.1-0.3 0.4-0.2 0.7 0.1 0.3 0.3 0.5 0.5 0.4 0.2 0 0.3-0.3 0.2-0.6z"/>
					<path class="s23" d="m328.6 279.7c0.1-0.3 0-0.6-0.3-0.8-0.2-0.2-0.6-0.2-0.7 0-0.2 0.3-0.1 0.6 0.2 0.8 0.3 0.2 0.6 0.2 0.8 0z"/>
					<path class="s24" d="m330.6 282.6c0.8-0.4 1.5-0.8 1.8-0.7 0.4 0.1 0.2 0.7-0.1 1.5-0.4 0.7-0.3 0.4-1.2 0.1-0.9-0.2-1.2-0.6-0.5-0.9z"/>
					<path class="s25" d="m330.9 282.5l-0.6 0.4c0 0.3 0.4 0.5 0.8 0.6 0.5 0.1 1 0.2 1.2-0.1l0.1-0.4c-0.2-0.2-0.8-0.6-1.5-0.5z"/>
					<path class="s4" d="m332.1 281.9q-0.8 0.3-1.5 0.7c-0.4 0.2-0.4 0.4-0.2 0.5l1.8-0.8c0.1 0 0-0.2-0.1-0.4z"/>
					<path class="s19" d="m334.4 279.4c0.1 0 0-0.1 0-0.1q0-0.4-0.3-0.7-0.3-0.4-0.7-0.5 0.1 0.1 0.2 0.3 0 0.1 0 0.2 0 0.1-0.1 0.3 0 0.1-0.1 0.1-0.4 0.3-0.9 0.3-0.6 0.1-1.1 0.4-0.5 0.3-0.8 0.8c-1.4-0.1-1.8 0.8-2.8 1.2q-0.4 0.2-0.8 0.3c-1 0.2-1.1-0.2-1.1-0.7-1.1 0.8-0.4 2 0.4 2.3 0.5 0.2 1.1 0.1 1.8-0.4 1.6 0.4 2.2 0.2 3.2-1.4 1.6 0.4 2.6-0.2 2.7-1.7q0.2-0.1 0.3-0.3 0.1-0.2 0.1-0.4z"/>
					<path class="s26" d="m331.3 281.8c1.6 0.4 2.6-0.2 2.7-1.7q0.2-0.1 0.3-0.3 0.1-0.2 0.1-0.4c0 0 0-0.1 0-0.1q0-0.2-0.1-0.4 0 0.3-0.2 0.6-0.2 0.3-0.5 0.3c-0.5 1.1-1.5 1.3-2.6 1.1 0 0-1.2 1.7-2.9 1.3-1.2 1-2.5 0.9-2.8-0.1q0 0.5 0.2 0.9 0.3 0.4 0.8 0.6c0.5 0.2 1.1 0.1 1.8-0.4 1.6 0.4 2.2 0.2 3.2-1.4z"/>
				</g>
			</g>
			<g id="Clip-Path" clip-path="url(#cp4)">
				<g>
					<path fill-rule="evenodd" class="s27" d="m327 202c-7.7 0-14-6.3-14-14 0-7.7 6.3-14 14-14 7.7 0 14 6.3 14 14 0 7.7-6.3 14-14 14z"/>
					<path class="s28" d="m319.8 192.6c1.6 5.7 8.2 9.6 13.5 5.9 5.3-3.7 0-11.3 0-11.3 0 0 2.9-7.3-4.3-9-7.1-1.7-8.9 1.4-9.2 14.4z"/>
					<path class="s29" d="m330.4 188.4c-0.8 0-1.4-0.9-1.4-1.9 0-1.1 0.6-1.9 1.4-1.9 0.8 0 1.5 0.8 1.5 1.9 0 1-0.7 1.9-1.5 1.9z"/>
					<path class="s30" d="m331.1 187.9c-0.2 0-0.4-0.3-0.4-0.7 0.1-0.4 0.2-0.7 0.5-0.7 0.2 0.1 0.3 0.4 0.3 0.8-0.1 0.4-0.2 0.7-0.4 0.6z"/>
					<path class="s30" d="m332.1 182.9q-0.1-0.5-0.5-0.7-0.4-0.3-0.9-0.3-0.4 0-0.8 0.3-0.4 0.2-0.5 0.7z"/>
					<path class="s31" d="m332 191.1c-1.5 0.4-3 0-4.2-1.3q-0.3-0.3-0.7-0.4-0.4 0-0.7 0.2-0.3 0.3-0.4 0.7-0.1 0.3 0.2 0.7c1.9 3.1 4.9 3.6 6.8 1.8q0.2-0.1 0.2-0.4 0.1-0.2 0.1-0.5-0.1-0.2-0.2-0.4-0.1-0.2-0.3-0.3-0.2-0.1-0.4-0.1-0.2-0.1-0.4 0z"/>
					<path class="s29" d="m330.9 191.2q0.5 0 1.1-0.1h0.3v0.9c0 0-0.6 0.4-2.6 0.2v-0.5l-3.7-1.2q0-0.3 0.1-0.5 0.1-0.2 0.3-0.3 0 0 0-0.1 0 0 0.1 0 0.2-0.1 0.5-0.1c0 0 0.1 0 0.1 0h0.4c0 0 0 0 0 0.1 0 0 0.1 0 0.1 0l0.2 0.1q0.3 0.4 0.7 0.7l0.5 0.3q0.4 0.2 0.8 0.4 0.5 0.1 1.1 0.1z"/>
					<path class="s32" d="m326.4 189.6q0 0 0 0 0 0 0.1 0 0.2-0.2 0.5-0.1c0-0.1 0.1 0 0.1 0h0.4c0 0 0 0 0 0 0 0.1 0.1 0 0.1 0.1l0.2 0.1q0.1 0.2 0.4 0.4l-1.1 0.6-1.1-0.4q0-0.2 0.1-0.4 0.2-0.1 0.3-0.3z"/>
					<path class="s30" d="m321.3 180.8c1.4-2.9 3.7-3.5 7.7-2.6q1.2 0.3 2.3 0.9c0.3 1.2-1.6 1.6-4.9 0.5 1.1 2-1.2 5.6-5.1 1.2z"/>
					<path class="s30" d="m326 178.1l0.2-2.4q0-0.4-0.1-0.7-0.1-0.3-0.3-0.5-0.3-0.3-0.6-0.4-0.3-0.1-0.7-0.1-0.4 0-0.7 0.2-0.3 0.2-0.5 0.5-0.2 0.4-0.2 0.8-0.1 0.3 0.1 0.7l1.1 2.5z"/>
					<path class="s33" d="m316.4 191.2l1.1 0.4 2.3-1.5v1.9l1.9 1.5q0.7 0.5 1 1.2 0.4 0.8 0.5 1.5v1.6c2.9 2.3 6.7 3.1 10.1 0.7q0.8-0.6 1.4-1.4l1.2 0.4c0 0-2.3 9.9-6.2 11.7-3.9 1.8-6.7 0-6.7 0-4-13.9-2.8-16.5-13-12.5l-0.4-2.8z"/>
					<path class="s28" d="m324.5 186.8l-7.4-6.9-0.7 0.9 5.7 10.6z"/>
					<path class="s34" d="m321.8 185.3l-2.9-2.1 2.2 4-0.4-1.5z"/>
				</g>
			</g>
			<g id="Clip-Path" clip-path="url(#cp5)">
				<g>
					<path fill-rule="evenodd" class="s35" d="m326 130c-7.7 0-14-6.3-14-14 0-7.7 6.3-14 14-14 7.7 0 14 6.3 14 14 0 7.7-6.3 14-14 14z"/>
					<path class="s35" d="m342.1 124.8l-1.9 4.4q-0.2 0.5-0.6 0.9-0.5 0.4-1 0.6-0.5 0.2-1.1 0.2-0.6-0.1-1.1-0.3l-7.1-3.2 3.6-5.6 4.3 2.4 0.6-1.9c2.3 0.9 3.5 1.7 4.3 2.5z"/>
					<path class="s35" d="m333.8 122.6c2.9 0.5 3.2 1.1 3.9 2.6l-3-0.3z"/>
					<path class="s36" d="m320.4 98.8c-0.6 0.2-1.1 0.6-1.4 1.1-0.3 0.6-0.4 1.2-0.2 1.7l2.8 11.7 5.1-1.1-3.4-11.8q-0.1-0.4-0.4-0.8-0.3-0.3-0.7-0.6-0.4-0.2-0.9-0.2-0.5-0.1-0.9 0z"/>
					<path class="s37" d="m323.2 110.5h2l-2.1-7q-0.1-0.2-0.2-0.3-0.1-0.1-0.2-0.2-0.2-0.1-0.3-0.1-0.2 0-0.3 0.1-0.3 0.1-0.4 0.3-0.2 0.3-0.1 0.5z"/>
					<path class="s36" d="m332.2 98.8c0.5 0.2 1 0.5 1.3 1.1 0.3 0.5 0.4 1.1 0.3 1.7l-2.8 11.6-5.1-1 3.3-11.8q0.2-0.4 0.5-0.8 0.2-0.4 0.7-0.6 0.4-0.2 0.8-0.3 0.5 0 1 0.1z"/>
					<path class="s37" d="m330.2 110.5l-2-0.1 2.1-7q0-0.1 0.1-0.3 0.1-0.1 0.3-0.1 0.1-0.1 0.3-0.1 0.1 0 0.3 0 0.2 0.1 0.4 0.4 0.1 0.2 0.1 0.5z"/>
					<path class="s35" d="m335.9 127.5l-0.8 2.6-0.1 0.3-1 3.3h-19.1c-0.2-0.8 0-0.9 0.5-1.7 0.5-0.8 0.2-0.6 0.3-2.5 0-1.3 0.5-2.6 2.3-4.1 0.5-0.5 0.6-0.7 1.2-1.2l0.1-0.1 0.1-0.1 0.1-0.1 13.1-2.1 2.6 4.4z"/>
					<path class="s38" d="m335.1 130.1q-0.1 1.9-0.3 3.6h-14.1q0-0.9 0.1-2.2 0-0.1 0-0.3v-1c-0.1-2.6-0.8-4.3-2.8-4.8q0.5-0.6 1.2-1.2l0.1-0.1 0.2-0.2 13.1-2.1c1 0.4 1.7 0.7 2.5 1.5q0.1 1.5 0.1 2.9 0 2-0.1 3.9z"/>
					<path class="s39" d="m333.8 116.3l-15.1 0.7c-2 0-3.5 1.7-3.5 3.7 0.1 2 1.8 3.6 3.8 3.5l15.1-0.6c2-0.1 3.6-1.8 3.5-3.8-0.1-2-1.8-3.5-3.8-3.5z"/>
					<path class="s39" d="m333.1 109.6l-14.8 0.7c-2.1 0-3.7 1.8-3.6 3.9v0.2c0.1 2.1 1.9 3.7 4 3.6l14.7-0.6c2.1-0.1 3.7-1.9 3.6-4v-0.1c-0.1-2.1-1.8-3.8-3.9-3.7z"/>
					<path class="s40" d="m334.1 123.5c1.9-0.1 3.5-1.7 3.5-3.6 0-0.7-0.2-1.4-0.6-2-0.3-0.6-0.9-1.1-1.5-1.4q0.7-0.5 1.1-1.4 0.4-0.8 0.4-1.8v-0.1q-0.1-0.8-0.4-1.4-0.3-0.7-0.9-1.2-0.5-0.6-1.2-0.8-0.8-0.3-1.5-0.2l-13.2 0.5c-1.1 2.3-1 4.7-0.1 6.5q0.2 0.4 0.2 0.8 0 0.4-0.1 0.9c-1.3 3.3 0.4 5.8 0.4 5.8z"/>
					<path class="s41" d="m323.5 116.7c0.3-0.3 0.3-0.8 0-1.3-0.3-0.5-0.8-0.7-1.1-0.5-0.4 0.2-0.4 0.8-0.1 1.3 0.3 0.5 0.8 0.7 1.2 0.5z"/>
					<path class="s41" d="m330.1 115.6c0.1-0.5-0.1-1-0.4-1.1-0.4-0.1-0.8 0.2-0.9 0.8-0.2 0.5 0 1 0.4 1.1 0.3 0.1 0.7-0.3 0.9-0.8z"/>
					<path class="s42" d="m324.9 118.3c1 1.6 2.3 1.9 3.2-0.1q0 0 0 0 0-0.1 0-0.1 0 0 0 0-0.1 0-0.1 0h-3q0 0 0 0.1 0 0-0.1 0 0 0 0 0.1 0 0 0 0z"/>
					<path class="s43" d="m326.8 118.1h-1.8q0 0 0 0.1 0 0-0.1 0 0 0 0 0.1 0 0 0 0c0.8 1.4 1.9 1.8 2.8 0.6q-0.3-0.5-0.9-0.8z"/>
				</g>
			</g>
			<path class="s4" d="m317.4 68.1c0-0.9-0.7-1.5-1.6-1.5-0.9 0-1.6 0.6-1.6 1.5 0 0.9 0.7 1.5 1.6 1.5 0.9 0 1.6-0.6 1.6-1.5zm-0.3 14.7v-11.4h-2.6v11.2c0 0.9-0.5 1.2-1.2 1.2-0.3 0-0.6 0-0.9 0l0.4 2.1c0.2 0.1 0.6 0.1 1 0.1 2 0 3.3-0.9 3.3-3.2zm2.8-11.4v7.6c0 2 1 3.2 3 3.2 1.4 0 2.6-0.7 3.5-1.7l0.3 1.5h2.2v-10.6h-2.6v7.1c-0.8 0.8-1.6 1.4-2.4 1.4-1 0-1.4-0.6-1.4-1.6v-6.9zm19.6 7.5c0-2-1-2.8-3.8-3.5-1.6-0.4-2-0.7-2-1.3 0-0.6 0.5-1 1.5-1 1.1 0 2.3 0.4 3.4 1l0.3-2.2c-1-0.5-2.3-0.7-3.7-0.7-2.5 0-3.9 1.3-3.9 3.1 0 1.9 1.1 2.7 3.6 3.3 1.7 0.5 2.2 0.8 2.2 1.5 0 0.7-0.6 1.1-1.8 1.1-1.3 0-2.7-0.5-3.8-1.2l-0.4 2.2c1 0.5 2.6 1 4.1 1 2.8 0 4.3-1.2 4.3-3.3zm7.8 3.1l-0.3-2.2q-0.4 0.1-0.9 0.1c-1 0-1.4-0.5-1.4-1.4v-5h2.5l-0.3-2.1h-2.2v-3.8l-2.6 0.4v3.4h-1.5v2.1h1.5v5.5c0 2.4 1.4 3.2 3.5 3.2 0.8 0 1.3-0.1 1.7-0.2zm7.1-5.1v-2.5h-5.7v2.5zm10.4 4.3l-0.4-2.3c-1 0.8-1.9 1-2.8 1-1.5 0-2.7-1-2.7-3.2 0-2.1 1.1-3.3 2.6-3.3 1.1 0 1.9 0.4 2.8 1l0.3-2.3c-0.7-0.5-1.8-0.9-3.2-0.9-2.9 0-5.2 1.8-5.2 5.5 0 3.5 2.1 5.5 5 5.5 1.4 0 2.5-0.3 3.6-1zm11.1 0.8v-7.7c0-1.9-1-3.1-3-3.1-1.4 0-2.5 0.7-3.4 1.5v-6.6l-2.6 0.4v15.5h2.6v-7.2c0.8-0.8 1.6-1.3 2.4-1.3 1 0 1.4 0.6 1.4 1.5v7zm5.7-13.9c0-0.9-0.8-1.5-1.6-1.5-0.9 0-1.6 0.6-1.6 1.5 0 0.9 0.7 1.5 1.6 1.5 0.8 0 1.6-0.6 1.6-1.5zm-0.3 13.9v-10.6h-2.7v10.6zm5.6 0v-15.9l-2.6 0.4v15.5zm5.5 0v-15.9l-2.6 0.4v15.5zm5.8-13.9c0-0.9-0.7-1.5-1.6-1.5-0.9 0-1.6 0.6-1.6 1.5 0 0.9 0.7 1.5 1.6 1.5 0.9 0 1.6-0.6 1.6-1.5zm-0.3 13.9v-10.6h-2.6v10.6zm11.8 0v-7.7c0-1.9-1-3.1-3-3.1-1.5 0-2.6 0.7-3.6 1.7l-0.2-1.5h-2.2v10.6h2.6v-7.2c0.8-0.8 1.6-1.3 2.4-1.3 1 0 1.4 0.6 1.4 1.5v7z"/>
			<path class="s44" d="m313.8 237c0 3.6 1.8 5.2 4 5.2 1.5 0 2.5-0.8 3.3-1.7l0.2 1.5h2.3v-15.9l-2.7 0.4v5.2c-0.6-0.3-1.4-0.4-2.4-0.4-2.5 0-4.7 1.7-4.7 5.7zm2.7-0.2c0-2.3 1-3.4 2.4-3.4 0.9 0 1.4 0.1 2 0.4v4.6c-0.7 0.9-1.4 1.5-2.4 1.5-1.2 0-2-1-2-3.1zm18.8 5.2v-7.7c0-1.9-1-3.1-3-3.1-1.5 0-2.6 0.7-3.6 1.7l-0.2-1.5h-2.3v10.6h2.7v-7.2c0.8-0.8 1.6-1.3 2.4-1.3 1 0 1.4 0.6 1.4 1.5v7zm2.1-5c0 3.6 1.8 5.2 4 5.2 1.5 0 2.5-0.8 3.2-1.7l0.3 1.5h2.2v-15.9l-2.6 0.4v5.2c-0.6-0.3-1.5-0.4-2.5-0.4-2.4 0-4.6 1.7-4.6 5.7zm2.6-0.2c0-2.3 1-3.4 2.4-3.4 0.9 0 1.4 0.1 2.1 0.4v4.6c-0.7 0.9-1.5 1.5-2.4 1.5-1.2 0-2.1-1-2.1-3.1zm15.2 0.1v-2.5h-5.7v2.5zm11.4 5.1v-7.7c0-1.9-1-3.1-3-3.1-1.4 0-2.6 0.7-3.5 1.7l-0.3-1.5h-2.2v10.6h2.6v-7.2c0.8-0.8 1.6-1.3 2.4-1.3 1 0 1.4 0.6 1.4 1.5v7zm5.7-13.9c0-0.9-0.7-1.5-1.6-1.5-0.9 0-1.6 0.6-1.6 1.5 0 0.9 0.7 1.5 1.6 1.5 0.9 0 1.6-0.6 1.6-1.5zm-0.3 13.9v-10.6h-2.6v10.6zm12.3 0.4c0-1.6-1.4-2.3-3.6-2.6l-1.3-0.1c-1.7-0.3-2-0.3-2-0.7 0-0.2 0.2-0.4 0.4-0.6q0.4 0.1 0.9 0.1c2.3 0 4.2-1.4 4.2-3.6 0-0.5-0.1-1-0.3-1.4l2-0.2-0.4-2.1-2.6 0.9c-0.7-0.6-1.8-0.9-3-0.9-2.4 0-4.3 1.4-4.3 3.7 0 1.4 0.8 2.5 2.1 3.1q-1.4 0.8-1.4 1.7 0 0.6 0.6 1.2c-1.3 0.7-2 1.5-2 2.5 0 1.7 2.2 2.6 5.1 2.6 3.1 0 5.6-1.3 5.6-3.6zm-3.8-7.6c0 1.2-0.7 2.1-1.9 2.1-1.1 0-1.8-0.9-1.8-2 0-1.1 0.7-2.1 1.8-2.1 1.2 0 1.9 0.9 1.9 2zm-1.6 9.6c-2 0-3-0.5-3-1.3 0-0.6 0.4-1.1 1.1-1.6 0.6 0.1 0.9 0.1 1.6 0.2l1.4 0.2c1.4 0.2 1.8 0.5 1.8 1.1 0 0.8-1 1.4-2.9 1.4zm16.3-2.4v-7.7c0-1.9-1-3.1-3-3.1-1.4 0-2.5 0.7-3.4 1.5v-6.6l-2.6 0.4v15.5h2.6v-7.2c0.8-0.8 1.6-1.3 2.4-1.3 1 0 1.4 0.6 1.4 1.5v7zm8.3 0l-0.3-2.2q-0.4 0.1-0.8 0.1c-1 0-1.4-0.5-1.4-1.4v-5h2.5l-0.4-2.1h-2.1v-3.8l-2.6 0.4v3.4h-1.5v2.1h1.5v5.5c0 2.4 1.4 3.2 3.5 3.2 0.7 0 1.2-0.1 1.6-0.2z"/>
			<path class="s44" d="m322.2 322.9c0-2-1.1-2.8-3.8-3.5-1.6-0.4-2-0.7-2-1.3 0-0.6 0.5-1 1.5-1 1 0 2.3 0.4 3.4 1l0.3-2.2c-1.1-0.5-2.3-0.7-3.7-0.7-2.5 0-3.9 1.3-3.9 3.1 0 1.9 1 2.7 3.6 3.3 1.7 0.5 2.2 0.8 2.2 1.5 0 0.7-0.6 1.1-1.8 1.1-1.3 0-2.7-0.5-3.9-1.2l-0.3 2.2c1 0.5 2.6 1 4.1 1 2.8 0 4.3-1.2 4.3-3.3zm7.8 3.1l-0.3-2.2q-0.4 0.1-0.9 0.1c-1 0-1.4-0.5-1.4-1.4v-5h2.5l-0.3-2.1h-2.2v-3.8l-2.6 0.4v3.4h-1.5v2.1h1.5v5.5c0 2.4 1.4 3.2 3.5 3.2 0.8 0 1.3-0.1 1.7-0.2zm1.9-10.6v7.6c0 2 1 3.2 3.1 3.2 1.4 0 2.5-0.7 3.5-1.7l0.2 1.5h2.3v-10.6h-2.7v7.1c-0.7 0.8-1.6 1.4-2.4 1.4-0.9 0-1.3-0.6-1.3-1.6v-6.9zm11.2 5.6c0 3.6 1.8 5.2 4 5.2 1.5 0 2.5-0.8 3.2-1.7l0.3 1.5h2.2v-15.9l-2.6 0.4v5.2c-0.7-0.3-1.5-0.4-2.5-0.4-2.4 0-4.6 1.7-4.6 5.7zm2.6-0.2c0-2.3 1-3.4 2.4-3.4 0.9 0 1.4 0.1 2.1 0.4v4.6c-0.7 0.9-1.5 1.5-2.4 1.5-1.2 0-2.1-1-2.1-3.1zm10.9 9.2c1.9 0 3.2-0.8 4.1-3.3l4.1-11.3h-2.7l-2.4 7.5-2.4-7.7-2.8 0.4 3.9 10.4-0.1 0.3c-0.3 1.1-1.1 1.5-1.9 1.5q-0.7 0-1.2-0.1l0.4 2.2c0.2 0.1 0.5 0.1 1 0.1zm15-9.1v-2.5h-5.7v2.5zm8.7-3.1l-0.4-2.6c-1.6 0-2.7 1.1-3.4 2.3l-0.3-2.1h-2.3v10.6h2.7v-6.1c0.7-1.1 2.1-2 3.7-2.1zm10.9 2.9c0-3.5-2.1-5.5-5-5.5-2.9 0-5 2-5 5.5 0 3.5 2.1 5.5 4.9 5.5 2.9 0 5.1-2.1 5.1-5.5zm-2.6 0c0 2-0.8 3.4-2.5 3.4-1.5 0-2.4-1.5-2.4-3.4 0-2 0.9-3.4 2.4-3.4 1.6 0 2.5 1.4 2.5 3.4zm14.2 0c0-3.5-2.1-5.5-5-5.5-2.9 0-5 2-5 5.5 0 3.5 2.1 5.5 4.9 5.5 3 0 5.1-2.1 5.1-5.5zm-2.6 0c0 2-0.8 3.4-2.5 3.4-1.5 0-2.4-1.5-2.4-3.4 0-2 0.9-3.4 2.4-3.4 1.6 0 2.5 1.4 2.5 3.4zm20 5.3v-7.7c0-1.9-1-3.1-3-3.1-1.5 0-2.6 0.7-3.6 1.7-0.4-1.1-1.2-1.7-2.7-1.7-1.4 0-2.5 0.7-3.5 1.7l-0.2-1.5h-2.3v10.6h2.7v-7.2c0.7-0.8 1.5-1.3 2.3-1.3 1 0 1.3 0.6 1.3 1.5v7h2.7v-7.2c0.7-0.8 1.5-1.3 2.3-1.3 1 0 1.3 0.6 1.3 1.5v7z"/>
			<path fill-rule="evenodd" class="s44" d="m290 65v20c0 0.5-0.3 1-0.8 1.2-0.4 0.2-1 0-1.3-0.3l-5.4-5.9h-3.7c-0.7 0-1.3-0.6-1.3-1.2v-7.5c0-0.7 0.6-1.3 1.3-1.3h3.7l5.4-5.9c0.3-0.3 0.9-0.4 1.3-0.3 0.5 0.2 0.8 0.7 0.8 1.2zm11.3 10c-0.1 4.8-4 8.8-8.8 8.8v-2.5c3.4 0 6.3-2.9 6.3-6.3 0-3.4-2.9-6.2-6.3-6.2v-2.5c4.8 0 8.8 3.9 8.8 8.7zm-8.8-3.7c2.1 0 3.8 1.6 3.8 3.7 0 2.1-1.7 3.8-3.8 3.8v-2.5c0.7 0 1.3-0.6 1.3-1.3-0.1-0.7-0.6-1.2-1.3-1.2z"/>
			<path fill-rule="evenodd" class="s44" d="m290 225v20c0 0.5-0.3 1-0.8 1.2-0.4 0.2-1 0-1.3-0.3l-5.4-5.9h-3.7c-0.7 0-1.3-0.6-1.3-1.2v-7.5c0-0.7 0.6-1.3 1.3-1.3h3.7l5.4-5.9c0.3-0.3 0.9-0.4 1.3-0.3 0.5 0.2 0.8 0.7 0.8 1.2zm11.3 10c-0.1 4.8-4 8.8-8.8 8.8v-2.5c3.4 0 6.3-2.9 6.3-6.3 0-3.4-2.9-6.2-6.3-6.2v-2.5c4.8 0 8.8 3.9 8.8 8.7zm-8.8-3.7c2.1 0 3.8 1.6 3.8 3.7 0 2.1-1.7 3.8-3.8 3.8v-2.5c0.7 0 1.3-0.6 1.3-1.3-0.1-0.7-0.6-1.2-1.3-1.2z"/>
			<path fill-rule="evenodd" class="s44" d="m290 309v20c0 0.5-0.3 1-0.8 1.2-0.4 0.2-1 0-1.3-0.3l-5.4-5.9h-3.7c-0.7 0-1.3-0.6-1.3-1.2v-7.5c0-0.7 0.6-1.3 1.3-1.3h3.7l5.4-5.9c0.3-0.3 0.9-0.4 1.3-0.3 0.5 0.2 0.8 0.7 0.8 1.2zm11.3 10c-0.1 4.8-4 8.8-8.8 8.8v-2.5c3.4 0 6.3-2.9 6.3-6.3 0-3.4-2.9-6.2-6.3-6.2v-2.5c4.8 0 8.8 3.9 8.8 8.7zm-8.8-3.7c2.1 0 3.8 1.6 3.8 3.7 0 2.1-1.7 3.8-3.8 3.8v-2.5c0.7 0 1.3-0.6 1.3-1.3-0.1-0.7-0.6-1.2-1.3-1.2z"/>
			<path class="s45" d="m350.2 122h2.1v-4.1h0.9c2.6 0 4.2-1.2 4.2-3.5 0-2.3-1.5-3.4-4-3.4h-3.2zm5.2-7.6c0 1.2-0.8 1.8-2.2 1.8h-0.9v-3.6h1c1.3 0 2.1 0.6 2.1 1.8zm9.5 6.8l-0.2-1.5c-0.8 0.6-1.7 0.9-2.7 0.9-1.1 0-2-0.6-2-2.1h4.9c0-0.1 0-0.3 0-0.5 0-2.2-1-3.9-3.3-3.9-2 0-3.5 1.5-3.5 4 0 2.8 1.6 4 3.7 4 1.3 0 2.3-0.3 3.1-0.9zm-3.4-5.8c1 0 1.4 0.7 1.6 1.9h-3.1c0.1-1.3 0.8-1.9 1.5-1.9zm12.1 2.5c0-2.6-1.3-3.8-2.9-3.8-1.1 0-1.9 0.6-2.4 1.2l-0.2-1.1h-1.6v10.7l1.9-0.3v-2.9c0.5 0.2 1.1 0.3 1.8 0.3 1.8 0 3.4-1.2 3.4-4.1zm-2 0.1c0 1.7-0.7 2.5-1.7 2.5-0.7 0-1-0.1-1.5-0.3v-3.3c0.5-0.7 1.1-1.1 1.8-1.1 0.8 0 1.4 0.7 1.4 2.2zm10.6-0.1c0-2.6-1.3-3.8-2.9-3.8-1 0-1.8 0.6-2.3 1.2l-0.2-1.1h-1.7v10.7l2-0.3v-2.9c0.4 0.2 1 0.3 1.8 0.3 1.7 0 3.3-1.2 3.3-4.1zm-1.9 0.1c0 1.7-0.8 2.5-1.7 2.5-0.7 0-1.1-0.1-1.5-0.3v-3.3c0.5-0.7 1-1.1 1.7-1.1 0.9 0 1.5 0.7 1.5 2.2zm10 3.2l-0.3-1.5c-0.8 0.6-1.6 0.9-2.6 0.9-1.2 0-2-0.6-2.1-2.1h5c0-0.1 0-0.3 0-0.5 0-2.2-1.1-3.9-3.4-3.9-2 0-3.5 1.5-3.5 4 0 2.8 1.6 4 3.8 4 1.2 0 2.2-0.3 3.1-0.9zm-3.4-5.8c0.9 0 1.4 0.7 1.5 1.9h-3.1c0.2-1.3 0.8-1.9 1.6-1.9z"/>
			<path class="s44" d="m568.7 115h-1.7c0 1.2 0.3 2.3 0.9 3.3l1.2-1.2q-0.4-1-0.4-2.1z"/>
			<path class="s44" d="m571 115.1q0 0 0 0.1l6-6v-0.2c0-1.7-1.3-3-3-3-1.7 0-3 1.3-3 3v6q0 0 0 0.1z"/>
			<path class="s44" d="m573.7 120.1l-0.7 0.8-0.7 0.7q0.3 0.1 0.7 0.1v4.3h2v-4.3c3.3-0.5 6-3.3 6-6.7h-1.7c0 3-2.5 5.1-5.3 5.1q-0.1 0-0.3 0z"/>
			<path class="s44" d="m583 108.3l-1.3-1.3-16.7 16.7 1.3 1.3 4.2-4.2 1.2-1.2 1.7-1.7 3.6-3.6z"/>
			<path class="s44" d="m568.7 187h-1.7c0 1.2 0.3 2.3 0.9 3.3l1.2-1.2q-0.4-1-0.4-2.1z"/>
			<path class="s44" d="m571 187.1q0 0 0 0.1l6-6v-0.2c0-1.7-1.3-3-3-3-1.7 0-3 1.3-3 3v6q0 0 0 0.1z"/>
			<path class="s44" d="m573.7 192.1l-0.7 0.8-0.7 0.7q0.3 0.1 0.7 0.1v4.3h2v-4.3c3.3-0.5 6-3.3 6-6.7h-1.7c0 3-2.5 5.1-5.3 5.1q-0.1 0-0.3 0z"/>
			<path class="s44" d="m583 180.3l-1.3-1.3-16.7 16.7 1.3 1.3 4.2-4.2 1.2-1.2 1.7-1.7 3.6-3.6z"/>
			<path class="s45" d="m359 193.1v-5.3h-4.4l0.3 1.7h2.2v2.5c-0.5 0.3-1.1 0.4-1.9 0.4-2.2 0-3.3-1.6-3.3-3.9 0-2.4 1.1-3.9 3.2-3.9 1.3 0 2.3 0.4 3.1 1l0.3-2c-0.9-0.5-2-0.8-3.4-0.8-3.3 0-5.4 2.3-5.4 5.7 0 3.4 2 5.7 5.5 5.7 1.4 0 2.8-0.4 3.8-1.1zm6.7-5.1l-0.3-1.9c-1.2 0.1-2 0.8-2.5 1.7l-0.3-1.5h-1.6v7.7h1.9v-4.4c0.6-0.9 1.6-1.5 2.8-1.6zm7 6v-5.3c0-1.9-0.9-2.6-2.9-2.6-1.3 0-2.2 0.3-3.1 0.6l0.2 1.6c0.9-0.4 1.7-0.7 2.6-0.7 0.8 0 1.3 0.4 1.3 1.2v0.2c-3.1 0.3-4.6 1.1-4.6 3 0 1.4 0.8 2.2 2.2 2.2 1.1 0 1.9-0.6 2.5-1.2l0.2 1zm-1.9-2.1c-0.6 0.5-1.2 0.8-1.8 0.8-0.6 0-1-0.3-1-0.9 0-0.7 0.6-1.4 2.8-1.7zm10.7 2.5c0-1.2-1-1.7-2.5-1.9l-1-0.1c-1.2-0.2-1.5-0.2-1.5-0.5 0-0.1 0.1-0.3 0.3-0.4q0.3 0 0.7 0c1.6 0 3.1-1 3.1-2.6q0-0.6-0.3-1l1.5-0.1-0.3-1.6-1.9 0.7q-0.8-0.7-2.2-0.7c-1.7 0-3.1 1-3.1 2.7 0 1 0.6 1.8 1.5 2.3q-1 0.6-1 1.2 0 0.5 0.4 0.8c-0.9 0.6-1.4 1.1-1.4 1.9 0 1.2 1.6 1.9 3.7 1.9 2.2 0 4-0.9 4-2.6zm-2.7-5.5c0 0.8-0.5 1.4-1.4 1.4-0.8 0-1.3-0.6-1.3-1.4 0-0.8 0.5-1.5 1.3-1.5 0.8 0 1.4 0.6 1.4 1.5zm-1.2 6.9c-1.5 0-2.2-0.4-2.2-0.9 0-0.4 0.3-0.8 0.9-1.2 0.3 0.1 0.6 0.1 1.1 0.2l1.1 0.1c0.9 0.2 1.3 0.4 1.3 0.8 0 0.6-0.8 1-2.2 1zm12.2-1.4c0-1.2-1-1.7-2.6-1.9l-0.9-0.1c-1.2-0.2-1.5-0.2-1.5-0.5 0-0.1 0.1-0.3 0.3-0.4q0.3 0 0.7 0c1.6 0 3-1 3-2.6q0.1-0.6-0.2-1l1.4-0.1-0.2-1.6-1.9 0.7q-0.8-0.7-2.2-0.7c-1.7 0-3.1 1-3.1 2.7 0 1 0.6 1.8 1.5 2.3q-1 0.6-1 1.2 0 0.5 0.4 0.8c-0.9 0.6-1.4 1.1-1.4 1.9 0 1.2 1.6 1.9 3.7 1.9 2.2 0 4-0.9 4-2.6zm-2.7-5.5c0 0.8-0.5 1.4-1.4 1.4-0.8 0-1.3-0.6-1.3-1.4 0-0.8 0.5-1.5 1.3-1.5 0.8 0 1.4 0.6 1.4 1.5zm-1.2 6.9c-1.5 0-2.2-0.4-2.2-0.9 0-0.4 0.3-0.8 0.9-1.2 0.3 0.1 0.6 0.1 1.1 0.2l1.1 0.1c0.9 0.2 1.2 0.4 1.2 0.8 0 0.6-0.7 1-2.1 1zm7.3-1.7v-11.6l-1.9 0.3v11.3zm8.5-0.8l-0.3-1.5c-0.8 0.6-1.6 0.9-2.6 0.9-1.2 0-2-0.6-2.1-2.1h5c0-0.1 0-0.3 0-0.5 0-2.2-1.1-3.9-3.4-3.9-2 0-3.5 1.5-3.5 4 0 2.8 1.6 4 3.8 4 1.2 0 2.2-0.3 3.1-0.9zm-3.4-5.8c0.9 0 1.4 0.7 1.5 1.9h-3.1c0.2-1.3 0.8-1.9 1.6-1.9z"/>
			<path class="s45" d="m356.3 158l-0.3-1.9h-3.7v-9.1h-2.1v11zm8-3.9c0-2.5-1.6-4-3.7-4-2.1 0-3.6 1.5-3.6 4 0 2.6 1.5 4.1 3.6 4.1 2.1 0 3.7-1.6 3.7-4.1zm-1.9 0c0 1.5-0.6 2.5-1.8 2.5-1.1 0-1.7-1-1.7-2.5 0-1.4 0.6-2.4 1.7-2.4 1.2 0 1.8 1 1.8 2.4zm9.2 3.3l-0.2-1.6c-0.7 0.5-1.4 0.7-2 0.7-1.2 0-2-0.8-2-2.4 0-1.5 0.8-2.3 1.9-2.3 0.8 0 1.4 0.2 2 0.7l0.3-1.7c-0.6-0.4-1.4-0.7-2.4-0.7-2.1 0-3.8 1.4-3.8 4.1 0 2.5 1.5 3.9 3.7 3.9 1 0 1.8-0.2 2.5-0.7zm6.3 0.7l2.1-0.3-3.1-4 2.9-3.5h-2.2l-2.5 3.2v-7.1l-1.9 0.4v11.2h1.9v-3.8zm9.4-0.9l-0.2-1.5c-0.8 0.6-1.7 0.9-2.6 0.9-1.2 0-2-0.6-2.1-2.1h4.9c0-0.2 0-0.3 0-0.5 0-2.2-1-3.9-3.3-3.9-2 0-3.5 1.5-3.5 4 0 2.8 1.6 4 3.7 4 1.3 0 2.3-0.4 3.1-0.9zm-3.4-5.8c1 0 1.4 0.7 1.6 1.9h-3.1c0.1-1.3 0.8-1.9 1.5-1.9z"/>
			<g id="Clip-Path" clip-path="url(#cp6)">
				<g>
					<path fill-rule="evenodd" class="s46" d="m327 166c-7.7 0-14-6.3-14-14 0-7.7 6.3-14 14-14 7.7 0 14 6.3 14 14 0 7.7-6.3 14-14 14z"/>
					<path class="s47" d="m323.9 128.1l10.4 19.5c0.2 0.4 0.3 0.9 0.3 1.4-0.1 0.5-0.3 1-0.7 1.3l-0.1 0.2c-1.7 1.7-3.9 3.1-6.3 3.8-2.3 0.7-4.9 0.8-7.3 0.3q-0.5-0.1-0.9-0.6-0.3-0.4-0.3-1l-0.5-23.5c-0.1-8.8 0.4-10.8 5.4-1.4z"/>
					<path class="s48" d="m333.8 150.5c0.3-0.4 0.6-0.9 0.7-1.5 0-0.5 0-1.1-0.3-1.6l-10.3-19.3c-2.4-4.6-3.8-6.5-4.5-6.1 1.9 13.6 6 31.4 6 31.4l2.7 0.7c2.2-0.8 4.1-2 5.7-3.6z"/>
					<path class="s35" d="m331.3 141.9c-0.7-1.2-0.9-1.5-1.2-1-4.3-6.8-6.4-5.4-6.4 1.2 0 0-3-1.6-2.6 4.3-0.4-0.1-0.9-0.1-1.3 0-0.4 0.2-0.8 0.5-1 0.9l0.2 5.7q0 0.5 0.2 0.9 0.3 0.4 0.7 0.6c2.6 0.4 5.2 0.2 7.6-0.6 2.5-0.7 4.7-2.1 6.6-3.8q0.4-0.6 0.5-1.3 0-0.6-0.3-1.2z"/>
					<path class="s49" d="m334.3 147.6l-3-5.7c-0.7-1.2-0.9-1.5-1.2-1-4.3-6.8-6.4-5.4-6.4 1.2q-0.4-0.2-0.8-0.2c0.8 0.2 0.9 1 1.4 2.8 0.4 1.8 0.8 3.4 0.8 3.4l7.6 3.2q0.7-0.6 1.4-1.2 0.4-0.6 0.5-1.3 0-0.6-0.3-1.2z"/>
					<path class="s50" d="m334 147.8c-3.7-3.9-7-5.3-14.4 5.5q-0.1 0.2-0.1 0.4 0 0.2 0.1 0.4 0.1 0.2 0.2 0.3 0.2 0.1 0.4 0.2c2.4 0.5 4.9 0.4 7.3-0.3 2.4-0.7 4.5-2.1 6.3-3.8l0.1-0.2 0.4-0.4q0.2-0.5 0.2-1.1-0.1-0.6-0.5-1z"/>
					<path class="s51" d="m333.3 151.2l-0.9-4.9c-2.7-2.2-5.6-2.3-10.3 3.7l2 4.6c3.3-0.3 6.5-1.5 9.2-3.4z"/>
					<path class="s52" d="m333.6 151l-3.5-0.3-0.5 1.3-0.9-1.8c-0.8-2-0.8-1.9-1.6-0.3-0.7 1.7-3.9 1.1-3.9 1.1l-0.7-1.5c4.2-5.1 6.8-5.3 9.3-3.7z"/>
					<path class="s47" d="m317.7 157.7l0.6-1.7q0.2-0.5 0.6-0.8 0.4-0.3 0.9-0.5l2.5-0.4 9.7-0.2 5.3 2.7q0.3 0.1 0.5 0.4 0.2 0.3 0.3 0.7l0.2 1.2 2.5 1.7q0.2 0.1 0.4 0.4 0.1 0.2 0 0.5c-0.7 5.8-6.7 14.8-15 10.8-6.3-3-12-7.3-14.8-9.6l-1.1 1.5c-0.3-1.4 0-1.9 0.9-2.7q0.4-0.3 0.8-0.6 0.1-0.4 0.1-0.7c0.3-1.2 0-1.4 1.3-1.7z"/>
					<path class="s53" d="m322.3 154.8c-2.2 0.4-3.5 0.4 0 2.4 3.5 2.1 0-2.4 0-2.4z"/>
					<path class="s54" d="m328.5 147.9l0.4 1.7c0.1 0 0.1 0.1 0.2 0.1l0.7 0.1-0.6-1.4v-0.1l0.1-1-0.6 0.4z"/>
					<path class="s55" d="m325.1 149.6l1.3 0.2c-0.5 0.7-1.1 0.6-1.3-0.2z"/>
					<path class="s55" d="m329.8 149.1l1.3-0.4c-0.1 0.9-0.7 1-1.3 0.4z"/>
					<path class="s56" d="m325.9 149.8c0.2 0 0.4-0.3 0.4-0.6 0-0.4-0.2-0.7-0.4-0.7-0.2 0-0.3 0.3-0.3 0.7 0 0.3 0.1 0.6 0.3 0.6z"/>
					<path class="s56" d="m330.5 149c0.3 0 0.4-0.3 0.4-0.7 0-0.4-0.1-0.7-0.4-0.7-0.2 0-0.3 0.3-0.3 0.7 0 0.4 0.1 0.7 0.3 0.7z"/>
					<path class="s4" d="m331.8 145.8l1.1 0.9c0.3 1 0.5 2.5 0.9 3.8 0.4 1.2 0.9 3.1 0.6 4.1-0.2 1.1 0 1.2 0.7 2.5 0.6 1.4 1.9 2.8 1.5 4.5 0.7 1.1 0.4 1.7 0.2 2.7-0.1 1.1-1 3.7-2.8 3.7-0.6 0.9-1.5 1.5-2.5 1.9-1 0.3-2 0.4-3.1 0.1-2.9-0.7-5.8-2.7-5.5-5.4-1-0.7-0.8-2.8-0.6-3.9 0.1-0.9-0.1-1.9-0.4-2.8-0.4-1-0.4-2-0.1-4q-0.5-1.2-0.7-2.6l1.4-1.9 0.7 1.6q0.5 0.9 0.9 2 0.3-0.2 0.7-0.2 0.3-0.6 0.8-0.9 0.5-0.4 1.2-0.4l2.8 0.5 0.5-1.3c1.3-0.2 2-0.2 2.5 0.1 0.2-0.7 0.3-1.5 0.1-2.3-0.3-0.9-0.9-2.7-0.9-2.7z"/>
					<path class="s57" d="m329.8 153.1l-1.1-0.2c-0.5-0.1-0.5-0.2-1.9-1.4l2.8 0.5 0.5-1.3c1.3-0.2 2-0.2 2.5 0.1 0.2-0.7 0.3-1.5 0.1-2.3-0.3-0.9-0.9-2.7-0.9-2.7l1 0.9c0.4 1 0.6 2.5 1 3.8 0.4 1.2 0.9 3.1 0.6 4.1-0.2 1.1 0 1.2 0.7 2.5 0.6 1.4 1.9 2.8 1.5 4.5 0.7 1.1 0.4 1.7 0.2 2.7-0.1 1.1-1 3.7-2.8 3.7-0.6 0.9-1.5 1.5-2.5 1.9-1 0.3-2 0.4-3.1 0.1-2.9-0.7-5.8-2.7-5.5-5.4 0.9 2.5 2.8 2.1 2.8 2.1q1.8-0.4 3.6-0.4c0.7-1.2 1.5-2.3 2.2-2.8 1.4-2.8 0.3-5.7-0.4-7.3z"/>
					<path class="s58" d="m329.8 153.1c0.7 0.2 0.7-0.4 0.7-1.1q-0.1-0.7-0.4-1.3l-0.5 1.3-2.8-0.5c1.4 1.2 1.4 1.3 1.9 1.4z"/>
					<path class="s1" d="m324.4 148.8l2.6-0.8q-0.3-0.2-0.7-0.2-0.4-0.1-0.7 0-0.4 0.1-0.7 0.4-0.3 0.2-0.5 0.6z"/>
					<path class="s1" d="m329 147.7l2.7-0.5c-0.4-0.3-1-0.4-1.5-0.3-0.5 0.1-0.9 0.4-1.2 0.8z"/>
					<path class="s59" d="m331 154.2q0 0.2-0.2 0.4-0.2 0.2-0.5 0.3c-2.9 0.4-4.1-0.3-4.6-0.7q-0.1-0.1-0.1-0.2-0.1-0.1 0-0.2v-0.1c1.5 0.5 3.8 0.3 4.3 0.2 0.6-0.1 0.4-0.3 0.3-0.5q0.2 0 0.3 0 0.1 0.1 0.3 0.2 0.1 0.1 0.1 0.3 0.1 0.1 0.1 0.3z"/>
					<path class="s60" d="m327.4 141.5c0.5-0.2 0.6-1.1 0.2-2-0.4-0.8-1.2-1.3-1.6-1.1-0.5 0.2-0.6 1.1-0.2 2 0.4 0.8 1.2 1.3 1.6 1.1z"/>
					<path class="s61" d="m327.6 139.5c-0.4-0.9-1.2-1.4-1.7-1.2q-0.1 0.1-0.1 0.2-0.1 0-0.1 0.1c0.8 0 0.4 0.9 1.9 0.9z"/>
					<path class="s62" d="m325.6 139.2q0 0.6 0.2 1.2l0.2 0.2c0.1 0 0.5-0.1 0.6 0.1 0.2 0.3 0.3 0.7 0.9 0.8q0.2-0.1 0.3-0.4 0.1-0.2 0.1-0.5h-0.2c-1 0-1.6-1-2.1-1.4z"/>
					<path class="s49" d="m322.5 144.6c0.3 0 0.5-0.2 0.5-0.6 0-0.3-0.2-0.6-0.5-0.6-0.2 0-0.5 0.3-0.5 0.6 0 0.4 0.3 0.6 0.5 0.6z"/>
					<path class="s49" d="m320 148.8c0.2 0 0.5-0.3 0.5-0.7 0-0.3-0.3-0.6-0.5-0.6-0.3 0-0.5 0.3-0.5 0.6 0 0.4 0.2 0.7 0.5 0.7z"/>
					<path class="s63" d="m321.1 151.3q0.2 1.1 0.6 2.2c0-0.5 0.2-1.2 0.6-1.4 0.4-0.1 0.4-1.1 0.9-1.1l-0.7-1.6z"/>
					<path class="s4" d="m331.3 156.7c1.2 1.2 1.7 2 1.7 2.7q-0.7-0.3-1.3-0.8z"/>
					<path class="s54" d="m326.7 147.1q1.6-0.4 3.2-0.7c-1.7-0.2-2.7 0.1-3.2 0.7z"/>
					<path class="s64" d="m327.8 149.2q0 0.3 0.2 0.6 0.1 0.3 0.4 0.6c0.2 0.2 0-0.2-0.3-0.8-0.2-0.6-0.4-0.8-0.3-0.4z"/>
				</g>
			</g>
			<path fill-rule="evenodd" class="s65" d="m327 165c-7.2 0-13-5.8-13-13 0-7.2 5.8-13 13-13 7.2 0 13 5.8 13 13 0 7.2-5.8 13-13 13z"/>
			<path fill-rule="evenodd" class="s66" d="m327 163.5c-6.4 0-11.5-5.1-11.5-11.5 0-6.4 5.1-11.5 11.5-11.5 6.4 0 11.5 5.1 11.5 11.5 0 6.4-5.1 11.5-11.5 11.5z"/>
			<path fill-rule="evenodd" class="s67" d="m146 2h197c4.4 0 8 3.6 8 8v32c0 4.4-3.6 8-8 8h-197c-4.4 0-8-3.6-8-8v-32c0-4.4 3.6-8 8-8z"/>
			<path class="s68" d="m156.4 33c0-0.8-0.5-1.4-1.1-1.4h-3.4c-0.6 0-1.1 0.6-1.1 1.4v2.8c0 0.8 0.5 1.4 1.1 1.4h3.4c0.6 0 1.1-0.6 1.1-1.4v-2.8z"/>
			<path class="s68" d="m164.8 24.5c0-0.7-0.5-1.3-1.1-1.3h-3.4c-0.6 0-1.1 0.6-1.1 1.3v11.4c0 0.7 0.5 1.3 1.1 1.3h3.4c0.6 0 1.1-0.6 1.1-1.3z"/>
			<path class="s68" d="m173.2 16c0-0.6-0.5-1.2-1.1-1.2h-3.4c-0.6 0-1.1 0.6-1.1 1.2v20c0 0.6 0.5 1.2 1.1 1.2h3.4c0.6 0 1.1-0.6 1.1-1.2z"/>
			<path class="s68" d="m198.6 18.8h-3l-4 11.5-4.1-11.6-3 0.5 5.5 14.9h3zm9.7 9.8c0-3.4-2.1-5.5-5-5.5-2.9 0-5 2.1-5 5.6 0 3.4 2.1 5.5 5 5.5 2.9 0 5-2.1 5-5.6zm-2.6 0.1c0 1.9-0.8 3.3-2.4 3.3-1.6 0-2.4-1.4-2.4-3.4 0-1.9 0.8-3.3 2.4-3.3 1.6 0 2.4 1.4 2.4 3.4zm7.8-8.6c0-0.9-0.7-1.6-1.6-1.6-0.9 0-1.6 0.7-1.6 1.6 0 0.8 0.7 1.5 1.6 1.5 0.9 0 1.6-0.7 1.6-1.5zm-0.3 13.9v-10.7h-2.6v10.7zm10.8-0.8l-0.4-2.3c-1 0.7-1.9 1-2.8 1-1.5 0-2.7-1.1-2.7-3.3 0-2.1 1.1-3.2 2.6-3.2 1.1 0 1.9 0.4 2.8 1l0.3-2.4c-0.7-0.5-1.8-0.9-3.2-0.9-2.9 0-5.2 1.9-5.2 5.6 0 3.5 2.1 5.5 5 5.5 1.4 0 2.5-0.4 3.6-1zm10.8-0.3l-0.3-2.1c-1.2 0.8-2.3 1.3-3.7 1.3-1.6 0-2.7-0.9-2.9-2.9h6.9c0-0.2 0-0.4 0-0.7 0-3-1.4-5.4-4.6-5.4-2.8 0-4.9 2.1-4.9 5.6 0 3.8 2.2 5.5 5.2 5.5 1.7 0 3.1-0.5 4.3-1.3zm-4.7-8c1.3 0 1.9 1 2.1 2.6h-4.2c0.2-1.7 1-2.6 2.1-2.6zm22.9 8l-0.4-2.5c-1.2 0.8-2.5 1.3-3.9 1.3-2.7 0-4.4-2-4.4-5.3 0-3.3 1.6-5.4 4.4-5.4 1.4 0 2.6 0.6 3.6 1.4l0.4-2.8c-1.1-0.7-2.4-1.1-4.1-1.1-4.5 0-7.3 3.2-7.3 7.9 0 4.7 2.8 7.8 7.2 7.8 1.7 0 3.3-0.5 4.5-1.3zm11.5-4.3c0-3.4-2.1-5.5-5-5.5-2.9 0-5 2.1-5 5.6 0 3.4 2 5.5 4.9 5.5 2.9 0 5.1-2.1 5.1-5.6zm-2.6 0.1c0 1.9-0.8 3.3-2.5 3.3-1.5 0-2.4-1.4-2.4-3.4 0-1.9 0.9-3.3 2.4-3.3 1.6 0 2.5 1.4 2.5 3.4zm13.8 5.3v-7.7c0-2-1.1-3.2-3.1-3.2-1.4 0-2.5 0.8-3.5 1.7l-0.2-1.5h-2.3v10.7h2.6v-7.2c0.8-0.8 1.7-1.3 2.5-1.3 0.9 0 1.3 0.6 1.3 1.5v7zm11.7 0v-7.7c0-2-1-3.2-3-3.2-1.4 0-2.5 0.8-3.5 1.7l-0.3-1.5h-2.2v10.7h2.6v-7.2c0.8-0.8 1.6-1.3 2.4-1.3 1 0 1.4 0.6 1.4 1.5v7zm11.5-1.1l-0.3-2.1c-1.1 0.8-2.3 1.3-3.6 1.3-1.7 0-2.8-0.9-2.9-2.9h6.8c0-0.2 0.1-0.4 0.1-0.7 0-3-1.5-5.4-4.7-5.4-2.7 0-4.8 2.1-4.8 5.6 0 3.8 2.2 5.5 5.2 5.5 1.7 0 3.1-0.5 4.2-1.3zm-4.6-8c1.2 0 1.9 1 2.1 2.6h-4.3c0.2-1.7 1.1-2.6 2.2-2.6zm14.8 8.3l-0.4-2.3c-0.9 0.7-1.8 1-2.7 1-1.6 0-2.8-1.1-2.8-3.3 0-2.1 1.1-3.2 2.7-3.2 1 0 1.9 0.4 2.7 1l0.4-2.4c-0.8-0.5-1.9-0.9-3.3-0.9-2.8 0-5.2 1.9-5.2 5.6 0 3.5 2.1 5.5 5.1 5.5 1.4 0 2.5-0.4 3.5-1zm7.8 0.8l-0.3-2.3q-0.4 0.1-0.8 0.1c-1 0-1.4-0.4-1.4-1.3v-5h2.5l-0.4-2.2h-2.1v-3.7l-2.6 0.4v3.3h-1.5v2.2h1.5v5.5c0 2.4 1.4 3.1 3.5 3.1 0.7 0 1.2 0 1.6-0.1zm10.8-1.1l-0.3-2.1c-1.2 0.8-2.3 1.3-3.7 1.3-1.6 0-2.7-0.9-2.8-2.9h6.8c0-0.2 0-0.4 0-0.7 0-3-1.4-5.4-4.6-5.4-2.8 0-4.8 2.1-4.8 5.6 0 3.8 2.2 5.5 5.2 5.5 1.7 0 3.1-0.5 4.2-1.3zm-4.7-8c1.3 0 2 1 2.2 2.6h-4.3c0.2-1.7 1.1-2.6 2.1-2.6zm6.3 4.1c0 3.5 1.8 5.2 4 5.2 1.5 0 2.5-0.8 3.3-1.7l0.2 1.5h2.3v-15.9l-2.7 0.4v5.1c-0.6-0.2-1.4-0.4-2.4-0.4-2.5 0-4.7 1.8-4.7 5.8zm2.7-0.2c0-2.3 1-3.5 2.4-3.5 0.9 0 1.4 0.2 2 0.5v4.6c-0.7 0.9-1.4 1.4-2.4 1.4-1.1 0-2-0.9-2-3z"/>
			<path class="s69" d="m460.1 7.8l4.1-1.8c0.1 0 0.1-0.2 0-0.2l-4.1-1.8h-0.1l-1.8-4h-0.1l-1.9 4-4.1 1.8c-0.1 0-0.1 0.2 0 0.2l4.1 1.8 1.9 4.1c0 0.1 0.1 0.1 0.1 0l1.8-4.1z"/>
			<path class="s70" d="m280.4 389.4h-36.5v6.1h36.5z"/>
			<path class="s70" d="m321.9 389.4h-36.5v6.1h36.5z"/>
			<path class="s70" d="m278 341.1l7 69.3h-8.9l-7.1-69.3z"/>
			<path class="s71" d="m320.6 341.1l6.9 69.3h-8.8l-7.2-69.3z"/>
			<path class="s71" d="m286.5 341.1l-7.1 69.3h8.9l7.1-69.3z"/>
			<path class="s71" d="m243.9 341.1l-7 69.3h8.9l7.1-69.3z"/>
			<path class="s72" d="m321.1 336.8h-82.7c-2.3 0-4.1 1.9-4.1 4.1 0 2.3 1.8 4.1 4.1 4.1h82.7c2.3 0 4.1-1.8 4.1-4.1 0-2.2-1.8-4.1-4.1-4.1z"/>
			<path class="s73" d="m219.7 317.4h-14.9v93h14.9z"/>
			<path class="s74" d="m89.9 249.5l5.1-32.9c0.2-1.1 0.8-2.2 1.7-2.9 0.9-0.7 2-1.1 3.2-1.1q1 0.1 1.9 0.5 0.9 0.5 1.6 1.3 0.6 0.7 0.9 1.7 0.3 1 0.1 2l-5.1 34z"/>
			<path class="s75" d="m95.4 243.5l4.5-20.7q0.1-0.2 0.3-0.4 0.2-0.1 0.5-0.1 0.2 0.1 0.4 0.3 0.1 0.2 0.1 0.5l-2.8 20.1z"/>
			<path class="s76" d="m95 216.6q0.2-0.9 0.6-1.6 0.5-0.8 1.2-1.3c-0.9 5.3-2.3 14.9-4.5 30.9l-1.7 0.2z"/>
			<path class="s77" d="m212.6 410.4l-1-72.7c0-2.7-0.7-5.4-2-7.9-1.3-2.4-3.1-4.5-5.4-6.1l-8.9-6.3-59.7-3.3 5.6 4.9c-3.9 2.5-3.8 4.3-4.1 11.4l-5.7 80z"/>
			<path class="s78" d="m211.6 337.7c0-2.7-0.7-5.4-2-7.9-1.3-2.4-3.1-4.5-5.4-6.1l-3.1-2.2h-60.4l6.9 5.2c1.9 1.4 3.4 3.3 4.4 5.5 0.9 2.2 1.3 4.6 1.1 6.9l-6.8 71.3h66.3z"/>
			<path class="s78" d="m131.4 410.4c11.2-9.3 14.8-9.4 19.7-9.4 4.9 0 5.6 9.4 5.6 9.4z"/>
			<path class="s79" d="m166.4 330.4c11 10.6 18.5 16.1 20.3 17.3 1.9 1.3 4.2-2.9 6.3-8.7 2-5.8 3.6-11.6 4.3-13.6 0.7-2 3.7-5.9-8.3-5.9-12 0-40-4.1-22.6 10.9z"/>
			<path class="s79" d="m205.9 334.2c-8.9 12.9-21.6 28.8-25.2 33.7-3.6 4.8-8.9 0.8-12.9-3.3-3.9-4.1-2.3-2.2-0.3 3.6 1.6 4.5 4.3 8.5 8 11.5 2 1.8 5.2 6 13.2-8.8 8-14.7 21.7-43.3 17.2-36.7z"/>
			<path class="s80" d="m140.3 410.4c8.3-9.7 17.2-10.3 23.9 0z"/>
			<path class="s81" d="m147.5 404.3c6.1 2.1 7.9 5.5 8.2 6.1h8.5c-4.7-7.3-10.7-9.1-16.7-6.1z"/>
			<path class="s81" d="m198.8 404.6c-6.6-0.4-11.6 2.5-17.8 5.8h23.8c0.8-4.4-1.5-5.5-6-5.8z"/>
			<path class="s82" d="m126.2 379.5h-65.5v4.8h65.5z"/>
			<path class="s71" d="m97.6 333.2l7 77.2h-8.9l-7.1-77.2z"/>
			<path class="s71" d="m125.8 333.2l7 77.2h-8.8l-7.2-77.2z"/>
			<path class="s71" d="m61.8 330.4l-7 80h8.9l7.1-80z"/>
			<path class="s72" d="m61.8 336.7l-12.6-61q0-0.2 0-0.5 0.1-0.3 0.3-0.6 0.1-0.2 0.4-0.3 0.3-0.2 0.6-0.1h6.2q0.5 0 0.8 0.3 0.4 0.3 0.4 0.7l12.9 61.5z"/>
			<path class="s72" d="m93.6 279.4h-38.2v6.8h38.2z"/>
			<path class="s72" d="m60 330.4h58.9v7h-58.9q-0.7 0-1.4-0.3-0.6-0.2-1.1-0.7-0.5-0.5-0.8-1.1-0.3-0.7-0.3-1.4c0-0.9 0.4-1.8 1.1-2.5 0.6-0.6 1.5-1 2.5-1z"/>
			<path class="s83" d="m79.2 330.4h48.8q0.7 0 1.3 0.3 0.7 0.3 1.2 0.7 0.4 0.5 0.7 1.2 0.2 0.6 0.2 1.3 0 0.7-0.2 1.4-0.3 0.6-0.7 1.1-0.5 0.5-1.2 0.7-0.6 0.3-1.3 0.3h-48.8z"/>
			<path class="s74" d="m73.1 215.6c-1.4 0.6-2.5 1.6-3.2 2.9-0.6 1.4-0.7 2.9-0.2 4.3l9.5 28.1 12.4-3.7-11-28.3q-0.4-1.1-1.2-1.9-0.8-0.9-1.9-1.3-1-0.5-2.2-0.5-1.2 0-2.2 0.4z"/>
			<path class="s75" d="m82.6 243.8l4.9-0.6-6.8-16.9c-0.2-0.4-0.6-0.8-1.1-1-0.4-0.1-1-0.1-1.4 0.1-0.4 0.2-0.8 0.5-0.9 0.9-0.2 0.5-0.2 0.9-0.1 1.4z"/>
			<path class="s84" d="m79.8 243.8l-9.4-26c-0.5 0.7-0.8 1.6-0.9 2.4-0.1 0.9-0.1 1.8 0.2 2.6l7.3 21.4z"/>
			<path class="s85" d="m103.4 239.9l-36.1 4.7c-5.2 0.6-8.8 5.4-8.1 10.6v0.2c0.7 5.2 5.4 8.9 10.6 8.2l36.1-4.7c5.2-0.6 8.9-5.4 8.2-10.6v-0.2c-0.7-5.2-5.5-8.9-10.7-8.2z"/>
			<path class="s86" d="m75.1 296.1c-2.2-1.9-4.2-3.7-4.7-4.5-0.4-0.8 0.3-1 1.4-1.4 1.2-0.3 2 1 3.1 3.2 1.2 2.2 2.1 4.6 0.2 2.7z"/>
			<path class="s35" d="m105.3 272.7l-32.3 5.2c-2.1 1.8-2.3 2.1-3.8 3.6-4.3 3.8-5.5 6.9-5.6 10.2-0.3 4.8 0.2 4.5-0.8 6.2-1.1 1.7-2 2.4-1.1 4.7 0.6 1.5 1.5 2.9 2.7 4.1h51c11.5-13.4 1.2-24.3-10.1-34z"/>
			<path class="s38" d="m110.2 306.7h-34.4c0 0 0.2-3 0.3-10.7 0.2-7.8-1.3-13.1-6.9-14.5q1.8-1.9 3.8-3.6l32.3-5.1q3.3 2.6 6.3 5.7c0.4 9.4 0 18.8-1.4 28.2z"/>
			<path class="s87" d="m105.3 272.8h-0.4l-0.5 0.5q-1.9 7.2-5.1 14c0 0 0.2 1.8 2.6-1.6 2.4-3.4 4.3-7.2 5.5-11.2z"/>
			<path class="s87" d="m76.6 277.9c6.3 7.5 8.4 9.2 10.7 10.8 2.3 1.5 0.4-0.8-2-4.4-2.5-3.6-5.2-8-5.2-8z"/>
			<path class="s87" d="m95.8 299.2c-2.3-0.8-12.1-4-19.7-5.9q0.2 1.3 0 2.7c-0.1 7.7-0.3 10.7-0.3 10.7h34.4c0.5-3.8 1-8.1 1.3-12.8z"/>
			<path class="s77" d="m79.1 282.2q-0.6 1-1.6 1.5c-1.4 1-1.8 1.4-1.9 1.1-0.5-1.1-1.3-2.1-2.2-2.8-1-0.8-2.1-1.3-3.2-1.6 0.8-0.9 1.8-1.8 3-2.8 4.7 2.1 5.9 4.6 5.9 4.6z"/>
			<path class="s88" d="m102.5 272.7l-6.5 24.5-16.8-23.7z"/>
			<path class="s89" d="m88.3 281.3l12.5 3.2-4.6 7.5c0 0-7-8.1-7.9-9.3-1-1.2-2-1.9 0-1.4z"/>
			<path class="s90" d="m82.9 277.3l15.2 2.1c1.8 0.2 1.8-1.6 2.7-5.2l-16.5 1.1z"/>
			<path class="s85" d="m107.2 256.2l-37.2 4.8c-4.9 0.6-8.3 5.1-7.7 10 0.6 4.9 5.1 8.4 10 7.7l37.2-4.8c4.9-0.6 8.4-5.1 7.7-10-0.6-4.9-5.1-8.4-10-7.7z"/>
			<path class="s39" d="m109.2 274c2-0.2 3.9-1.1 5.4-2.6 1.4-1.4 2.3-3.3 2.6-5.3 0.2-2.1-0.3-4.1-1.4-5.8-1.1-1.8-2.7-3.1-4.7-3.7 1.2-1 2-2.3 2.6-3.7 0.5-1.5 0.7-3 0.5-4.5v-0.3c-0.1-1.2-0.5-2.4-1.1-3.5-0.6-1.1-1.5-2-2.4-2.8-1-0.7-2.2-1.3-3.4-1.6-1.2-0.3-2.4-0.4-3.6-0.2l-29.5 3.7c6.3 4.4 6.3 8.1 5.3 15.3-0.1 1 0.1 2.1 0.7 3 1.4 2.5 2 5.4 1.8 8.2-0.3 2.9-1.5 5.6-3.3 7.7z"/>
			<path class="s91" d="m96.4 359.9c0 3.2-1.9 5.8 1.5 7.3 5 2.2 7.2 4.6 10.9 5.7 3.7 1 9.4 2.7 6.5-3-2.9-5.7-5.1-11-5.1-11z"/>
			<path class="s91" d="m114.7 355.6c-0.2 2.9-2.2 5.3 0.8 7 4.5 2.4 6.4 4.8 9.9 6.1 3.4 1.4 8.5 3.4 6.2-2.2-2.3-5.7-3.8-10.7-3.8-10.7z"/>
			<path class="s67" d="m106.6 330.7h-1.4l7 30-4 1.9c-2 0.9-4.2 1.4-6.5 1.5-2.2 0-4.5-0.4-6.6-1.2l-7.1-32.1h-9.1q-0.9-0.1-1.6-0.4-0.8-0.3-1.4-0.9-0.5-0.6-0.8-1.4-0.3-0.8-0.3-1.6l0.6-8h40.1c2.4 0.1 4.7 1 6.4 2.6 1.8 1.6 2.9 3.8 3.1 6.1l4.1 31.4-3.4 0.4c-4.1 0.5-8.3 0.4-12.5-0.4z"/>
			<path class="s92" d="m89.2 317.4h-16.2v93h16.2z"/>
			<path class="s92" d="m256 410.4h16.2v-93h-16.2z"/>
			<path class="s93" d="m79.2 317.4h-6.2v93h6.2z"/>
			<path class="s92" d="m89.2 317.4h-16.2v16.9h16.2z"/>
			<path class="s94" d="m160.1 182.8l-9.6-4.8-6.6 8.5 9.9 6.4z"/>
			<path class="s47" d="m161.8 202.9l19.2 35.9c0.4 0.8 0.5 1.7 0.4 2.6-0.1 0.9-0.5 1.8-1.1 2.4l-0.3 0.3c-3.1 3.3-7.1 5.7-11.5 7.1-4.4 1.3-9 1.5-13.5 0.5-0.7-0.1-1.2-0.4-1.7-1-0.4-0.5-0.6-1.1-0.6-1.8l-1-43.3c0-16.4 0.8-20.1 10.1-2.7z"/>
			<path class="s48" d="m180 244.1c0.7-0.7 1.2-1.7 1.3-2.7 0.2-1 0-2-0.5-2.9l-19-35.6c-4.5-8.5-7-12-8.4-11.4 3.6 25.2 11.1 58 11.1 58l5.1 1.3c4-1.4 7.5-3.7 10.4-6.7z"/>
			<path class="s35" d="m175.4 228.4c-1.2-2.2-1.7-2.9-2.2-1.9-7.9-12.6-11.7-10-11.7 2.2 0 0-5.5-2.9-4.9 7.9-0.8-0.2-1.6-0.2-2.4 0.1-0.7 0.4-1.4 0.9-1.8 1.6l0.3 10.6c0 0.6 0.2 1.1 0.5 1.6 0.3 0.5 0.7 0.8 1.3 1.1 4.7 0.7 9.5 0.4 14-1.1 4.5-1.4 8.7-3.8 12.2-7.1 0.4-0.7 0.7-1.4 0.8-2.2 0-0.8-0.1-1.7-0.5-2.4z"/>
			<path class="s49" d="m181 238.8l-5.6-10.4c-1.2-2.2-1.7-2.9-2.2-1.9-7.9-12.6-11.7-10-11.7 2.2q-0.7-0.3-1.5-0.3c1.5 0.3 1.5 1.8 2.5 5.1 0.9 3.2 1.5 6.2 1.5 6.2l13.9 6q1.4-1.1 2.8-2.3c0.4-0.7 0.7-1.4 0.8-2.2 0-0.8-0.1-1.7-0.5-2.4z"/>
			<path class="s50" d="m180.4 239.3c-6.8-7.3-12.8-9.9-26.5 10.1q-0.2 0.3-0.2 0.7 0 0.4 0.1 0.7 0.2 0.4 0.4 0.6 0.3 0.3 0.7 0.3c4.5 1 9.2 0.9 13.6-0.5 4.4-1.3 8.4-3.8 11.5-7.1l0.3-0.3 0.5-0.8c0.4-0.5 0.5-1.2 0.5-1.9-0.1-0.7-0.4-1.3-0.9-1.8z"/>
			<path class="s95" d="m179.2 245.4l-1.8-9c-4.9-4.1-10.1-4.2-19 6.9l3.7 8.5c6.2-0.5 12.1-2.7 17.1-6.4z"/>
			<path class="s52" d="m179.6 245.2l-6.4-0.7-0.9 2.5-1.6-3.4c-1.6-3.5-1.7-3.5-3-0.5-1.3 3-7.2 2.1-7.2 2.1l-1.3-2.9c7.7-9.3 12.7-9.8 17.1-6.7z"/>
			<path class="s96" d="m139.9 263.8c-4 2.9-4.9 2.5-3.9 8.2 1 5.6 3.9-8.2 3.9-8.2z"/>
			<path class="s77" d="m197.4 306.7h-69.2q-1.5-3.4-2.1-7.1c-0.7-5.2-1.4-6.2 2.5-13 0.3-5.2 2-8.5 6-13.6q3.4-5.2 7.6-9.9l49.4 1.7q3 2.1 5.7 4.7l4 0.2c0.3 9.7-2.9 26.9-3.9 37z"/>
			<path class="s97" d="m233.7 264.8l-3.8-6c-1.3-2-3-3.6-5-4.6-2.1-1.1-4.4-1.6-6.7-1.5h-0.2c-0.6 0-1.3 0.3-1.8 0.7-0.5 0.4-0.8 1-1 1.6l-3.2 11.9-1 1.1q-0.4 0.4-0.5 0.8-0.1 0.5-0.1 1l0.3 2.3-0.5-0.8q-0.3-0.5-0.8-0.9-0.5-0.3-1.1-0.5c-1.6-0.4-4.7-1.2-7.9-2.3-0.7-1.2-2.2-2.9-7.8-3v3.5l6.6 6.5-0.2 19 13.3 4.8c1.5 0.5 3.1 0.6 4.6 0.2 1.5-0.4 2.9-1.2 3.9-2.4 7-8.3 11.6-18.2 13.4-28.9 0.1-0.8 0-1.7-0.5-2.5z"/>
			<path class="s97" d="m148.3 282.2l-1.2 5.4-14.6 1.5c-0.5 0-0.9 0.2-1.2 0.6-0.3 0.3-0.5 0.7-0.5 1.2v1.4q0 0.3 0.2 0.5 0.1 0.3 0.3 0.5 0.3 0.2 0.6 0.2 0.3 0.1 0.6 0l14.6-4.7 12.9 2q0.4 0.1 0.7 0.4 0.3 0.4 0.3 0.9l-2 14.6h38.4c4.5-27.9 6.3-33.5-2.3-40.5l-33.9 8-14.1-8.5 1.4 8.7c0.4 2.6 0.3 5.2-0.2 7.8z"/>
			<path class="s98" d="m155.5 290.1c0.9-3.9 1.9-8.9 1.9-11.9l-4.2-2.5q0.2 7-0.4 13.9z"/>
			<path class="s52" d="m160.4 296.1q4 2.6 8.3 4.6c1.9 0.9 7 2.6 8.6 3.1 1.6 0.5 2.8 1.4 1.9 2.9h-20.1z"/>
			<path class="s55" d="m163 297.6l-2.6-1.5-1.3 10.6h1.9z"/>
			<path class="s96" d="m154.3 252c-3 0.9-3.3 0-5.3 5.7l4.2 0.4z"/>
			<path class="s47" d="m150.2 257.5l1.3-3.1q0.3-0.9 1.1-1.5 0.7-0.7 1.7-0.9l4.5-1 17.9-0.2 9.8 4.9q0.6 0.3 0.9 0.8 0.4 0.6 0.5 1.2l0.4 2.3 4.7 3.2q0.4 0.3 0.6 0.7 0.2 0.5 0.1 0.9c-1.2 10.8-12.3 27.3-27.7 19.9-11.5-5.5-22.2-13.4-27.3-17.5l-2 2.7c-0.5-2.6 0-3.7 1.6-5l1.6-1.1q0.2-0.7 0.2-1.4c0.4-2-0.1-2.6 2.4-3.1z"/>
			<path class="s99" d="m153.8 254.9l5.7 3.8c1.9 1.2 3 3.5 0.2 2.5q-3.3-1.3-6.5-3.1c-1.6-1.1-0.9-1.4-0.8-2.3 0.2-0.9 0.5-1.5 1.4-0.9z"/>
			<path class="s48" d="m193 263.2l-4.7-3.2-0.4-2.3q-0.1-0.6-0.5-1.2-0.3-0.5-0.9-0.8l-9.8-4.9h-2.8l-11.3 24.3c1.1 5.3 2.7 6 4 7.2 1.3 1.3 1.3 1.4 0.9 2.9 14.6 5.7 25.1-10.1 26.2-20.4q0.1-0.5-0.1-0.9-0.2-0.5-0.6-0.7z"/>
			<path class="s100" d="m186.8 258.4c0.5 1.3 0.9 1.4 0 3.8q-2.1 4.8-5.2 9c-1.2 1.6-1.9 1.6 0-3.3 2-4.8 2.4-6 2.9-8.2 0.5-2.2 1.4-3.8 2.3-1.3z"/>
			<path class="s101" d="m152.2 260.4c2.9 4.1 6.6 7.8 10.8 10.8 3.3 2.3 2.2 1 0.7-1.6-1.5-2.6-4.2-4-7.3-6.9-3.1-2.9-6.8-5.9-4.2-2.3z"/>
			<path class="s48" d="m140.7 263.5q-0.1 0.3 0 0.6 0.1 0.2 0.4 0.4c8.1 4.5 19.6 10.1 23.7 11.5 4.2 1.4 1.7 0-3.5-3.4-5.2-3.5-14-9-16.9-10.7-2.8-1.6-2.8-2-3.7 1.6z"/>
			<path class="s53" d="m158.9 252.2c-4.2 0.7-6.5 0.7 0 4.5 6.4 3.7 0-4.5 0-4.5z"/>
			<path class="s95" d="m170.3 239.1l0.9 3.7 2 0.2-1.3-2.8-0.1-1.9z"/>
			<path class="s55" d="m164 242.5l2.3 0.4c-0.9 1.3-1.9 1.1-2.3-0.4z"/>
			<path class="s55" d="m172.7 241.6l2.4-0.7c-0.2 1.6-1.3 2-2.4 0.7z"/>
			<path class="s30" d="m165.5 243c0.4 0 0.7-0.6 0.7-1.3 0-0.7-0.3-1.2-0.7-1.2-0.4 0-0.7 0.5-0.7 1.2 0 0.7 0.3 1.3 0.7 1.3z"/>
			<path class="s30" d="m174.1 241.4c0.3 0 0.7-0.6 0.7-1.3 0-0.6-0.4-1.2-0.7-1.2-0.4 0-0.7 0.6-0.7 1.2 0 0.7 0.3 1.3 0.7 1.3z"/>
			<path class="s4" d="m176.3 235.6q1.1 0.7 2 1.6c0.7 1.9 0.9 4.6 1.7 6.9 0.8 2.3 1.6 5.7 1.3 7.7-0.4 2.1-0.1 2.1 1.1 4.7 1.2 2.5 3.5 5.1 2.7 8.2 1.4 1.9 1 3.2 0.6 5.1-0.5 1.8-1.9 6.8-5.3 6.6-1.1 1.7-2.7 2.9-4.5 3.6-1.8 0.6-3.8 0.7-5.7 0.2-5.5-1.4-10.9-5.1-10.2-10-1.9-1.4-1.4-5.1-1.2-7.1 0.1-1.8-0.1-3.7-0.7-5.4-0.7-1.7-0.7-3.5-0.2-7.2q-0.9-2.3-1.3-4.7 1.2-1.9 2.6-3.5l1.3 2.9q0.9 1.7 1.6 3.5 0.7-0.3 1.4-0.2c0.3-0.7 0.8-1.3 1.4-1.8 0.6-0.4 1.4-0.7 2.1-0.8l5.3 1.1 0.9-2.5c2.4-0.2 3.8-0.3 4.6 0.3 0.4-1.4 0.5-2.9 0.1-4.4-0.4-1.6-1.6-4.8-1.6-4.8z"/>
			<path class="s57" d="m172.7 249.1l-2-0.4c-1-0.3-0.9-0.4-3.7-2.8l5.3 1.1 0.9-2.5c2.4-0.2 3.8-0.3 4.6 0.3 0.5-1.4 0.5-2.9 0.1-4.4-0.4-1.6-1.6-4.8-1.6-4.8q1.1 0.7 2 1.6c0.7 1.9 0.9 4.6 1.7 6.9 0.8 2.3 1.6 5.7 1.3 7.7-0.4 2.1-0.1 2.1 1.1 4.7 1.2 2.5 3.5 5.1 2.7 8.2 1.4 1.9 1 3.2 0.6 5.1-0.5 1.8-1.9 6.8-5.3 6.6-1.1 1.7-2.7 2.9-4.5 3.6-1.8 0.6-3.8 0.7-5.7 0.2-5.5-1.4-10.9-5.1-10.2-10 1.7 4.7 5.2 3.8 5.2 3.8q3.2-0.7 6.6-0.6c1.2-2.2 2.7-4.4 4-5.3 2.6-5 0.6-10.4-0.7-13.5-1.3-3-2.4-5.5-2.4-5.5z"/>
			<path class="s58" d="m172.7 249.1c1.4 0.3 1.3-0.9 1.2-2.1q-0.2-1.3-0.7-2.5l-0.9 2.5-5.3-1.1c2.8 2.4 2.7 2.5 3.7 2.8z"/>
			<path class="s1" d="m162.6 241l5-1.5c-0.8-0.4-1.8-0.5-2.8-0.2-0.9 0.2-1.7 0.9-2.2 1.7z"/>
			<path class="s1" d="m171.2 239.1l5-1q-0.6-0.4-1.3-0.6-0.7-0.1-1.4 0-0.8 0.2-1.4 0.6-0.6 0.4-0.9 1z"/>
			<path class="s55" d="m168.5 244.1l1.7 1.1-2.2-0.5c-0.3 0-0.3-0.1-0.2-0.4 0.1-0.4 0.4-0.4 0.7-0.2z"/>
			<path class="s59" d="m174.8 250.9c0.1 0.3-0.1 0.6-0.3 0.9-0.2 0.3-0.5 0.4-0.9 0.5-5.3 0.8-7.6-0.6-8.5-1.3q-0.2-0.1-0.2-0.3-0.1-0.2-0.1-0.4v-0.2c2.8 0.9 7.1 0.5 8.1 0.3 1.1-0.1 0.6-0.4 0.5-0.9 0.4 0 0.7 0.2 1 0.4 0.3 0.3 0.4 0.6 0.4 1z"/>
			<path class="s102" d="m172.7 252.4q-0.9-1-1.9-1.8c-2 0.2-4 0-6-0.5v0.2q0 0.2 0.1 0.4 0 0.2 0.2 0.3h0.1c0.8 0.7 2.9 1.9 7.5 1.4z"/>
			<path class="s103" d="m165 300.7h-20.3v5.9h20.3z"/>
			<path class="s104" d="m150.4 300.7l-1.6 4.2h-2.6l1.8-4.2z"/>
			<path class="s105" d="m164.9 300.7h-11.7v5.9h11.7z"/>
			<path class="s60" d="m168.3 227.7c0.9-0.5 1-2.1 0.3-3.8-0.8-1.6-2.2-2.5-3.1-2.1-0.9 0.5-1.1 2.1-0.3 3.7 0.8 1.7 2.2 2.6 3.1 2.2z"/>
			<path class="s103" d="m104.9 297.2l-6.2 4.8q-0.1 0.1-0.3 0.2-0.2 0.1-0.4 0-0.2 0-0.3-0.1-0.2-0.1-0.3-0.3l-6.9-9.4q-0.2-0.3-0.2-0.6 0.1-0.4 0.3-0.7l6.2-4.7q0.1-0.1 0.3-0.2 0.2-0.1 0.4 0 0.2 0 0.3 0.1 0.2 0.1 0.3 0.3l7 9.3q0.1 0.1 0.1 0.3 0.1 0.2 0.1 0.4-0.1 0.2-0.2 0.3-0.1 0.2-0.2 0.3z"/>
			<path class="s103" d="m114.7 297.3l-7.4-0.6q-0.2 0-0.4-0.1-0.2-0.2-0.2-0.5l0.6-12.3q0-0.2 0.2-0.4 0.2-0.2 0.5-0.2l7.3 0.5q0.3 0.1 0.5 0.3 0.2 0.2 0.2 0.4l-0.6 12.3q0 0.1 0 0.2-0.1 0.1-0.2 0.2-0.1 0.1-0.2 0.2-0.1 0-0.3 0z"/>
			<path class="s106" d="m114.8 289l-3.1-3.7-3.9 3.3 3.2 3.7z"/>
			<path class="s107" d="m114.8 295.6q0.3-0.1 0.4-0.3 0.2-0.2 0.1-0.5l-2.9-11.2-4.4-0.4q-0.3 0-0.5 0.2-0.2 0.2-0.2 0.4l-0.6 12.3q0 0.1 0 0.2 0.1 0 0.1 0.1 0.1 0.1 0.2 0.1 0.1 0 0.3 0z"/>
			<path class="s103" d="m113.8 295.5l-7.4 0.9q-0.1 0-0.3 0-0.1 0-0.2-0.1-0.1 0-0.1-0.1-0.1-0.1-0.1-0.2l-3-12q-0.1-0.1 0-0.3 0-0.1 0.1-0.2 0-0.1 0.2-0.2 0.1 0 0.2 0l7.5-1q0.2 0 0.4 0.1 0.2 0.2 0.3 0.4l3 11.9q0 0.2 0 0.3 0 0.1-0.1 0.2-0.1 0.2-0.2 0.2-0.1 0.1-0.3 0.1z"/>
			<path class="s106" d="m111.7 287.9l-3.9-2.9-3 4 3.9 2.9z"/>
			<path class="s106" d="m100.2 291.4h-4.8v5.1h4.8z"/>
			<path class="s107" d="m109.4 293.8l-5-10.7-1.2 0.2q-0.1 0-0.2 0-0.2 0.1-0.2 0.2-0.1 0.1-0.1 0.2-0.1 0.2 0 0.3l3 11.9 3.3-1.2q0.1 0 0.2-0.1 0.1-0.1 0.2-0.2 0-0.2 0-0.3 0-0.1 0-0.3z"/>
			<path class="s107" d="m98.1 286.6q-0.1-0.2-0.3-0.3-0.1-0.1-0.3-0.1-0.2-0.1-0.4 0-0.2 0.1-0.3 0.2l-2.3 1.7 4.8 10.4q0.1 0.2 0.3 0.3 0.2 0.1 0.5 0.1l4.8-1.6q0.1-0.1 0.2-0.3 0.1-0.2 0.2-0.3 0-0.2-0.1-0.4 0-0.2-0.1-0.3z"/>
			<path class="s103" d="m108.5 295.3l-8 2.6c-0.4 0.1-0.7 0-0.8-0.4l-5.2-11.1q0-0.1 0-0.3 0-0.1 0.1-0.2 0-0.1 0.1-0.2 0.1-0.1 0.3-0.1l8-2.7q0.2-0.1 0.4 0 0.2 0.1 0.3 0.3l5.1 11.2q0.1 0.1 0.1 0.2 0 0.2 0 0.3-0.1 0.1-0.2 0.2-0.1 0.1-0.2 0.2z"/>
			<path class="s108" d="m90.5 301.6c-1.2-1.4-2.1-2.6-3.6-3-3.2-0.8-6.9-1.3-11.2-2-1-0.2-2.1-0.1-3.1 0.3-3 1.3-4 3.3-2.1 9.8h18q0.8-0.7 1.5-1.4c1.3-1.7 1.4-2.4 0.5-3.7z"/>
			<path class="s109" d="m111.1 290.6c3 1.5 7.1 4 7.1 4 0.8 0.4 1.4 1 1.9 1.7 0.4 0.8 0.7 1.6 0.7 2.5v0.8q0 1-0.3 2-0.4 1-1.1 1.8-0.7 0.8-1.7 1.2-0.9 0.5-2 0.5h-0.6q-1.1-0.1-2-0.6-0.9-0.6-1.5-1.4-1.5-2-3.3-3.7c-0.6-0.6-2.3-1.6-2.8-2.2-0.5-0.6-1.4-2.8 0-5 1.4-2.2 2.2-3.3 5.6-1.6z"/>
			<path class="s110" d="m90.6 258.4c0.8-0.6 0.7-2-0.2-3.1-0.9-1.1-2.2-1.5-2.9-0.9-0.8 0.6-0.7 1.9 0.2 3.1 0.8 1.1 2.1 1.5 2.9 0.9z"/>
			<path class="s110" d="m106.7 254.5c0.3-1.3-0.3-2.5-1.2-2.6-0.9-0.2-1.8 0.7-2 2-0.3 1.3 0.3 2.4 1.2 2.6 0.9 0.2 1.8-0.7 2-2z"/>
			<path class="s93" d="m175.5 317.4h-15.9v93h15.9z"/>
			<path class="s92" d="m175.5 317.4h-10.5v93h10.5z"/>
			<path class="s92" d="m175.5 317.4h-15.9v16.9h15.9z"/>
			<path class="s93" d="m305 306.7h-263c-0.8 0-1.5 0.7-1.5 1.5v11.8c0 0.8 0.7 1.5 1.5 1.5h263c0.9 0 1.5-0.7 1.5-1.5v-11.8c0-0.8-0.6-1.5-1.5-1.5z"/>
			<path class="s111" d="m305 306.7h-135.4c-0.8 0-1.5 0.7-1.5 1.5v11.8c0 0.8 0.7 1.5 1.5 1.5h135.4c0.9 0 1.5-0.7 1.5-1.5v-11.8c0-0.8-0.6-1.5-1.5-1.5z"/>
			<path class="s69" d="m128.4 206.1l3.6-1.6c0.1 0 0.1-0.1 0-0.1l-3.6-1.6-1.6-3.7c0-0.1-0.1-0.1-0.1 0l-1.7 3.6-3.6 1.7c-0.1 0-0.1 0.1 0 0.1l3.6 1.6 1.7 3.6h0.1z"/>
			<path class="s94" d="m372 379.9l3.7-1.5v-0.2l-3.7-1.6-1.6-3.6h-0.2l-1.5 3.6h-0.1l-3.6 1.6c-0.1 0-0.1 0.1 0 0.2l3.6 1.5h0.1l1.5 3.7h0.2z"/>
			<path class="s27" d="m11.1 308.4l3.6-1.6c0.1 0 0.1-0.1 0-0.1l-3.6-1.7h-0.1l-1.6-3.6h-0.1l-1.6 3.6-3.6 1.7c-0.1 0-0.1 0.1 0 0.1l3.6 1.6 1.6 3.6h0.1l1.6-3.6z"/>
			<path class="s61" d="m168.6 224c-0.8-1.7-2.2-2.7-3.1-2.2q-0.1 0.1-0.2 0.2-0.2 0.1-0.2 0.3c1.5-0.1 0.7 1.7 3.5 1.7z"/>
			<path class="s62" d="m164.8 223.4q0.1 1.1 0.6 2.1l0.2 0.5c0.4 0 0.9-0.2 1.3 0.3 0.3 0.4 0.5 1.1 1.5 1.3q0.4-0.3 0.5-0.7 0.2-0.5 0.1-0.9h-0.1c-1.9 0-3-1.9-4.1-2.6z"/>
			<path class="s49" d="m159.3 233.4c0.5 0 0.9-0.5 0.9-1.2 0-0.6-0.4-1.1-0.9-1.1-0.5 0-0.9 0.5-0.9 1.1 0 0.7 0.4 1.2 0.9 1.2z"/>
			<path class="s49" d="m154.5 241c0.5 0 0.9-0.5 0.9-1.1 0-0.7-0.4-1.2-0.9-1.2-0.4 0-0.8 0.5-0.8 1.2 0 0.6 0.4 1.1 0.8 1.1z"/>
			<path class="s112" d="m150.5 178l-1.9 6-4.7 2.5z"/>
			<path class="s63" d="m156.6 245.8q0.4 2 1 4c0.1-1.1 0.6-2.4 1.3-2.5 0.7-0.2 0.7-2.1 1.6-2.1l-1.3-2.9q-1.4 1.6-2.6 3.5z"/>
			<path class="s57" d="m159.5 269.7q0.2 0.3 0.5 0.5z"/>
			<path class="s57" d="m165.6 255.3c2.2 1.2 3.2 2 3.2 4.1-1.4-1.1-2.5-2.5-3.2-4.1z"/>
			<path class="s4" d="m175.5 255.6c2.2 2.2 3 3.8 3.1 5q-1.3-0.5-2.4-1.4z"/>
			<path class="s57" d="m158.9 252.2c0.1 1.4 0.5 2.7 1.1 3.9-1.6-1.1-1.6-2.1-1.1-3.9z"/>
			<path class="s57" d="m164.1 262.6c1.3 2.1 4.5 2.1 4.5 2.1-2.9 1.5-4.1 1.5-4.5-2.1z"/>
			<path class="s113" d="m178.4 246c0.7 1.2 1 2.5 0.9 3.8 0 0 2.5-2.1-0.9-3.8z"/>
			<path class="s113" d="m182.4 264.1c0.5 1.9 0 3.6-1.1 4 0-1.4 0.4-2.8 1.1-4z"/>
			<path class="s55" d="m166.9 237.9q2.9-0.8 5.9-1.4c-3-0.2-4.9 0.3-5.9 1.4z"/>
			<path class="s55" d="m161.3 242c0.5-0.2 1.2-0.5 1.7 0z"/>
			<path class="s55" d="m161.6 243.1c0.3-0.4 0.8-0.9 1.5-0.7z"/>
			<path class="s55" d="m176.9 238.7c-0.6 0.2-1.3 0.3-1.3 1.1z"/>
			<path class="s55" d="m177.4 239.8c-0.5-0.1-1.2-0.3-1.7 0.4z"/>
			<path class="s114" d="m169 241.8c0.1 0.9 0.5 1.6 1.1 2.2 0.4 0.3 0.1-0.3-0.4-1.4-0.6-1.1-0.9-1.5-0.7-0.8z"/>
			<path class="s57" d="m165.8 249.5q-0.3-0.1-0.6 0.1-0.3 0.2-0.4 0.5c2.8 0.9 7.1 0.5 8.1 0.3 1.1-0.1 0.6-0.4 0.5-0.9q-3.8 0.5-7.6 0z"/>
			<path class="s63" d="m178.3 237.2q-0.9-0.9-2-1.6c0 0 0.7 2 1.3 3.7l1.5 0.8q-0.3-1.5-0.8-2.9z"/>
			<path class="s115" d="m144.5 292.8c-8 3.6-10.9 3.9-12.1 4.1-1.2 0.3-2.7 0.6 0 2.5 2.7 1.8 3.2 2.1 7.5-1.2 4.3-3.4 8.2-7 4.6-5.4z"/>
			<path class="s97" d="m147.1 287.6q-1.3-5.1-3.4-9.9c-0.8-1.7-0.3-2.5 0.4-2.9 0.7-0.5 1-0.1 1.5 1.8l2.3 10.5z"/>
			<path class="s115" d="m137.1 276.7c2.9 3.6 4.4 5.3 5.3 6.7 0.9 1.4 0.6 1-3.5 0.7-4.1-0.4-6.5-0.3-6.2-1.8q0.9-2.8 2.2-5.6c0.3-1 1.1-1.3 2.2 0z"/>
			<path class="s55" d="m177.4 304.5l-6.2-1.9c-2-0.7 1.1 0.7 3.5 1.4 2.3 0.6 2.7 1.2 2.7 1.6q-0.1 0.4-0.3 0.6-0.2 0.3-0.5 0.5h1.6l0.3-0.7c0.2-0.8-0.1-1.3-1.1-1.5z"/>
			<path class="s116" d="m164.9 301.9h-18.6v0.5h18.6z"/>
			<path class="s116" d="m165 303.7h-20.3v0.4h20.3z"/>
			<path class="s116" d="m165 305.6h-20.3v0.5h20.3z"/>
			<path class="s103" d="m241.2 300.4h-21.4v6.3h21.4z"/>
			<path class="s104" d="m225.8 300.4l-1.6 4.3h-2.9l1.9-4.3z"/>
			<path class="s116" d="m241.2 301.7h-19.7v0.4h19.7z"/>
			<path class="s116" d="m241.2 303.5h-21.4v0.5h21.4z"/>
			<path class="s116" d="m241.2 305.6h-21.4v0.5h21.4z"/>
			<path class="s117" d="m144.8 338.9c-6.7 29.4-5.5 26.5-4.4 30.3 1.1 3.8 1.8 4.1 3.2-3.8 1.5-7.9 2.2-14.6 3.1-22.1 0.9-7.4 0.4-14.6-1.9-4.4z"/>
			<path class="s79" d="m182.8 404.6q5.8-2.2 11.7-3.6c2.1-0.5 2.9-0.6 3.6-6.2 0.8-5.5 1.4-11.6 1.4-13 0.1-1.3-4.2 5.7-7.5 10.5-3.4 4.7-14 14.1-9.2 12.3z"/>
			<path class="s118" d="m95.1 261.6l2.3 1.5q0.6 0.3 1.2 0.4 0.6 0.1 1.2-0.1 0.7-0.1 1.2-0.6 0.4-0.4 0.7-0.9l0.8-1.5"/>
			<path class="s119" d="m67.3 261.9c-2.1-0.6-4.7-1.3-5.7-1.4 0.9 1.2 2.2 2.1 3.6 2.7l-0.3 0.3c2.6 0 4.6-0.2 5.5-0.2 1-0.1 1.2-0.5-3.1-1.4z"/>
			<path class="s120" d="m65.3 250.4c1.4-1.5 2-3.1 1.5-3.6-0.6-0.6-2.2 0.2-3.6 1.7-1.4 1.5-2 3.2-1.5 3.7 0.6 0.5 2.2-0.3 3.6-1.8z"/>
			<path class="s121" d="m64.9 297.1l4.8-2c1.1-0.4 0.2-0.7-2-1.7-2.2-1-2.7-1.3-2.9 0.6-0.2 2-0.8 3.5 0.1 3.1z"/>
			<path class="s122" d="m70.6 296.1c-4.9 1.4-5 2.1-5.1 2.8-0.1 0.8 0 1.7 1.9 0.3q2.2-1.7 4.8-2.9c0.9-0.4 0.4-0.7-1.6-0.2z"/>
			<path class="s87" d="m77 296c0.9-4.9 0.8-6.2 1.3-6.3 0.4-0.1 1.2 1.1 1.9 2.7 0.7 1.5-3.2 3.6-3.2 3.6z"/>
			<path class="s123" d="m72.6 296.9c-3 1.3-4 3.3-2.1 9.8h0.5c-1.5-9.9 2.8-9.9 4.7-10.1-1-0.2-2.1-0.1-3.1 0.3z"/>
			<path class="s123" d="m87.3 298.8c1.1 0.7 0.6 1.9-0.3 4l-2 3.9h3.5q0.8-0.7 1.5-1.4c1.3-1.7 1.4-2.4 0.5-3.7-0.8-1.2-1.9-2.2-3.2-2.8z"/>
			<path class="s124" d="m120.8 298.8c0-0.9-0.3-1.7-0.7-2.5-0.5-0.7-1.1-1.3-1.9-1.7 0 0-3.3-2.1-6.1-3.6-1.6 1.6-3 3.4-4.1 5.4q-0.5 1-0.7 2.1 0.6 0.3 1 0.8 1.8 1.7 3.3 3.7c0.6 0.9 1.4 1.5 2.4 1.8 1.2 0.4 2.5 0.4 3.6-0.1 1-0.5 1.9-1.2 2.5-2.2 0.5-0.9 0.8-2 0.7-3.1z"/>
			<path class="s106" d="m105.4 289.1l-4.3-2.2-2.3 4.5 4.4 2.2z"/>
			<path class="s67" d="m126.8 350.5l2.2 2.2q0.4 0.5 0.5 1.1 0.1 0.6-0.1 1.2l-1 2.4z"/>
			<path class="s67" d="m93.4 350.5l-0.5 5.8q0 0.5 0.2 1.1 0.2 0.5 0.6 0.9l2.5 2.3z"/>
			<path class="s125" d="m115.3 352.8l12.9 1.2-4.2 2.1c-0.9 0.5-2 0.7-3.1 0.5-1.1-0.1-2.1-0.6-2.9-1.3z"/>
			<path class="s125" d="m104.6 354l-7.5 3.8c0 0 5.6 4.8 7.5-3.8z"/>
			<path class="s72" d="m52.5 276.5c1.8 0 3.2-1.4 3.2-3.2 0-1.8-1.4-3.3-3.2-3.3-1.8 0-3.3 1.5-3.3 3.3 0 1.8 1.5 3.2 3.3 3.2z"/>
			<path class="s126" d="m97.8 306.7l3.9 3.4 2.6-3.4z"/>
			<path class="s77" d="m218.2 252.7h-0.2c-0.6 0-1.3 0.3-1.8 0.7-0.5 0.4-0.8 1-1 1.6l-3.2 11.9-1 1.1q-0.4 0.4-0.5 0.8-0.1 0.5-0.1 1l0.3 2.3c1 5.1 0.9 0.5 4-0.3 3-0.8 0.8-2.6 1.2-3.7 2-3 3.3-6.5 3.9-10l2.6-4.9c-1.4-0.4-2.8-0.6-4.2-0.5z"/>
			<path class="s50" d="m217.9 253.6q-0.4 0-0.7 0.2-0.4 0.2-0.6 0.5-0.2 0.3-0.2 0.7 0 0.4 0.1 0.8c1.9 3.3 7.7 7.1 12.1 8.5 4.4 1.4 4.5 0.3 1.7-2.9-2.8-3.1-5.5-8.3-12.4-7.8z"/>
			<path class="s50" d="m228.6 264.3c-4.1-1.4-7.8-3.8-10.9-6.9l-1.2-1.6q-0.1-0.4-0.1-0.8 0-0.4 0.2-0.7 0.2-0.3 0.6-0.5 0.3-0.2 0.7-0.2h0.1c5.9-0.4 8.4 2.8 11.1 6.1q0.6 0.9 1.3 1.7c2.7 3.2 3.6 4.6-1.8 2.9z"/>
			<path class="s50" d="m228.6 264.3h-0.2c-3.1-1.1-6-2.7-8.5-4.8l-1.8-1.6-0.4-0.5q-0.7-0.7-1.2-1.5-0.1-0.4-0.1-0.8 0-0.4 0.2-0.7 0.2-0.3 0.6-0.5 0.3-0.2 0.7-0.2h0.8q1.2-0.1 2.4 0.2c3.8 0.6 5.8 3.2 8 5.9l0.2 0.5 1 1.1c2.8 3.2 3.7 4.6-1.7 2.9z"/>
			<path class="s98" d="m199.7 292.4q0.3-8.9-0.5-17.8c-0.4-3 0.9-1.5 2.1 1.1 1.2 2.7 0.5 7 0 11.6-0.5 4.5-1.7 7.2-1.6 5.1z"/>
			<path class="s98" d="m197.4 282.5c-4.4 13.2-15.4 24.2-15.4 24.2h4.8c5.5-4.5 9.2-10.8 10.6-17.8 1.3-6.3 1.6-11.3 0-6.4z"/>
			<path class="s98" d="m210.3 274.9q-0.8 8-0.3 16c0.4 4.2-1.3 1.6-2.5-0.7-1.1-2.2-0.2-2.9 0.5-7.2 0.7-4.2 0.8-5.3 1.1-7.5 0.4-2.2 1.3-3.4 1.2-0.6z"/>
			<path class="s127" d="m214.1 275.7c0 5.2 1.2 9.3 3.6 9.2 1.8-0.1 3.7-0.8 5.2-1.9 1.1-0.7 0.5-0.8-1.5-1.7-1.8-1-3.3-2.3-4.4-4.1-0.9-1.5-2.8-5.1-2.9-1.5z"/>
			<path class="s52" d="m230.4 255.5l-1.1 4.7-0.8 3.9c0 0-10.3-6.7-10.3-6.9q0.1-0.4 0.2-0.8 0.1-0.6 0.1-1.1c0.1-0.3 0.1-0.7 0.2-0.9v-0.8q0.2-1.4 0.1-2.8v-0.9c-0.2-4-0.4-10-0.4-10 9.7-0.5 12.9 2.7 12.9 2.7 0.5 8.6-0.3 10.6-0.9 12.9z"/>
			<path class="s52" d="m219 253.4c0-1.1-0.2-2.2-0.7-3.2-0.4-1-1.1-2-2-2.7-1.4-0.9-1.5-1.6-2.3-2.9-0.8-1.3-1.2-1.7-1.6-2.3q-0.2-0.3-0.2-0.7 0.1-0.4 0.4-0.7c0.5-0.4 1.4-0.6 2.5 0.1 1.1 0.7 3.3 2.6 4.9 3.6 1.6 1.1 3.2 7.1-1 8.8z"/>
			<path class="s52" d="m218.8 246c-0.2-3.4-0.8-9.9-0.9-11.3q-0.2-2.2-0.1-4.4c0.1-0.7 0.1-1.2 1.1-1.2 1 0 1.6 1.1 1.8 3.3 0.3 2.2 0.4 3.4 0.4 3.4q0.8 2.7 1.3 5.4c0.1 1.8-3.6 4.8-3.6 4.8z"/>
			<path class="s52" d="m222.1 240.5c0.1-2.9 0.8-9.9 1-11.5 0.2-1.6 0.4-2 1.3-1.9 0.9 0.1 1.8 0.3 1.4 5.2-0.2 2.6-0.2 4.2-0.2 4.2 0 0 0 4.3-0.1 5.5-0.1 1.2-3.4-1.5-3.4-1.5z"/>
			<path class="s52" d="m225.3 240.8c0.4-3 1.1-7.8 1.2-9.2 0.2-1.4 0.6-2.2 1.5-1.9 1 0.2 1.5 0.9 1.3 3.5-0.3 2.5-0.5 4.3-0.6 5-0.1 0.7-0.2 4.6-0.2 4.6z"/>
			<path class="s52" d="m228.1 242.5c0.6-2.7 1.5-6.8 1.8-8.1 0.2-1.3 0.6-1.8 1.6-1.6 0.9 0.3 1.3 1 0.8 3.3q-0.5 2.1-0.7 4.3l-0.6 4z"/>
			<path class="s55" d="m218.5 243.5c2.1 1.3 4.5 1.8 5.4 3.2 0.8 1 1.4 2.2 1.8 3.4 0.1 0.9 0.4 0.6 1.3-0.6 0.9-1.3 1.6-2.2 2-3.4 0.3-1.1-0.1-1.9-3.7-2.4l-6.8-1z"/>
			<path class="s128" d="m221.2 253.1q0 0.3-0.1 0.7c-0.2 1-0.6 3-1 4.7-0.1 0.3-1.9-1.1-1.9-1.3q0.1-0.4 0.2-0.8 0.1-0.6 0.1-1.1c0.1-0.3 0.1-0.7 0.2-0.9v-0.8q0.1-0.9 0.1-1.8-0.3-1.5-1.1-2.9l1.1 1c2.2 1.9 2.4 2.2 2.4 3.2z"/>
			<path class="s50" d="m217.5 255.3l-0.6 1 0.8 1.1c3.1 3.1 6.8 5.5 10.9 6.9h0.6c-8.8-4.6-11.7-9-11.7-9z"/>
			<path class="s55" d="m219.3 237q1 0 1.9-0.4c0 0-1.4-1.6-1.9 0.4z"/>
			<path class="s55" d="m219.1 233.6q0.8 0.1 1.5-0.1c0 0-1.3-1-1.5 0.1z"/>
			<path class="s55" d="m223.5 236.2q0.9 0.3 1.9 0.2c0 0-1.2-1.5-1.9-0.2z"/>
			<path class="s55" d="m220.6 240.3q4.6 0 9.1 1.1c1.7 0.5 1.6 1-1 0.5q-3.5-0.7-7-1.1c-1.4-0.2-2.6-0.5-1.1-0.5z"/>
			<path class="s55" d="m224.2 232.1c0.5-0.7 1.2 0 1.3 0.5 0.1 0.5-1.2 0.7-1.3-0.5z"/>
			<path class="s129" d="m202.1 292.3c2.3 0 4.2-1.9 4.2-4.3 0-2.3-1.9-4.2-4.2-4.2-2.3 0-4.2 1.9-4.2 4.2 0 2.4 1.9 4.3 4.2 4.3z"/>
			<path class="s129" d="m206.3 289.5c1.2 0 2.1-0.9 2.1-2.1 0-1.1-0.9-2.1-2.1-2.1-1.1 0-2.1 1-2.1 2.1 0 1.2 1 2.1 2.1 2.1z"/>
			<path class="s130" d="m207.1 287h-12.5c-2.5 6.3-2.5 13.4 0 19.8h12.5c2.5-6.4 2.5-13.4 0-19.8z"/>
			<path class="s131" d="m198.1 287c-1.3 6.5-1.5 13.2-0.5 19.8h0.6l0.6-19.8z"/>
			<path class="s131" d="m203.7 287c2 7.6 0.9 19.8 0.9 19.8h-0.9l-0.8-19.8z"/>
			<path class="s132" d="m193.7 303.8c-0.4-5.3 1.5-12.9 3.2-16.8h-2.3c-2.1 5.3-2.4 11.2-0.9 16.8z"/>
			<path class="s129" d="m201.2 287c2.7 2.4 3.4 0 3.4 0l-2.3-0.9z"/>
			<path class="s133" d="m26.7 377.3c3.1-7.6 18.1-8.9 10.9 8h-9.5z"/>
			<path class="s134" d="m23.5 385.3c0 0-9.1-11-4.9-17.6 4.1-6.6 14-2.4 12.5 17.6z"/>
			<path class="s134" d="m20.4 368.6c-5.8-7.3-15.6-7.1-15.5-0.9 0 6.1 15.5 2.4 15.5 2.4z"/>
			<path class="s134" d="m28.1 345.9c-7.1 1.2-2.9 9.7-5.1 21.3l3.7 2.5c8.2-11.2 8.6-25 1.4-23.8z"/>
			<path class="s134" d="m15.1 361.7c0.4-1.9-0.4-3.7-1.7-4-1.4-0.3-2.8 1.1-3.2 3-0.3 1.9 0.4 3.6 1.7 3.9 1.4 0.3 2.8-1 3.2-2.9z"/>
			<path class="s133" d="m34.2 375.1c0-12.3 1.2-17.4 4.7-17.4 3.4 0.1-2.4 17.9-2.4 17.9z"/>
			<path class="s134" d="m30.2 350.5c3.2-6.2 8.9-4.7 6.9 0q-0.3 1-1 1.7-0.7 0.7-1.6 1-0.9 0.3-1.9 0.2-1-0.1-1.8-0.6z"/>
			<path class="s134" d="m36.1 380.3c5.7-10.9 10.9-19.1 15.4-13.1 4.5 5.9-12.6 20.4-12.6 20.4h-2.8z"/>
			<path class="s134" d="m46.1 368.1c-2.6-5.2-4.2-9.4-2.6-13.3 1.7-3.8 9.8-3.4 5.1 12.9z"/>
			<path class="s135" d="m29.4 387c2.2-8.2 8-8.9 9.7-6.4 1.8 2.5-3.3 6.2-3.3 6.2z"/>
			<path class="s136" d="m43.5 410.4h-21.8l-6.9-12.6 1.2-12.5h33.2l1.5 12.5z"/>
			<path class="s137" d="m14.8 397.8h9.6l1.2-12.5h-9.6z"/>
			<path class="s135" d="m13.4 357.8c-1.3-0.2-2.7 1.1-3.2 3q-0.2 1.2 0.2 2.3c-2.5-0.1-4.5 0.9-5.2 2.7 1.9-0.7 4-0.9 6-0.7 0 0-0.5-4.5 2.4-7.2z"/>
			<path class="s135" d="m30.2 350.5l6.2-3.8c-1.6-0.8-4.3 0.2-6.2 3.8z"/>
			<path class="s135" d="m23.8 360c0.7-6.1 1.4-10.5 4.3-14.1-5.5 1-4.2 6.3-4.3 14.1z"/>
			<path class="s135" d="m43.5 354.8c-0.7 1.9-0.8 3.9-0.3 5.8l3.8-7.7c-0.7-0.1-1.5 0.1-2.1 0.4-0.6 0.4-1.1 0.9-1.4 1.5z"/>
			<path class="s135" d="m21 370.7l-0.6 1.4 1.9-0.4z"/>
			<path class="s135" d="m29.4 355.6l-1.8 2.1 2.6 0.1z"/>
			<path class="s135" d="m45.6 370.7l-1.4 1.4 2 0.4z"/>
			<path class="s133" d="m28.1 375.9v2.1l1.7-1z"/>
			<path class="s27" d="m23.6 343.5q0.2 0.8 0.7 1.5 0.5 0.6 1.2 1.1 0.7 0.4 1.5 0.5 0.8 0.1 1.6-0.1 0.8-0.2 1.5-0.7 0.7-0.4 1.1-1.2 0.4-0.7 0.5-1.5 0.2-0.8 0-1.6z"/>
		</g>
	</g>
</svg>