<svg version="1.2" xmlns="http://www.w3.org/2000/svg" viewBox="0 0 619 401" width="619" height="401">
	<title>item1</title>
	<defs>
		<clipPath clipPathUnits="userSpaceOnUse" id="cp1">
			<path d="m304 304c-11.06 0-20-8.94-20-20 0-11.06 8.94-20 20-20 11.06 0 20 8.94 20 20 0 11.06-8.94 20-20 20z"/>
		</clipPath>
		<linearGradient id="g1" x2="1" gradientUnits="userSpaceOnUse" gradientTransform="matrix(6.561,-2.488,4.013,10.583,289.976,287.715)">
			<stop offset="0" stop-color="#61c7c7"/>
			<stop offset="1" stop-color="#54b9c7"/>
		</linearGradient>
		<clipPath clipPathUnits="userSpaceOnUse" id="cp2">
			<path d="m304 248c-11.06 0-20-8.94-20-20 0-11.06 8.94-20 20-20 11.06 0 20 8.94 20 20 0 11.06-8.94 20-20 20z"/>
		</clipPath>
		<linearGradient id="g2" x2="1" gradientUnits="userSpaceOnUse" gradientTransform="matrix(19.9,-4.74,7.716,32.394,524.98,225.392)">
			<stop offset="0" stop-color="#61c7c7"/>
			<stop offset="1" stop-color="#54b9c7"/>
		</linearGradient>
		<linearGradient id="g3" x2="1" gradientUnits="userSpaceOnUse" gradientTransform="matrix(-208.9,0,0,-336.681,15145.8,1611.24)">
			<stop offset="0" stop-color="#61c7c7"/>
			<stop offset="1" stop-color="#54b9c7"/>
		</linearGradient>
		<clipPath clipPathUnits="userSpaceOnUse" id="cp3">
			<path d="m304 116c-11.06 0-20-8.94-20-20 0-11.06 8.94-20 20-20 11.06 0 20 8.94 20 20 0 11.06-8.94 20-20 20z"/>
		</clipPath>
		<clipPath clipPathUnits="userSpaceOnUse" id="cp4">
			<path d="m304 192c-11.06 0-20-8.94-20-20 0-11.06 8.94-20 20-20 11.06 0 20 8.94 20 20 0 11.06-8.94 20-20 20z"/>
		</clipPath>
		<linearGradient id="g4" x2="1" gradientUnits="userSpaceOnUse" gradientTransform="matrix(1.772,20.751,-24.456,2.088,298.298,155.98)">
			<stop offset="0" stop-color="#ffc285"/>
			<stop offset="1" stop-color="#db8d6b"/>
		</linearGradient>
		<linearGradient id="g5" x2="1" gradientUnits="userSpaceOnUse" gradientTransform="matrix(37.404,-18.322,7.512,15.336,280.837,177.223)">
			<stop offset="0" stop-color="#d67569"/>
			<stop offset="1" stop-color="#e39e7f"/>
		</linearGradient>
	</defs>
	<style>
		.s0 { fill: #292841 } 
		.s1 { fill: #b9bbbe } 
		.s2 { fill: #ffffff } 
		.s3 { fill: #1c1b29 } 
		.s4 { fill: #cfdeff } 
		.s5 { fill: #b8c5ff } 
		.s6 { fill: #5697b0 } 
		.s7 { fill: #7ce4cc } 
		.s8 { fill: #aafae7 } 
		.s9 { opacity: .74;fill: url(#g1) } 
		.s10 { fill: #2c4661 } 
		.s11 { fill: #738eff } 
		.s12 { opacity: .41;fill: #284e7a } 
		.s13 { fill: #61c7c7 } 
		.s14 { fill: #21354a } 
		.s15 { fill: #d4ffdc } 
		.s16 { fill: #335a70 } 
		.s17 { fill: #b2a6ff } 
		.s18 { fill: #2ddfb4 } 
		.s19 { fill: #72767d } 
		.s20 { fill: #dcddde } 
		.s21 { fill: #f7e5bc } 
		.s22 { fill: #d6569b } 
		.s23 { fill: #e374b0 } 
		.s24 { fill: #1f3a70 } 
		.s25 { fill: #f06ea8 } 
		.s26 { fill: #e05fa3 } 
		.s27 { fill: #1b1926 } 
		.s28 { fill: #751b40 } 
		.s29 { fill: #9c2455 } 
		.s30 { fill: #bed3ff } 
		.s31 { fill: #ffa78b } 
		.s32 { fill: #fdd171 } 
		.s33 { fill: #fdd2f8 } 
		.s34 { fill: #e0eaff } 
		.s35 { fill: #c2ffce } 
		.s36 { fill: #28263b } 
		.s37 { fill: #abbaff } 
		.s38 { fill: #8fa2fa } 
		.s39 { fill: #afc6fa } 
		.s40 { fill: #dbe6ff } 
		.s41 { opacity: .74;fill: url(#g2) } 
		.s42 { opacity: .5;fill: url(#g3) } 
		.s43 { fill: #f7aea5 } 
		.s44 { fill: #feccaf } 
		.s45 { fill: #6b3143 } 
		.s46 { fill: #133bba } 
		.s47 { fill: #1541cc } 
		.s48 { fill: #0b2585 } 
		.s49 { fill: #fff0db } 
		.s50 { fill: #ffe8ad } 
		.s51 { fill: #ffd978 } 
		.s52 { fill: #e6edff } 
		.s53 { fill: #66d4cd } 
		.s54 { fill: #5ec7c7 } 
		.s55 { fill: #7c90eb } 
		.s56 { fill: #9eb0ff } 
		.s57 { fill: #f0f5ff } 
		.s58 { fill: #bdd1ff } 
		.s59 { fill: #94a7ff } 
		.s60 { fill: #7d93ff } 
		.s61 { mix-blend-mode: multiply;fill: #dad4ff } 
		.s62 { fill: #2950cc } 
		.s63 { fill: #2139a6 } 
		.s64 { fill: #ff9ccd } 
		.s65 { fill: #50a7b5 } 
		.s66 { fill: #ffdeb0 } 
		.s67 { fill: #c84493 } 
		.s68 { fill: #e060ad } 
		.s69 { fill: #f2a97b } 
		.s70 { fill: #e65c5c } 
		.s71 { fill: #e3bd9a } 
		.s72 { fill: #dec3c7 } 
		.s73 { fill: #d1abb1 } 
		.s74 { fill: #ffb869 } 
		.s75 { fill: #4d7ae8 } 
		.s76 { fill: #dbe7ff } 
		.s77 { fill: #201e2f } 
		.s78 { fill: #590942 } 
		.s79 { fill: #b5cdff } 
		.s80 { fill: #ef6767 } 
		.s81 { fill: #3366e0 } 
		.s82 { fill: #ff82a6 } 
		.s83 { fill: url(#g4) } 
		.s84 { fill: url(#g5) } 
		.s85 { fill: #ef6270 } 
		.s86 { fill: #bd3c53 } 
		.s87 { fill: #ffb685 } 
		.s88 { fill: #543247 } 
		.s89 { fill: #c74153 } 
		.s90 { fill: #a82c3c } 
		.s91 { fill: #5e2737 } 
	</style>
	<path fill-rule="evenodd" class="s0" d="m174 1h411c4.4 0 8 3.6 8 8v312c0 4.4-3.6 8-8 8h-411c-4.4 0-8-3.6-8-8v-312c0-4.4 3.6-8 8-8z"/>
	<path fill-rule="evenodd" class="s1" d="m289.9 46c-0.3 0-0.6-0.3-0.5-0.6l0.6-3.4h-3.4c-0.3 0-0.6-0.3-0.5-0.6l0.2-1c0-0.2 0.2-0.4 0.5-0.4h3.6l1-6h-3.4c-0.3 0-0.5-0.3-0.5-0.6l0.2-1c0-0.2 0.2-0.4 0.5-0.4h3.6l0.6-3.6c0-0.2 0.2-0.4 0.5-0.4h1c0.3 0 0.5 0.3 0.5 0.6l-0.6 3.4h6l0.6-3.6c0-0.2 0.2-0.4 0.5-0.4h1c0.3 0 0.5 0.3 0.5 0.6l-0.6 3.4h3.4c0.3 0 0.5 0.3 0.5 0.6l-0.2 1c-0.1 0.2-0.3 0.4-0.5 0.4h-3.6l-1 6h3.4c0.3 0 0.5 0.3 0.4 0.6l-0.1 1c-0.1 0.2-0.3 0.4-0.5 0.4h-3.6l-0.6 3.6c-0.1 0.2-0.3 0.4-0.5 0.4h-1c-0.3 0-0.6-0.3-0.5-0.6l0.6-3.4h-6l-0.6 3.6c-0.1 0.2-0.3 0.4-0.5 0.4zm3.5-12l-1.1 6h6l1.1-6z"/>
	<path class="s2" d="m324.4 41.2c0-1.9-1-2.5-3.5-3.2-1.4-0.4-1.8-0.7-1.8-1.2 0-0.5 0.4-0.9 1.3-0.9 1 0 2.1 0.4 3.1 0.9l0.3-2c-0.9-0.4-2.1-0.7-3.4-0.7-2.2 0-3.5 1.2-3.5 2.9 0 1.8 1 2.4 3.3 3 1.5 0.4 2 0.7 2 1.4 0 0.6-0.6 1-1.6 1-1.2 0-2.5-0.5-3.6-1.1l-0.3 2c0.9 0.5 2.4 0.9 3.8 0.9 2.5 0 3.9-1.1 3.9-3z"/>
	<path class="s2" d="m331.4 44l-0.3-2q-0.3 0.1-0.7 0.1c-0.9 0-1.3-0.5-1.3-1.2v-4.6h2.3l-0.3-2h-2v-3.4l-2.4 0.4v3h-1.3v2h1.3v5c0 2.2 1.3 2.9 3.2 2.9 0.7 0 1.2-0.1 1.5-0.2z"/>
	<path class="s2" d="m333.2 34.3v7c0 1.8 0.9 2.9 2.8 2.9 1.2 0 2.3-0.7 3.2-1.6l0.2 1.4h2v-9.7h-2.4v6.6c-0.7 0.7-1.4 1.2-2.2 1.2-0.8 0-1.2-0.6-1.2-1.4v-6.4z"/>
	<path class="s2" d="m343.4 39.4c0 3.3 1.6 4.8 3.6 4.8 1.4 0 2.3-0.7 3-1.5l0.2 1.3h2.1v-14.4l-2.4 0.3v4.7c-0.6-0.2-1.4-0.4-2.3-0.4-2.2 0-4.2 1.6-4.2 5.2zm2.4-0.1c0-2.1 0.9-3.1 2.2-3.1 0.8 0 1.3 0.1 1.9 0.4v4.1c-0.7 0.8-1.4 1.4-2.2 1.4-1.1 0-1.9-0.9-1.9-2.8z"/>
	<path class="s2" d="m355.7 47.6c1.8 0 2.9-0.7 3.7-3l3.7-10.3h-2.4l-2.2 6.8-2.2-6.9-2.5 0.3 3.5 9.5-0.1 0.3c-0.3 1-0.9 1.4-1.7 1.4q-0.6-0.1-1.1-0.2l0.3 2c0.3 0.1 0.5 0.1 1 0.1z"/>
	<path class="s2" d="m369.3 39.4v-2.3h-5.2v2.3z"/>
	<path class="s2" d="m380.1 44.4c0-1.5-1.2-2.1-3.2-2.4l-1.2-0.1c-1.5-0.2-1.8-0.3-1.8-0.6 0-0.2 0.1-0.4 0.4-0.5q0.3 0 0.7 0c2.1 0 3.9-1.2 3.9-3.3 0-0.4-0.1-0.9-0.3-1.3l1.8-0.1-0.3-1.9-2.4 0.8q-1-0.8-2.7-0.9c-2.2 0-3.9 1.3-3.9 3.5 0 1.2 0.7 2.2 1.8 2.8q-1.2 0.7-1.2 1.5 0 0.6 0.6 1.1c-1.2 0.6-1.9 1.3-1.9 2.2 0 1.6 2 2.4 4.6 2.4 2.8 0 5.1-1.1 5.1-3.2zm-3.4-6.9c0 1-0.6 1.8-1.7 1.8-1 0-1.7-0.7-1.7-1.7 0-1.1 0.6-1.9 1.7-1.9 1 0 1.7 0.8 1.7 1.8zm-1.5 8.7c-1.8 0-2.7-0.5-2.7-1.2 0-0.5 0.3-1 1-1.5 0.5 0.1 0.8 0.2 1.5 0.3l1.3 0.1c1.2 0.2 1.6 0.5 1.6 1 0 0.7-1 1.3-2.7 1.3z"/>
	<path class="s2" d="m387.6 36.5l-0.3-2.4c-1.5 0.1-2.5 1.1-3.1 2.2l-0.3-2h-2.1v9.7h2.4v-5.5c0.7-1.1 1.9-1.9 3.4-2z"/>
	<path class="s2" d="m397.5 39.2c0-3.2-1.9-5.1-4.5-5.1-2.7 0-4.6 1.9-4.6 5.1 0 3.1 1.9 5 4.5 5 2.7 0 4.6-1.9 4.6-5zm-2.3 0c0 1.8-0.8 3-2.3 3-1.4 0-2.1-1.3-2.1-3 0-1.8 0.7-3.1 2.1-3.1 1.5 0 2.3 1.3 2.3 3.1z"/>
	<path class="s2" d="m399.4 34.3v7c0 1.8 1 2.9 2.8 2.9 1.3 0 2.3-0.7 3.2-1.6l0.2 1.4h2.1v-9.7h-2.4v6.6c-0.7 0.7-1.5 1.2-2.2 1.2-0.9 0-1.3-0.6-1.3-1.4v-6.4z"/>
	<path class="s2" d="m419 38.9c0-3.2-1.6-4.8-3.7-4.8-1.3 0-2.2 0.8-2.9 1.6l-0.2-1.4h-2.1v13.4l2.4-0.3v-3.7c0.6 0.2 1.3 0.4 2.3 0.4 2.2 0 4.2-1.6 4.2-5.2zm-2.4 0.1c0 2.2-1 3.2-2.2 3.2-0.8 0-1.3-0.2-1.9-0.4v-4.2c0.7-0.8 1.3-1.3 2.2-1.3 1.1 0 1.9 0.9 1.9 2.7z"/>
	<path class="s3" d="m147 9c0-4.4 3.6-8 8-8h105v328h-105c-4.4 0-8-3.6-8-8z"/>
	<g id="Clip-Path" clip-path="url(#cp1)">
		<g>
			<path fill-rule="evenodd" class="s4" d="m304 304c-11.1 0-20-8.9-20-20 0-11.1 8.9-20 20-20 11.1 0 20 8.9 20 20 0 11.1-8.9 20-20 20z"/>
			<path class="s4" d="m326.4 310.8c-0.4-0.9-1.1-1.7-1.9-2.3-0.8-0.6-1.7-1-2.7-1.1l-2.1-0.2c-3-10.9-1.5-13.4-10.4-15.8l-7.2-0.2c0 0-7.3 0.1-10 3.7l3.7 12.3c0 0-1.5 8.2-0.8 12.4l9.4-1.3 4 13.2c15.4-2.3 22.5-9.4 22.5-9.4z"/>
			<path class="s5" d="m293.8 292.1c10.2 9.6 19.4 16.1 17.9 1z"/>
			<path class="s6" d="m298.8 293.3c8.9 4.1 11.2 5.7 10.6 0.7z"/>
			<path class="s2" d="m318 300.3c-1.1-4.6-1.9-6.6-6.5-8.2 1.3 2.9 1.8 8.8 1.8 8.8z"/>
			<path class="s7" d="m302.8 278.2l-0.3-2.5c-0.1-0.8-0.5-1.6-1.1-2.2-0.5-0.6-1.3-1-2.1-1.1-0.9-0.2-1.8 0-2.6 0.4-0.8 0.5-1.4 1.2-1.7 2.1-1.2 3.1-3 8.1-4.2 12.3-2 6.7 6.9 8.2 15.7 7.6 8.7-0.7 9.5-4.5 8.3-10.1-0.8-3.4-1.8-6.9-2.4-9.1-0.2-0.6-0.5-1.2-1-1.6-0.5-0.4-1.1-0.7-1.7-0.7-0.7-0.1-1.5 0-2.1 0.4-0.6 0.4-1.1 0.9-1.3 1.6l-1 2.6z"/>
			<path class="s8" d="m313.6 287.4l-0.6-0.2-3.2 1.1-3.2 0.4-5.6-1.1c0 0-3.1-4.8-2.9 0.5 0.2 3.7 1.8 5.8 2.7 6.7q2.8 0.2 5.6-0.1 2.2-0.1 4.2-0.7c1-1.3 2.5-3.8 3-6.6z"/>
			<path class="s9" d="m298 287.7c-0.7-2.1-2-6.3-1.4-9.5 0.5-3.2 1.2-5.8 2.7-5.8-0.9-0.2-1.8 0-2.6 0.4-0.8 0.5-1.4 1.2-1.7 2.1-1.2 3.1-3 8.1-4.2 12.3-1.8 6 5.2 7.8 12.9 7.7-1.7-0.3-3.8-2.1-5.7-7.2z"/>
			<path class="s8" d="m303.7 294.9h-0.6-0.6-0.9-0.3-0.5c-0.9-1-2.5-3.1-2.7-6.7q0-0.1 0-0.2c1.9 4.9 4 6.6 5.6 6.9z"/>
			<path class="s10" d="m312.9 286.8v0.8c-3.4 2.2-4 2.8-12.8 0.1v-0.7l0.3 0.1c7.5 1.9 8.9 2 12.5-0.3z"/>
			<path class="s11" d="m299.5 289.7c1.1-0.3 1.7-1.6 1.4-2.9-0.4-1.3-1.6-2.1-2.7-1.7-1.2 0.3-1.8 1.6-1.5 2.9 0.4 1.2 1.6 2 2.8 1.7z"/>
			<path class="s11" d="m314.5 287c0.2-1.1-0.1-2.1-0.7-2.2-0.7-0.1-1.4 0.6-1.6 1.8-0.2 1.1 0.1 2.1 0.7 2.2 0.7 0.1 1.4-0.6 1.6-1.8z"/>
			<path class="s12" d="m305.8 284.9c-0.2-0.2 0.1-0.4 0.3-0.5q0.2 0 0.3 0 0.2 0 0.2 0.1l0.9 1.1c0.2 0.4-0.1 0.4-0.5 0.1-0.4-0.2-0.9-0.4-1.2-0.8z"/>
			<path class="s12" d="m309.5 285.4l0.3-0.6q0-0.1 0-0.3 0-0.2-0.1-0.3l-0.1-0.1q-0.1 0-0.1 0 0 0 0 0-0.1 0-0.1 0 0 0 0 0-0.2 0.7-0.4 1.3c0 0.5 0.3 0.4 0.5 0z"/>
			<path class="s13" d="m305.9 278.5l-3.1-0.3 2.5-0.3 1-2.6c0.2-0.7 0.7-1.2 1.3-1.6 0.6-0.4 1.4-0.5 2.1-0.4l0.6 0.1c-1.5-0.3-2 1.4-2.3 3.5-0.2 1.1-0.1 1.7-2.1 1.6z"/>
			<path class="s14" d="m311.7 278c0.1-0.8-0.5-1.5-1.1-1.5-0.7 0-1.2 0.7-1.2 1.5 0 0.8 0.5 1.4 1.2 1.4 0.6 0 1.1-0.6 1.1-1.4z"/>
			<path class="s14" d="m300.8 277.5c0-0.8-0.4-1.5-1.1-1.5-0.6-0.1-1.2 0.5-1.3 1.3 0 0.8 0.4 1.5 1.1 1.5 0.6 0.1 1.2-0.5 1.3-1.3z"/>
			<path class="s2" d="m295.8 307.2c1.4 0 3.1-0.1 4.6-0.2q0-0.9 0.2-1.8 0.4-1.5 1.1-2.9c-1.3-0.1-2.8-0.2-4-0.3-0.2-6-3.4-9.3-5.2-7.6-0.8 0.8-1.3 1.9-1.4 3 0 0.9 0.1 2.4 0 2.8-0.2 1.1-0.9 1.4 0 3.4 0.5 1.1-0.4 3.6 4.7 3.6z"/>
			<path class="s15" d="m300 272.6c1.3 0.8 1.6 2.7 1.7 3.5 0.1 0.8 0.3 2.2 0.3 2.5 0.1 0.4 0.2 0.5 1.4 1 1.2 0.6 0.7 0 0.1-0.6l-0.7-0.8-0.3-2.5c-0.1-0.7-0.4-1.3-0.8-1.9-0.4-0.5-1-0.9-1.7-1.2z"/>
			<path class="s16" d="m311.1 277c0.4 0.2 0.5 1.2 0.1 0.8-0.5-0.4-0.7-1-0.1-0.8z"/>
			<path class="s16" d="m300.2 276.4c0.4 0.2 0.5 1.3 0.1 0.8-0.4-0.4-0.7-1-0.1-0.8z"/>
			<path class="s17" d="m300.1 288.4c0.4-0.3 0.5-1 0.1-1.8-0.4-0.7-1.1-1.1-1.5-0.9-0.4 0.2-0.5 1-0.1 1.7 0.4 0.8 1.1 1.2 1.5 1z"/>
			<path class="s17" d="m314.5 286.2c0-0.6-0.2-1-0.5-1-0.2 0-0.4 0.4-0.4 1 0 0.5 0.2 0.9 0.4 0.9 0.3 0 0.5-0.4 0.5-0.9z"/>
			<path class="s15" d="m311.2 274.3c0.7 0.6 0.9 1.6 0.1 0.9-0.8-0.7-1-1.6-0.1-0.9z"/>
		</g>
	</g>
	<path class="s18" d="m342.3 279.7h2.1v-4h1c2.5 0 4.2-1.2 4.2-3.6 0-2.2-1.5-3.4-4-3.4h-3.3zm5.2-7.6c0 1.3-0.8 1.8-2.1 1.8h-1v-3.6h1c1.4 0 2.1 0.6 2.1 1.8z"/>
	<path class="s18" d="m357.6 279.7v-5.5c0-1.5-0.7-2.4-2.2-2.4-1 0-1.8 0.6-2.5 1.2v-4.8l-1.9 0.3v11.2h1.9v-5.2c0.6-0.6 1.2-1 1.8-1 0.7 0 1 0.5 1 1.2v5z"/>
	<path class="s18" d="m361.7 269.6c0-0.6-0.5-1.1-1.1-1.1-0.6 0-1.2 0.5-1.2 1.1 0 0.7 0.6 1.1 1.2 1.1 0.6 0 1.1-0.4 1.1-1.1zm-0.2 10.1v-7.7h-1.9v7.7z"/>
	<path class="s18" d="m370.6 275.6c0-2.5-1.3-3.8-2.9-3.8-1 0-1.7 0.6-2.2 1.1v-4.7l-1.9 0.3v10.8c0.9 0.3 1.9 0.5 3.1 0.5 2.3 0 3.9-1.3 3.9-4.2zm-1.9 0.2c0 1.7-0.8 2.5-2 2.5-0.5 0-0.8-0.1-1.2-0.3v-3.5c0.5-0.5 1-1 1.7-1 0.9 0 1.5 0.8 1.5 2.3z"/>
	<path class="s18" d="m374.4 269.6c0-0.6-0.6-1.1-1.2-1.1-0.6 0-1.1 0.5-1.1 1.1 0 0.7 0.5 1.1 1.1 1.1 0.6 0 1.2-0.4 1.2-1.1zm-0.2 10.1v-7.7h-2v7.7z"/>
	<path class="s19" d="m384.8 270.4l-0.1-1h-6.3v1h2.6v7.2h1.1v-7.2z"/>
	<path class="s19" d="m389.6 274.8c0-1.9-1.1-3-2.7-3-1.5 0-2.6 1.1-2.6 3 0 1.9 1.1 3 2.6 3 1.6 0 2.7-1.1 2.7-3zm-1.1 0c0 1.2-0.5 2.1-1.6 2.1-1 0-1.5-0.9-1.5-2.1 0-1.2 0.5-2.1 1.5-2.1 1.1 0 1.6 0.9 1.6 2.1z"/>
	<path class="s19" d="m390.6 274.9c0 2 1 2.9 2.3 2.9 0.8 0 1.4-0.5 1.8-1l0.2 0.8h0.8v-8.6l-1 0.1v3c-0.4-0.1-0.9-0.3-1.5-0.3-1.4 0-2.6 1.1-2.6 3.1zm1.1 0c0-1.4 0.6-2.2 1.5-2.2 0.7 0 1 0.1 1.5 0.4v2.7c-0.5 0.6-1 1-1.7 1-0.7 0-1.3-0.6-1.3-1.9z"/>
	<path class="s19" d="m401.7 277.6v-4c0-1.2-0.6-1.8-2-1.8-0.9 0-1.6 0.2-2.3 0.5l0.2 0.9c0.6-0.3 1.3-0.5 2-0.5 0.6 0 1.1 0.3 1.1 1v0.2c-2.4 0.3-3.6 0.8-3.6 2.3 0 0.9 0.6 1.6 1.6 1.6 1 0 1.6-0.5 2.1-0.9l0.1 0.7zm-1.1-1.5c-0.5 0.5-1.1 0.8-1.7 0.8-0.5 0-0.9-0.3-0.9-0.8 0-0.6 0.5-1.2 2.6-1.4z"/>
	<path class="s19" d="m403.7 279.8c0.8 0 1.5-0.3 1.9-1.6l2.4-6.3h-1.2l-1.5 4.5-1.5-4.6-1.1 0.2 2.1 5.7-0.1 0.3c-0.3 0.7-0.6 0.9-1.1 0.9-0.1 0-0.3 0-0.5-0.1l0.1 1c0.1 0 0.3 0 0.5 0z"/>
	<path class="s19" d="m416.1 277.6v-4c0-1.2-0.7-1.8-2.1-1.8-0.9 0-1.5 0.2-2.2 0.5l0.1 0.9c0.6-0.3 1.3-0.5 2-0.5 0.7 0 1.1 0.3 1.1 1v0.2c-2.4 0.3-3.6 0.8-3.6 2.3 0 0.9 0.6 1.6 1.7 1.6 0.9 0 1.5-0.5 2-0.9l0.1 0.7zm-1.1-1.5c-0.5 0.5-1.1 0.8-1.7 0.8-0.5 0-0.8-0.3-0.8-0.8 0-0.6 0.4-1.2 2.5-1.4z"/>
	<path class="s19" d="m420.5 277.7l-0.2-0.9q-0.2 0-0.5 0c-0.6 0-0.8-0.3-0.8-0.8v-3.2h1.4l-0.1-0.9h-1.3v-2l-1 0.1v1.9h-0.9v0.9h0.9v3.4c0 1.2 0.6 1.5 1.7 1.5q0.5 0 0.8 0z"/>
	<path class="s19" d="m425.2 277.8c2.7-0.6 4.5-2.2 4.5-5 0-2.2-1.2-3.4-2.9-3.4-1.6 0-2.8 1.1-2.8 2.7 0 1.5 1 2.5 2.5 2.5 0.8 0 1.5-0.2 2-0.6-0.4 1.7-1.8 2.5-3.4 2.8zm1.5-4.1c-1.2 0-1.7-0.6-1.7-1.6 0-1.1 0.7-1.7 1.7-1.7 1.2 0 1.9 1 1.9 2.5v0.1c-0.5 0.4-1.2 0.7-1.9 0.7z"/>
	<path class="s19" d="m432.3 273.3v-1.4h-1.2v1.4zm0 4.3v-1.4h-1.2v1.4z"/>
	<path class="s19" d="m435.9 277.8c1.8 0 2.9-1 2.9-2.4 0-1.1-0.6-1.7-1.7-2 0.9-0.3 1.5-0.9 1.5-1.9 0-1.1-0.7-2.1-2.6-2.1-1 0-1.7 0.3-2.3 0.7l0.1 1c0.6-0.5 1.4-0.8 2.2-0.8 1 0 1.5 0.5 1.5 1.2 0 0.9-0.6 1.4-2 1.4h-0.6l0.2 1h0.4c1.5 0 2.2 0.5 2.2 1.5 0 0.9-0.7 1.4-1.8 1.4-0.8 0-1.5-0.2-2.2-0.7l-0.1 1.1c0.6 0.3 1.4 0.6 2.3 0.6z"/>
	<path class="s19" d="m446.1 273.6c0-2.7-1.2-4.2-3.1-4.2-1.8 0-3.1 1.5-3.1 4.2 0 2.7 1.3 4.2 3.1 4.2 1.9 0 3.1-1.5 3.1-4.2zm-1.1 0c0 2.1-0.7 3.2-2 3.2-1.2 0-2-1.1-2-3.2 0-2.1 0.8-3.3 2-3.3 1.3 0 2 1.2 2 3.3z"/>
	<path class="s19" d="m456.2 277.7l1.1-0.2-3.2-8.2h-1.1l-3.3 8.3h1.2l0.9-2.4h3.4zm-2.7-7.1l1.4 3.5h-2.7z"/>
	<path class="s19" d="m467.7 277.6l-0.7-8.2h-1.4l-2.5 6.8-2.6-6.8h-1.4l-0.7 8.2h1.1l0.5-6.6 2.6 6.7h0.9l2.6-6.7 0.5 6.6z"/>
	<path class="s20" d="m352 300v-5.6c0-1.3-0.8-2.2-2.2-2.2-1.1 0-2 0.6-2.7 1.3-0.3-0.8-0.9-1.3-2-1.3-1.1 0-1.9 0.6-2.7 1.3l-0.1-1.1h-1.2v7.6h1.4v-5.3c0.7-0.7 1.5-1.2 2.2-1.2 0.8 0 1.1 0.5 1.1 1.3v5.2h1.4v-5.3c0.7-0.7 1.5-1.2 2.2-1.2 0.8 0 1.1 0.5 1.1 1.3v5.2z"/>
	<path class="s20" d="m360.3 299.1l-0.2-1.2c-0.8 0.6-1.6 1-2.7 1-1.3 0-2.2-0.8-2.2-2.6h5.1v-0.3c0-2.1-1-3.8-3.2-3.8-1.9 0-3.4 1.5-3.4 4 0 2.8 1.6 4 3.6 4 1.2 0 2.2-0.4 3-1.1zm-3.2-5.8c1.1 0 1.6 0.7 1.8 2h-3.7c0.2-1.3 1-2 1.9-2z"/>
	<path class="s20" d="m369.3 300l-0.2-1.2q-0.2 0.1-0.6 0.1c-0.8 0-1.1-0.4-1.1-1v-4.3h1.9l-0.2-1.2h-1.7v-2.8l-1.4 0.2v2.6h-1.1v1.2h1.1v4.5c0 1.5 0.9 2 2.3 2 0.5 0 0.8 0 1-0.1z"/>
	<path class="s20" d="m377.6 296.2c0-2.5-1.5-4-3.5-4-2.1 0-3.5 1.5-3.5 4 0 2.5 1.4 4 3.5 4 2 0 3.5-1.5 3.5-4zm-1.4 0c0 1.6-0.7 2.8-2.1 2.8-1.4 0-2.1-1.2-2.1-2.8 0-1.6 0.7-2.8 2.1-2.8 1.3 0 2.1 1.2 2.1 2.8z"/>
	<path class="s20" d="m386.1 296.2c0-2.5-1.5-4-3.6-4-2 0-3.5 1.5-3.5 4 0 2.5 1.5 4 3.5 4 2.1 0 3.6-1.5 3.6-4zm-1.5 0c0 1.6-0.7 2.8-2.1 2.8-1.3 0-2.1-1.2-2.1-2.8 0-1.6 0.7-2.8 2.1-2.8 1.4 0 2.1 1.2 2.1 2.8z"/>
	<path class="s20" d="m389.8 289h-1.7l0.4 7.7 0.9-0.2zm-0.1 11.1v-2h-1.6v2z"/>
	<g id="Clip-Path" clip-path="url(#cp2)">
		<g>
			<path fill-rule="evenodd" class="s21" d="m304 248c-11.1 0-20-8.9-20-20 0-11.1 8.9-20 20-20 11.1 0 20 8.9 20 20 0 11.1-8.9 20-20 20z"/>
			<path class="s21" d="m327 240.5l-2.7 6.3q-0.3 0.7-0.9 1.3-0.6 0.6-1.4 0.9-0.7 0.2-1.6 0.2-0.8 0-1.5-0.3l-10.2-4.7 5.1-7.9 6.2 3.4 0.9-2.7c3.2 1.3 4.9 2.4 6.1 3.5z"/>
			<path class="s21" d="m315.2 237.5c4.1 0.7 4.5 1.5 5.6 3.7l-4.4-0.5z"/>
			<path class="s22" d="m296 203.5c-0.9 0.3-1.5 0.8-2 1.5-0.4 0.8-0.5 1.7-0.3 2.5l4.1 16.6 7.2-1.5-4.9-16.8q-0.1-0.7-0.6-1.2-0.4-0.5-1-0.8-0.6-0.4-1.2-0.4-0.7-0.1-1.3 0.1z"/>
			<path class="s23" d="m300 220.2l2.9-0.1-3.1-10q0-0.2-0.2-0.4-0.1-0.2-0.3-0.3-0.2-0.1-0.5-0.1-0.2 0-0.4 0.1-0.4 0.1-0.6 0.5-0.2 0.3-0.1 0.7z"/>
			<path class="s22" d="m312.8 203.4c0.8 0.3 1.5 0.8 1.9 1.5 0.5 0.8 0.6 1.7 0.4 2.5l-3.9 16.6-7.3-1.4 4.7-16.9q0.2-0.6 0.6-1.2 0.4-0.5 1-0.8 0.6-0.3 1.3-0.4 0.7-0.1 1.3 0.1z"/>
			<path class="s23" d="m310 220.2l-2.8-0.1 2.9-10.1q0.1-0.2 0.2-0.4 0.2-0.1 0.4-0.2 0.2-0.1 0.4-0.1 0.2-0.1 0.4 0 0.4 0.2 0.6 0.5 0.2 0.4 0.1 0.8z"/>
			<path class="s21" d="m318.2 244.4l-1.2 3.7-0.2 0.5-1.4 4.6h-27.3c-0.3-1 0-1.2 0.7-2.3 0.7-1.2 0.4-0.9 0.5-3.6 0-1.9 0.7-3.7 3.2-5.9 0.8-0.7 1-0.9 1.7-1.7l0.3-0.2 0.1-0.1 0.1-0.1 18.7-2.9 3.7 6.2z"/>
			<path class="s24" d="m317 248.1q-0.2 2.8-0.5 5.1h-20q0-1.2 0-3 0-0.2 0.1-0.4v-1.6c-0.2-3.6-1.2-6.1-4.1-6.8q0.8-0.8 1.7-1.7l0.3-0.2 0.2-0.2 18.7-2.9c1.5 0.5 2.4 0.9 3.5 2q0.2 2.1 0.2 4.2 0.1 2.9-0.1 5.5z"/>
			<path class="s25" d="m315.2 228.5l-21.6 0.9c-2.9 0.1-5.1 2.5-5 5.3 0.1 2.9 2.5 5.1 5.4 5l21.6-0.9c2.9-0.1 5.1-2.5 5-5.3-0.1-2.9-2.5-5.1-5.4-5z"/>
			<path class="s25" d="m314.1 218.9l-21 0.9c-3.1 0.1-5.4 2.7-5.3 5.7v0.1c0.2 3.1 2.7 5.4 5.7 5.3l21-0.9c3.1-0.1 5.4-2.7 5.3-5.7v-0.2c-0.2-3-2.7-5.3-5.7-5.2z"/>
			<path class="s26" d="m315.6 238.7c2.7-0.2 5-2.4 5-5.2 0-1-0.3-2-0.8-2.8-0.6-0.9-1.4-1.5-2.3-1.9 0.7-0.6 1.3-1.3 1.6-2.1 0.4-0.8 0.6-1.6 0.6-2.5v-0.2q-0.1-1.1-0.5-2.1-0.5-0.9-1.3-1.7-0.8-0.7-1.8-1.1-1-0.4-2.1-0.3l-18.8 0.8c-1.7 3.2-1.5 6.7-0.2 9.2q0.3 0.6 0.3 1.2 0 0.6-0.2 1.2c-1.8 4.8 0.6 8.3 0.6 8.3z"/>
			<path class="s27" d="m300.4 228.9c0.5-0.3 0.5-1.1 0.1-1.8-0.5-0.6-1.2-0.9-1.7-0.6-0.5 0.3-0.5 1.1-0.1 1.8 0.5 0.6 1.2 0.9 1.7 0.6z"/>
			<path class="s27" d="m309.8 227.4c0.2-0.7 0-1.4-0.5-1.5-0.6-0.2-1.1 0.3-1.3 1-0.2 0.8 0 1.5 0.5 1.6 0.5 0.2 1.1-0.3 1.3-1.1z"/>
			<path class="s28" d="m302.5 231.3c1.3 2.2 3.2 2.8 4.5-0.1q0-0.1 0-0.1 0-0.1 0-0.1 0 0-0.1-0.1 0 0-0.1 0l-4.2 0.2q0 0-0.1 0 0 0 0 0 0 0.1 0 0.1 0 0.1 0 0.1z"/>
			<path class="s29" d="m305.1 231l-2.5 0.1q0 0-0.1 0 0 0 0 0 0 0.1 0 0.1 0 0.1 0 0.1c1.1 1.9 2.7 2.6 3.9 0.9-0.3-0.5-0.7-0.9-1.3-1.2z"/>
		</g>
	</g>
	<path class="s30" d="m341.7 222h2.1v-4h1c2.5 0 4.2-1.2 4.2-3.6 0-2.2-1.5-3.4-4-3.4h-3.3zm5.2-7.6c0 1.3-0.8 1.8-2.1 1.8h-1v-3.6h1c1.4 0 2.1 0.6 2.1 1.8z"/>
	<path class="s30" d="m356.5 221.2l-0.2-1.5c-0.9 0.6-1.7 1-2.7 1-1.2 0-2-0.7-2.1-2.2h5c0-0.1 0-0.3 0-0.4 0-2.2-1-4-3.4-4-2 0-3.5 1.6-3.5 4.1 0 2.8 1.6 4 3.8 4 1.2 0 2.2-0.4 3.1-1zm-3.4-5.7c0.9 0 1.4 0.6 1.5 1.8h-3.1c0.2-1.2 0.8-1.8 1.6-1.8z"/>
	<path class="s30" d="m365.1 218c0-2.6-1.3-3.9-2.9-3.9-1 0-1.8 0.6-2.3 1.3l-0.2-1.1h-1.7v10.7l2-0.3v-2.9c0.4 0.2 1 0.3 1.8 0.3 1.7 0 3.3-1.3 3.3-4.1zm-1.9 0.1c0 1.7-0.8 2.5-1.7 2.5-0.7 0-1.1-0.1-1.5-0.4v-3.3c0.5-0.6 1-1.1 1.7-1.1 0.9 0 1.5 0.8 1.5 2.3z"/>
	<path class="s30" d="m373.8 218c0-2.6-1.3-3.9-2.9-3.9-1.1 0-1.8 0.6-2.4 1.3l-0.2-1.1h-1.6v10.7l1.9-0.3v-2.9c0.5 0.2 1.1 0.3 1.8 0.3 1.8 0 3.4-1.3 3.4-4.1zm-1.9 0.1c0 1.7-0.8 2.5-1.8 2.5-0.6 0-1-0.1-1.5-0.4v-3.3c0.5-0.6 1.1-1.1 1.8-1.1 0.8 0 1.5 0.8 1.5 2.3z"/>
	<path class="s30" d="m381.8 221.2l-0.2-1.5c-0.8 0.6-1.7 1-2.7 1-1.1 0-2-0.7-2-2.2h4.9c0-0.1 0-0.3 0-0.4 0-2.2-1-4-3.3-4-2 0-3.5 1.6-3.5 4.1 0 2.8 1.6 4 3.7 4 1.3 0 2.3-0.4 3.1-1zm-3.4-5.7c1 0 1.4 0.6 1.6 1.8h-3.1c0.1-1.2 0.8-1.8 1.5-1.8z"/>
	<path class="s19" d="m392.3 215.6l-0.1-1.1h-6.4v1.1h2.7v7.2h1.1v-7.2z"/>
	<path class="s19" d="m397.1 220c0-1.9-1.2-3-2.7-3-1.5 0-2.6 1.1-2.6 3 0 1.9 1.1 2.9 2.6 2.9 1.5 0 2.7-1 2.7-2.9zm-1.1 0c0 1.2-0.5 2.1-1.6 2.1-1 0-1.5-1-1.5-2.1 0-1.2 0.5-2.1 1.5-2.1 1 0 1.6 0.9 1.6 2.1z"/>
	<path class="s19" d="m398.1 220.1c0 1.9 1 2.8 2.3 2.8 0.8 0 1.4-0.4 1.8-0.9l0.2 0.8h0.8v-8.6l-1.1 0.1v3c-0.3-0.2-0.8-0.3-1.4-0.3-1.4 0-2.6 1-2.6 3.1zm1.1 0c0-1.4 0.6-2.2 1.5-2.2 0.6 0 1 0.1 1.4 0.4v2.7c-0.4 0.6-0.9 1-1.6 1-0.8 0-1.3-0.7-1.3-1.9z"/>
	<path class="s19" d="m409.2 222.8v-4c0-1.3-0.7-1.8-2-1.8-0.9 0-1.6 0.2-2.3 0.5l0.2 0.9c0.6-0.3 1.3-0.5 2-0.5 0.6 0 1 0.2 1 1v0.2c-2.3 0.3-3.6 0.8-3.6 2.2 0 1 0.7 1.6 1.7 1.6 1 0 1.6-0.4 2-0.8l0.2 0.7zm-1.1-1.5c-0.5 0.4-1.1 0.8-1.7 0.8-0.6 0-0.9-0.3-0.9-0.8 0-0.6 0.5-1.2 2.6-1.4z"/>
	<path class="s19" d="m411.2 225c0.8 0 1.4-0.3 1.9-1.6l2.3-6.3h-1.1l-1.5 4.5-1.5-4.6-1.1 0.2 2.1 5.6-0.1 0.4c-0.3 0.6-0.6 0.9-1.1 0.9-0.1 0-0.4-0.1-0.5-0.1l0.1 1c0.1 0 0.2 0 0.5 0z"/>
	<path class="s19" d="m423.5 222.8v-4c0-1.3-0.6-1.8-2-1.8-0.9 0-1.6 0.2-2.2 0.5l0.1 0.9c0.6-0.3 1.3-0.5 2-0.5 0.6 0 1.1 0.2 1.1 1v0.2c-2.4 0.3-3.6 0.8-3.6 2.2 0 1 0.6 1.6 1.6 1.6 1 0 1.6-0.4 2.1-0.8l0.1 0.7zm-1.1-1.5c-0.5 0.4-1.1 0.8-1.7 0.8-0.5 0-0.9-0.3-0.9-0.8 0-0.6 0.5-1.2 2.6-1.4z"/>
	<path class="s19" d="m427.9 222.8l-0.1-0.9q-0.2 0.1-0.5 0.1c-0.6 0-0.8-0.3-0.8-0.8v-3.2h1.4l-0.2-0.9h-1.2v-2.1l-1 0.2v1.9h-0.9v0.9h0.9v3.4c0 1.2 0.6 1.5 1.6 1.5q0.6 0 0.8-0.1z"/>
	<path class="s19" d="m432.7 223c2.6-0.6 4.5-2.2 4.5-5 0-2.3-1.2-3.4-2.9-3.4-1.6 0-2.8 1.1-2.8 2.6 0 1.6 0.9 2.6 2.5 2.6 0.8 0 1.4-0.3 2-0.6-0.4 1.6-1.8 2.5-3.5 2.8zm1.6-4.1c-1.2 0-1.7-0.6-1.7-1.7 0-1 0.7-1.7 1.7-1.7 1.1 0 1.9 1 1.9 2.6v0.1c-0.6 0.4-1.2 0.7-1.9 0.7z"/>
	<path class="s19" d="m439.8 218.5v-1.4h-1.2v1.4zm0 4.3v-1.4h-1.2v1.4z"/>
	<path class="s19" d="m441.2 222.8h5.3l-0.2-0.9h-3.7l2.3-2.4c1-1 1.4-1.7 1.4-2.7 0-1.3-0.9-2.2-2.5-2.2-1 0-1.8 0.4-2.4 0.9l0.1 1c0.7-0.6 1.4-0.9 2.2-0.9 1 0 1.5 0.4 1.5 1.3 0 0.7-0.3 1.2-1 2l-3 3.1z"/>
	<path class="s19" d="m447.5 222.8h5.3l-0.2-0.9h-3.7l2.3-2.4c1-1 1.4-1.7 1.4-2.7 0-1.3-0.9-2.2-2.5-2.2-1 0-1.8 0.4-2.4 0.9l0.1 1c0.7-0.6 1.4-0.9 2.3-0.9 0.9 0 1.4 0.4 1.4 1.3 0 0.7-0.3 1.2-1 2l-3 3.1z"/>
	<path class="s19" d="m462.8 222.9l1.1-0.2-3.2-8.2h-1.1l-3.3 8.3h1.2l0.9-2.5h3.4zm-2.7-7l1.4 3.5h-2.7z"/>
	<path class="s19" d="m474.3 222.8l-0.7-8.3h-1.4l-2.5 6.8-2.6-6.8h-1.4l-0.7 8.3h1.1l0.5-6.7 2.6 6.8h0.9l2.6-6.8 0.5 6.7z"/>
	<path class="s20" d="m346.4 241.9c0-1.5-0.8-2-2.7-2.5-1.2-0.3-1.6-0.6-1.6-1.1 0-0.6 0.5-0.9 1.3-0.9 0.8 0 1.7 0.3 2.4 0.7l0.2-1.4c-0.7-0.3-1.6-0.5-2.5-0.5-1.7 0-2.7 0.9-2.7 2.1 0 1.4 0.7 1.9 2.5 2.4 1.4 0.3 1.8 0.6 1.8 1.3 0 0.6-0.6 1-1.5 1-1.1 0-2-0.4-2.7-0.9l-0.2 1.3c0.6 0.4 1.7 0.8 2.7 0.8 2 0 3-0.9 3-2.3z"/>
	<path class="s20" d="m354.4 243.1l-0.3-1.2c-0.8 0.6-1.6 1-2.7 1-1.3 0-2.1-0.8-2.2-2.6h5.2v-0.3c0-2.1-1-3.8-3.3-3.8-1.9 0-3.3 1.5-3.3 4 0 2.8 1.5 4 3.5 4 1.3 0 2.2-0.4 3.1-1.1zm-3.3-5.8c1.1 0 1.7 0.7 1.8 2h-3.6c0.2-1.3 0.9-2 1.8-2z"/>
	<path class="s20" d="m362.4 244v-5.6c0-1.3-0.8-2.2-2.2-2.2-1.1 0-2 0.6-2.7 1.3l-0.2-1.1h-1.1v7.6h1.4v-5.3c0.7-0.7 1.5-1.2 2.2-1.2 0.8 0 1.2 0.5 1.2 1.3v5.2z"/>
	<path class="s20" d="m364.2 240.4c0 2.6 1.3 3.8 3 3.8 1.1 0 1.9-0.6 2.5-1.3l0.2 1.1h1.1v-11.6l-1.4 0.3v3.9c-0.5-0.2-1.2-0.3-2-0.3-1.8 0-3.4 1.3-3.4 4.1zm1.4-0.1c0-1.9 0.9-2.8 2.1-2.8 0.8 0 1.3 0.1 1.9 0.4v3.7c-0.6 0.8-1.3 1.3-2.2 1.3-1 0-1.8-0.9-1.8-2.6z"/>
	<path class="s20" d="m383.5 240c0-2.6-1.3-3.8-3-3.8-1.1 0-1.9 0.6-2.4 1.3l-0.2-1.1h-1.2v10.6l1.5-0.2v-3c0.4 0.2 1.1 0.3 1.9 0.3 1.8 0 3.4-1.3 3.4-4.1zm-1.4 0c0 1.9-0.9 2.9-2.1 2.9-0.8 0-1.3-0.1-1.8-0.4v-3.7c0.6-0.8 1.2-1.3 2.1-1.3 1.1 0 1.8 0.9 1.8 2.5z"/>
	<path class="s20" d="m386.9 244v-11.6l-1.4 0.3v11.3z"/>
	<path class="s20" d="m395.4 243.1l-0.2-1.2c-0.8 0.6-1.6 1-2.7 1-1.4 0-2.2-0.8-2.3-2.6h5.2v-0.3c0-2.1-1-3.8-3.2-3.8-1.9 0-3.4 1.5-3.4 4 0 2.8 1.6 4 3.5 4 1.3 0 2.3-0.4 3.1-1.1zm-3.2-5.8c1.1 0 1.6 0.7 1.8 2h-3.7c0.2-1.3 1-2 1.9-2z"/>
	<path class="s20" d="m403 244v-5.3c0-1.7-0.9-2.5-2.7-2.5-1.2 0-2.1 0.3-3 0.6l0.2 1.3c0.8-0.4 1.7-0.7 2.6-0.7 0.9 0 1.5 0.4 1.5 1.3v0.3c-3.2 0.4-4.8 1.1-4.8 3 0 1.3 0.8 2.2 2.2 2.2 1.3 0 2.1-0.6 2.7-1.2l0.2 1zm-1.5-2.1c-0.6 0.7-1.4 1.1-2.2 1.1-0.8 0-1.2-0.4-1.2-1 0-0.8 0.6-1.6 3.4-1.9z"/>
	<path class="s20" d="m410.5 241.9c0-1.5-0.8-2-2.7-2.5-1.2-0.3-1.6-0.6-1.6-1.1 0-0.6 0.5-0.9 1.3-0.9 0.8 0 1.7 0.3 2.4 0.7l0.2-1.4c-0.7-0.3-1.6-0.5-2.5-0.5-1.7 0-2.7 0.9-2.7 2.1 0 1.4 0.7 1.9 2.5 2.4 1.4 0.3 1.8 0.6 1.8 1.3 0 0.6-0.6 1-1.6 1-1 0-1.9-0.4-2.6-0.9l-0.2 1.3c0.6 0.4 1.7 0.8 2.7 0.8 2 0 3-0.9 3-2.3z"/>
	<path class="s20" d="m418.5 243.1l-0.3-1.2c-0.8 0.6-1.6 1-2.7 1-1.3 0-2.2-0.8-2.2-2.6h5.2v-0.3c0-2.1-1.1-3.8-3.3-3.8-1.9 0-3.3 1.5-3.3 4 0 2.8 1.5 4 3.5 4 1.3 0 2.2-0.4 3.1-1.1zm-3.3-5.8c1.1 0 1.7 0.7 1.8 2h-3.7c0.3-1.3 1-2 1.9-2z"/>
	<path class="s31" d="m349.5 165.4l-0.3-1.9c-0.9 0.6-1.8 1-2.8 1-2 0-3.2-1.5-3.2-3.9 0-2.4 1.2-3.9 3.2-3.9 1 0 1.9 0.5 2.6 1l0.3-2c-0.8-0.5-1.8-0.8-3-0.8-3.2 0-5.3 2.3-5.3 5.7 0 3.5 2 5.7 5.2 5.7 1.3 0 2.4-0.4 3.3-0.9z"/>
	<path class="s31" d="m357.2 166.1v-5.3c0-1.8-1-2.6-3-2.6-1.2 0-2.1 0.3-3 0.7l0.2 1.5c0.8-0.4 1.7-0.6 2.6-0.6 0.8 0 1.3 0.3 1.3 1.1v0.3c-3.1 0.3-4.6 1.1-4.6 2.9 0 1.4 0.8 2.2 2.2 2.2 1.1 0 1.9-0.5 2.5-1.2l0.2 1zm-1.9-2.1c-0.6 0.5-1.2 0.8-1.8 0.8-0.6 0-1-0.3-1-0.9 0-0.7 0.5-1.4 2.8-1.6z"/>
	<path class="s31" d="m366.2 162c0-2.5-1.3-3.8-2.9-3.8-1.1 0-1.8 0.6-2.4 1.3l-0.1-1.1h-1.7v10.7l2-0.3v-2.9c0.4 0.2 1 0.3 1.8 0.3 1.7 0 3.3-1.3 3.3-4.2zm-1.9 0.2c0 1.7-0.8 2.5-1.8 2.5-0.6 0-1-0.1-1.4-0.4v-3.3c0.5-0.6 1-1.1 1.7-1.1 0.9 0 1.5 0.8 1.5 2.3z"/>
	<path class="s19" d="m376.7 159.7l-0.2-1.1h-6.3v1.1h2.7v7.2h1.1v-7.2z"/>
	<path class="s19" d="m381.5 164.1c0-1.9-1.2-3-2.7-3-1.5 0-2.6 1.1-2.6 3 0 1.8 1.1 2.9 2.6 2.9 1.5 0 2.7-1.1 2.7-2.9zm-1.1 0c0 1.2-0.6 2.1-1.6 2.1-1 0-1.6-1-1.6-2.1 0-1.2 0.6-2.1 1.6-2.1 1 0 1.6 0.9 1.6 2.1z"/>
	<path class="s19" d="m382.5 164.2c0 1.9 1 2.8 2.2 2.8 0.9 0 1.5-0.4 1.9-0.9l0.1 0.8h0.9v-8.6l-1.1 0.1v3c-0.3-0.2-0.9-0.3-1.4-0.3-1.4 0-2.6 1-2.6 3.1zm1.1 0c0-1.4 0.6-2.2 1.5-2.2 0.6 0 1 0.1 1.4 0.3v2.8c-0.4 0.6-0.9 1-1.6 1-0.8 0-1.3-0.7-1.3-1.9z"/>
	<path class="s19" d="m393.6 166.9v-4c0-1.3-0.7-1.8-2.1-1.8-0.9 0-1.5 0.2-2.2 0.5l0.2 0.9c0.6-0.3 1.2-0.5 1.9-0.5 0.7 0 1.1 0.2 1.1 1v0.2c-2.4 0.3-3.6 0.8-3.6 2.2 0 1 0.7 1.6 1.7 1.6 0.9 0 1.6-0.4 2-0.8l0.1 0.7zm-1-1.6c-0.5 0.5-1.1 0.9-1.7 0.9-0.6 0-0.9-0.3-0.9-0.8 0-0.6 0.5-1.2 2.6-1.4z"/>
	<path class="s19" d="m395.6 169.1c0.8 0 1.4-0.3 1.9-1.6l2.3-6.3h-1.1l-1.5 4.4-1.5-4.5-1.1 0.2 2.1 5.6-0.2 0.4c-0.2 0.6-0.5 0.9-1 0.9-0.2 0-0.4-0.1-0.6-0.1l0.2 1c0.1 0 0.2 0 0.5 0z"/>
	<path class="s19" d="m407.9 166.9v-4c0-1.3-0.7-1.8-2-1.8-0.9 0-1.6 0.2-2.3 0.5l0.2 0.9c0.6-0.3 1.3-0.5 2-0.5 0.6 0 1.1 0.2 1.1 1v0.2c-2.4 0.3-3.7 0.8-3.7 2.2 0 1 0.7 1.6 1.7 1.6 1 0 1.6-0.4 2-0.8l0.2 0.7zm-1.1-1.6c-0.5 0.5-1.1 0.9-1.7 0.9-0.6 0-0.9-0.3-0.9-0.8 0-0.6 0.5-1.2 2.6-1.4z"/>
	<path class="s19" d="m412.3 166.9l-0.1-0.9q-0.2 0.1-0.5 0.1c-0.6 0-0.8-0.3-0.8-0.8v-3.2h1.4l-0.2-0.9h-1.2v-2.1l-1 0.2v1.9h-0.9v0.9h0.9v3.4c0 1.2 0.6 1.5 1.6 1.5q0.6 0 0.8-0.1z"/>
	<path class="s19" d="m417.1 167.1c2.6-0.6 4.5-2.2 4.5-5 0-2.3-1.2-3.4-2.9-3.4-1.7 0-2.8 1.1-2.8 2.6 0 1.6 0.9 2.6 2.5 2.6 0.8 0 1.4-0.3 2-0.6-0.4 1.6-1.8 2.5-3.5 2.8zm1.6-4.1c-1.2 0-1.7-0.6-1.7-1.7 0-1 0.7-1.7 1.7-1.7 1.1 0 1.9 1 1.9 2.6v0.1c-0.6 0.4-1.2 0.7-1.9 0.7z"/>
	<path class="s19" d="m424.2 162.6v-1.4h-1.2v1.4zm0 4.3v-1.4h-1.2v1.4z"/>
	<path class="s19" d="m428.2 166.9v-8.1h-1l-1.9 0.9 0.1 0.8 1.7-0.6v7z"/>
	<path class="s19" d="m431 167.1c2.6-0.6 4.5-2.2 4.5-5 0-2.3-1.2-3.4-2.9-3.4-1.7 0-2.8 1.1-2.8 2.6 0 1.6 0.9 2.6 2.5 2.6 0.8 0 1.4-0.3 2-0.6-0.4 1.6-1.8 2.5-3.5 2.8zm1.6-4.1c-1.2 0-1.7-0.6-1.7-1.7 0-1 0.7-1.7 1.7-1.7 1.1 0 1.9 1 1.9 2.6v0.1c-0.6 0.4-1.2 0.7-1.9 0.7z"/>
	<path class="s19" d="m445.5 167l1.1-0.2-3.2-8.2h-1.1l-3.2 8.3h1.2l0.9-2.5h3.3zm-2.6-7l1.3 3.5h-2.6z"/>
	<path class="s19" d="m457 166.9l-0.6-8.3h-1.4l-2.6 6.8-2.6-6.8h-1.4l-0.6 8.3h1l0.5-6.7 2.6 6.8h0.9l2.6-6.8 0.5 6.7z"/>
	<path class="s20" d="m342.9 188v-11h-1.5v11z"/>
	<path class="s20" d="m355.2 188v-5.6c0-1.3-0.7-2.2-2.2-2.2-1.1 0-2 0.6-2.7 1.3l-0.2-1.1h-1.1v7.6h1.4v-5.3c0.7-0.7 1.5-1.2 2.2-1.2 0.9 0 1.2 0.5 1.2 1.3v5.2z"/>
	<path class="s20" d="m363.6 187.1l-0.2-1.2c-0.8 0.6-1.6 1-2.8 1-1.3 0-2.1-0.8-2.2-2.6h5.2v-0.3c0-2.1-1-3.8-3.2-3.8-2 0-3.4 1.5-3.4 4 0 2.8 1.6 4 3.5 4 1.3 0 2.3-0.4 3.1-1.1zm-3.3-5.8c1.1 0 1.7 0.7 1.9 2h-3.7c0.2-1.3 1-2 1.8-2z"/>
	<path class="s20" d="m371.6 187.1l-0.2-1.2c-0.9 0.6-1.7 1-2.8 1-1.3 0-2.1-0.8-2.2-2.6h5.2v-0.3c0-2.1-1-3.8-3.3-3.8-1.9 0-3.3 1.5-3.3 4 0 2.8 1.5 4 3.5 4 1.3 0 2.3-0.4 3.1-1.1zm-3.3-5.8c1.1 0 1.7 0.7 1.9 2h-3.7c0.2-1.3 0.9-2 1.8-2z"/>
	<path class="s20" d="m373 184.4c0 2.6 1.3 3.8 3 3.8 1.1 0 1.9-0.6 2.5-1.3l0.1 1.1h1.2v-11.6l-1.5 0.3v3.9c-0.4-0.2-1.1-0.3-1.9-0.3-1.8 0-3.4 1.3-3.4 4.1zm1.4-0.1c0-1.9 0.9-2.8 2.1-2.8 0.8 0 1.3 0.1 1.8 0.4v3.7c-0.6 0.8-1.2 1.3-2.1 1.3-1 0-1.8-0.9-1.8-2.6z"/>
	<path class="s20" d="m389.2 188l-0.2-1.2q-0.3 0.1-0.7 0.1c-0.8 0-1-0.4-1-1v-4.3h1.8l-0.2-1.2h-1.6v-2.8l-1.4 0.2v2.6h-1.2v1.2h1.2v4.5c0 1.5 0.9 2 2.2 2 0.5 0 0.8 0 1.1-0.1z"/>
	<path class="s20" d="m397.1 188v-5.6c0-1.3-0.7-2.2-2.2-2.2-1.1 0-1.9 0.6-2.6 1.2v-5l-1.4 0.3v11.3h1.4v-5.3c0.7-0.7 1.5-1.2 2.2-1.2 0.9 0 1.2 0.5 1.2 1.3v5.2z"/>
	<path class="s20" d="m405.5 187.1l-0.2-1.2c-0.8 0.6-1.6 1-2.7 1-1.4 0-2.2-0.8-2.3-2.6h5.2v-0.3c0-2.1-1-3.8-3.2-3.8-1.9 0-3.4 1.5-3.4 4 0 2.8 1.6 4 3.6 4 1.2 0 2.2-0.4 3-1.1zm-3.2-5.8c1.1 0 1.6 0.7 1.8 2h-3.7c0.2-1.3 1-2 1.9-2z"/>
	<path class="s20" d="m418.2 188v-5.6c0-1.3-0.7-2.2-2.2-2.2-1.1 0-2 0.6-2.7 1.3-0.3-0.8-0.9-1.3-2-1.3-1.1 0-1.9 0.6-2.6 1.3l-0.2-1.1h-1.2v7.6h1.5v-5.3c0.7-0.7 1.4-1.2 2.1-1.2 0.9 0 1.1 0.5 1.1 1.3v5.2h1.5v-5.3c0.7-0.7 1.4-1.2 2.1-1.2 0.9 0 1.1 0.5 1.1 1.3v5.2z"/>
	<path class="s20" d="m427.6 188l-0.2-1.2q-0.3 0.1-0.7 0.1c-0.8 0-1-0.4-1-1v-4.3h1.8l-0.2-1.2h-1.6v-2.8l-1.4 0.2v2.6h-1.2v1.2h1.2v4.5c0 1.5 0.8 2 2.2 2 0.5 0 0.8 0 1.1-0.1z"/>
	<path class="s20" d="m435.9 184.2c0-2.5-1.6-4-3.6-4-2 0-3.5 1.5-3.5 4 0 2.5 1.5 4 3.5 4 2 0 3.6-1.5 3.6-4zm-1.5 0c0 1.6-0.7 2.8-2.1 2.8-1.3 0-2.1-1.2-2.1-2.8 0-1.6 0.7-2.8 2.1-2.8 1.4 0 2.1 1.2 2.1 2.8z"/>
	<path class="s20" d="m444.3 184.2c0-2.5-1.5-4-3.6-4-2 0-3.5 1.5-3.5 4 0 2.5 1.5 4 3.5 4 2.1 0 3.6-1.5 3.6-4zm-1.4 0c0 1.6-0.8 2.8-2.2 2.8-1.3 0-2-1.2-2-2.8 0-1.6 0.7-2.8 2-2.8 1.4 0 2.2 1.2 2.2 2.8z"/>
	<path class="s20" d="m448 177h-1.7l0.4 7.7 0.9-0.2zm0 11.1v-2h-1.6v2z"/>
	<path class="s32" d="m350.4 89.4v-5.3h-4.5l0.3 1.7h2.2v2.5c-0.5 0.3-1 0.4-1.8 0.4-2.2 0-3.4-1.5-3.4-3.9 0-2.4 1.1-3.9 3.3-3.9 1.2 0 2.2 0.4 3 1l0.3-1.9c-0.8-0.6-1.9-0.9-3.3-0.9-3.4 0-5.4 2.3-5.4 5.7 0 3.4 1.9 5.7 5.4 5.7 1.5 0 2.8-0.4 3.9-1.1z"/>
	<path class="s32" d="m357 84.3l-0.3-1.9c-1.2 0.1-2 0.8-2.5 1.7l-0.2-1.5h-1.7v7.7h2v-4.4c0.5-0.8 1.5-1.5 2.7-1.6z"/>
	<path class="s32" d="m364.1 90.3v-5.3c0-1.8-1-2.6-3-2.6-1.2 0-2.2 0.3-3.1 0.7l0.3 1.5c0.8-0.4 1.6-0.6 2.5-0.6 0.9 0 1.4 0.3 1.4 1.1v0.2c-3.2 0.3-4.7 1.2-4.7 3 0 1.4 0.9 2.2 2.2 2.2 1.2 0 2-0.5 2.6-1.2l0.1 1zm-1.9-2.1c-0.5 0.5-1.1 0.8-1.8 0.8-0.6 0-0.9-0.3-0.9-0.9 0-0.7 0.5-1.4 2.7-1.6z"/>
	<path class="s32" d="m372.9 90.6c0-1.1-1-1.6-2.6-1.9l-0.9-0.1c-1.3-0.1-1.5-0.2-1.5-0.5 0-0.1 0.1-0.2 0.3-0.4q0.3 0.1 0.7 0.1c1.6 0 3-1 3-2.7q0-0.5-0.2-1l1.4-0.1-0.2-1.5-1.9 0.7q-0.8-0.8-2.2-0.8c-1.7 0-3.1 1.1-3.1 2.8 0 1 0.5 1.8 1.5 2.2q-1 0.6-1 1.3 0 0.4 0.4 0.8c-0.9 0.5-1.4 1.1-1.4 1.8 0 1.3 1.6 1.9 3.7 1.9 2.2 0 4-0.9 4-2.6zm-2.7-5.5c0 0.9-0.5 1.5-1.4 1.5-0.8 0-1.3-0.6-1.3-1.4 0-0.9 0.5-1.5 1.3-1.5 0.8 0 1.4 0.6 1.4 1.4zm-1.2 7c-1.5 0-2.2-0.4-2.2-1 0-0.4 0.3-0.8 0.9-1.2 0.3 0.1 0.6 0.2 1.1 0.2l1 0.2c1 0.1 1.3 0.3 1.3 0.8 0 0.5-0.7 1-2.1 1z"/>
	<path class="s32" d="m381.2 90.6c0-1.1-1-1.6-2.6-1.9l-1-0.1c-1.2-0.1-1.4-0.2-1.4-0.5 0-0.1 0.1-0.2 0.3-0.4q0.3 0.1 0.7 0.1c1.6 0 3-1 3-2.7q0-0.5-0.2-1l1.4-0.1-0.2-1.5-1.9 0.7q-0.8-0.8-2.2-0.8c-1.7 0-3.1 1.1-3.1 2.8 0 1 0.5 1.8 1.5 2.2q-1 0.6-1 1.3 0 0.4 0.4 0.8c-0.9 0.5-1.4 1.1-1.4 1.8 0 1.3 1.6 1.9 3.7 1.9 2.2 0 4-0.9 4-2.6zm-2.7-5.5c0 0.9-0.5 1.5-1.4 1.5-0.8 0-1.3-0.6-1.3-1.4 0-0.9 0.5-1.5 1.3-1.5 0.8 0 1.4 0.6 1.4 1.4zm-1.2 7c-1.5 0-2.2-0.4-2.2-1 0-0.4 0.3-0.8 0.9-1.2 0.3 0.1 0.6 0.2 1.1 0.2l1 0.2c1 0.1 1.3 0.3 1.3 0.8 0 0.5-0.7 1-2.1 1z"/>
	<path class="s32" d="m384.6 90.3v-11.5l-1.9 0.3v11.2z"/>
	<path class="s32" d="m393.1 89.5l-0.2-1.5c-0.9 0.6-1.7 1-2.7 1-1.2 0-2-0.7-2.1-2.2h5c0-0.1 0-0.3 0-0.4 0-2.2-1-4-3.4-4-2 0-3.5 1.6-3.5 4.1 0 2.7 1.6 4 3.8 4 1.2 0 2.2-0.4 3.1-1zm-3.4-5.7c0.9 0 1.4 0.6 1.5 1.8h-3.1c0.2-1.2 0.8-1.8 1.6-1.8z"/>
	<path class="s19" d="m403.6 83.8l-0.2-1h-6.3v1h2.6v7.2h1.2v-7.2z"/>
	<path class="s19" d="m408.3 88.2c0-1.9-1.1-3-2.6-3-1.6 0-2.7 1.1-2.7 3 0 1.9 1.1 3 2.7 3 1.5 0 2.6-1.1 2.6-3zm-1.1 0c0 1.2-0.5 2.1-1.5 2.1-1.1 0-1.6-0.9-1.6-2.1 0-1.2 0.5-2.1 1.6-2.1 1 0 1.5 0.9 1.5 2.1z"/>
	<path class="s19" d="m409.4 88.3c0 2 1 2.9 2.2 2.9 0.9 0 1.4-0.5 1.9-1l0.1 0.8h0.9v-8.6l-1.1 0.2v2.9c-0.4-0.1-0.9-0.2-1.5-0.2-1.3 0-2.5 1-2.5 3zm1 0c0-1.4 0.7-2.1 1.6-2.1 0.6 0 0.9 0 1.4 0.3v2.7c-0.5 0.6-1 1-1.6 1-0.8 0-1.4-0.6-1.4-1.9z"/>
	<path class="s19" d="m420.5 91v-4c0-1.2-0.7-1.8-2.1-1.8-0.9 0-1.5 0.2-2.2 0.5l0.1 0.9c0.7-0.3 1.3-0.5 2-0.5 0.7 0 1.1 0.3 1.1 1v0.2c-2.4 0.3-3.6 0.8-3.6 2.3 0 0.9 0.6 1.6 1.7 1.6 0.9 0 1.5-0.5 2-0.9l0.1 0.7zm-1.1-1.5c-0.4 0.5-1 0.8-1.7 0.8-0.5 0-0.8-0.3-0.8-0.8 0-0.6 0.4-1.2 2.5-1.4z"/>
	<path class="s19" d="m422.4 93.2c0.9 0 1.5-0.3 2-1.6l2.3-6.3h-1.1l-1.5 4.5-1.6-4.6-1 0.2 2.1 5.7-0.2 0.4c-0.2 0.6-0.5 0.8-1 0.8-0.2 0-0.4 0-0.6-0.1l0.2 1c0.1 0 0.2 0 0.4 0z"/>
	<path class="s19" d="m434.8 91v-4c0-1.2-0.7-1.8-2.1-1.8-0.9 0-1.5 0.2-2.2 0.5l0.1 0.9c0.7-0.3 1.3-0.5 2-0.5 0.7 0 1.1 0.3 1.1 1v0.2c-2.4 0.3-3.6 0.8-3.6 2.3 0 0.9 0.7 1.6 1.7 1.6 0.9 0 1.5-0.5 2-0.9l0.1 0.7zm-1-1.5c-0.5 0.5-1.1 0.8-1.7 0.8-0.6 0-0.9-0.3-0.9-0.8 0-0.6 0.4-1.2 2.6-1.4z"/>
	<path class="s19" d="m439.2 91.1l-0.2-0.9q-0.2 0-0.4 0c-0.6 0-0.8-0.3-0.8-0.8v-3.2h1.3l-0.1-0.9h-1.2v-2l-1.1 0.1v1.9h-0.8v0.9h0.8v3.4c0 1.2 0.7 1.5 1.7 1.5q0.5 0 0.8 0z"/>
	<path class="s19" d="m444 91.2c2.6-0.6 4.5-2.2 4.5-5 0-2.2-1.3-3.4-3-3.4-1.6 0-2.8 1.1-2.8 2.7 0 1.5 1 2.5 2.6 2.5 0.7 0 1.4-0.2 2-0.6-0.4 1.7-1.8 2.5-3.5 2.8zm1.5-4.1c-1.1 0-1.6-0.6-1.6-1.6 0-1.1 0.6-1.7 1.6-1.7 1.2 0 2 1 2 2.5v0.1c-0.6 0.5-1.2 0.7-2 0.7z"/>
	<path class="s19" d="m451.1 86.8v-1.5h-1.2v1.5zm0 4.2v-1.4h-1.2v1.4z"/>
	<path class="s19" d="m455 91v-8.1h-0.9l-1.9 0.9 0.1 0.9 1.7-0.7v7z"/>
	<path class="s19" d="m459.6 91.2c1.8 0 2.9-1 2.9-2.2 0-1.1-0.7-1.7-1.7-2.2 0.8-0.5 1.4-1.1 1.4-2 0-1.2-1-2-2.6-2-1.5 0-2.6 0.8-2.6 2 0 0.9 0.4 1.5 1.4 2-1 0.5-1.7 1.2-1.7 2.2 0 1.2 1 2.2 2.9 2.2zm-1.5-6.4c0-0.6 0.6-1.1 1.5-1.1 1 0 1.5 0.5 1.5 1.2 0 0.6-0.5 1.1-1.2 1.5-1.3-0.5-1.8-0.9-1.8-1.6zm1.5 5.5c-1.1 0-1.8-0.6-1.8-1.4 0-0.7 0.6-1.3 1.5-1.7 1.6 0.5 2.1 0.9 2.1 1.8 0 0.7-0.7 1.3-1.8 1.3z"/>
	<path class="s19" d="m472.4 91.1l1.1-0.2-3.1-8.2h-1.2l-3.2 8.3h1.2l0.9-2.4h3.4zm-2.7-7.1l1.3 3.5h-2.6z"/>
	<path class="s19" d="m483.9 91l-0.6-8.2h-1.4l-2.6 6.8-2.6-6.8h-1.4l-0.6 8.2h1l0.5-6.6 2.6 6.7h0.9l2.6-6.7 0.5 6.6z"/>
	<path class="s20" d="m355.7 101h-1.6l-2.4 8.6-2.8-8.6h-1.5l-2.8 8.6-2.5-8.8-1.5 0.4 3.3 10.8h1.2l3-8.9 3 8.9h1.3z"/>
	<path class="s20" d="m363.6 112v-5.6c0-1.3-0.8-2.2-2.2-2.2-1.1 0-2 0.6-2.6 1.2v-5l-1.4 0.3v11.3h1.4v-5.3c0.7-0.7 1.5-1.2 2.2-1.2 0.9 0 1.2 0.5 1.2 1.3v5.2z"/>
	<path class="s20" d="m372.4 108.2c0-2.5-1.5-4-3.5-4-2 0-3.5 1.5-3.5 4 0 2.5 1.5 4 3.5 4 2 0 3.5-1.5 3.5-4zm-1.4 0c0 1.6-0.7 2.8-2.1 2.8-1.3 0-2.1-1.2-2.1-2.8 0-1.6 0.7-2.8 2.1-2.8 1.4 0 2.1 1.2 2.1 2.8z"/>
	<path class="s20" d="m375.9 101h-1.6l-0.5 3.5 0.8 0.2z"/>
	<path class="s20" d="m382.6 109.9c0-1.5-0.9-2-2.8-2.5-1.2-0.3-1.5-0.6-1.5-1.1 0-0.6 0.4-0.9 1.3-0.9 0.8 0 1.6 0.3 2.3 0.7l0.2-1.4c-0.7-0.3-1.6-0.5-2.5-0.5-1.7 0-2.7 0.9-2.7 2.1 0 1.4 0.7 1.9 2.5 2.4 1.4 0.3 1.8 0.6 1.8 1.3 0 0.6-0.5 1-1.5 1-1.1 0-2-0.4-2.7-0.9l-0.2 1.3c0.6 0.4 1.8 0.8 2.8 0.8 1.9 0 3-0.9 3-2.3z"/>
	<path class="s20" d="m394.3 112.6c0-1.2-1-1.7-2.6-2l-0.6-0.1c-1.3-0.3-1.6-0.3-1.6-0.6 0-0.1 0.2-0.3 0.4-0.5q0.3 0.1 0.6 0.1c1.5 0 2.9-1 2.9-2.6q0-0.7-0.3-1.2l1.4-0.2-0.2-1.2-1.9 0.5q-0.8-0.6-2-0.6c-1.5 0-2.9 1-2.9 2.7 0 1 0.6 1.8 1.4 2.2-0.5 0.3-0.8 0.7-0.8 1.1q0 0.4 0.5 0.8c-1.1 0.6-1.6 1.2-1.6 1.9 0 1.4 1.6 2 3.6 2 1.9 0 3.7-0.7 3.7-2.3zm-2.3-5.8c0 1-0.6 1.7-1.6 1.7-0.9 0-1.5-0.7-1.5-1.6 0-0.9 0.6-1.7 1.5-1.7 1 0 1.6 0.7 1.6 1.6zm-1.4 7.1c-1.5 0-2.2-0.5-2.2-1.1 0-0.5 0.4-0.9 1.2-1.4 0.4 0.1 0.6 0.1 1 0.2l0.9 0.2c1.1 0.2 1.4 0.5 1.4 0.9 0 0.7-0.8 1.2-2.3 1.2z"/>
	<path class="s20" d="m402.4 108.2c0-2.5-1.5-4-3.6-4-2 0-3.5 1.5-3.5 4 0 2.5 1.5 4 3.5 4 2.1 0 3.6-1.5 3.6-4zm-1.4 0c0 1.6-0.7 2.8-2.2 2.8-1.3 0-2-1.2-2-2.8 0-1.6 0.7-2.8 2-2.8 1.4 0 2.2 1.2 2.2 2.8z"/>
	<path class="s20" d="m407.9 112l-0.2-1.2q-0.3 0.1-0.7 0.1c-0.8 0-1-0.4-1-1v-4.3h1.8l-0.2-1.2h-1.6v-2.8l-1.4 0.2v2.6h-1.2v1.2h1.2v4.5c0 1.5 0.9 2 2.2 2 0.5 0 0.8 0 1.1-0.1z"/>
	<path class="s20" d="m419.3 112v-5.6c0-1.3-0.7-2.2-2.2-2.2-1.1 0-1.9 0.6-2.7 1.3l-0.1-1.1h-1.2v7.6h1.4v-5.3c0.7-0.7 1.5-1.2 2.3-1.2 0.8 0 1.1 0.5 1.1 1.3v5.2z"/>
	<path class="s20" d="m428.2 108.2c0-2.5-1.5-4-3.6-4-2 0-3.5 1.5-3.5 4 0 2.5 1.5 4 3.5 4 2.1 0 3.6-1.5 3.6-4zm-1.5 0c0 1.6-0.7 2.8-2.1 2.8-1.3 0-2-1.2-2-2.8 0-1.6 0.7-2.8 2-2.8 1.4 0 2.1 1.2 2.1 2.8z"/>
	<path class="s20" d="m433.7 112l-0.2-1.2q-0.3 0.1-0.7 0.1c-0.8 0-1-0.4-1-1v-4.3h1.8l-0.2-1.2h-1.6v-2.8l-1.4 0.2v2.6h-1.2v1.2h1.2v4.5c0 1.5 0.8 2 2.2 2 0.5 0 0.8 0 1.1-0.1z"/>
	<path class="s20" d="m441.5 111.1l-0.2-1.2c-0.9 0.6-1.7 1-2.8 1-1.3 0-2.1-0.8-2.2-2.6h5.2v-0.3c0-2.1-1-3.8-3.2-3.8-2 0-3.4 1.5-3.4 4 0 2.8 1.5 4 3.5 4 1.3 0 2.3-0.4 3.1-1.1zm-3.3-5.8c1.1 0 1.7 0.7 1.9 2h-3.7c0.2-1.3 1-2 1.8-2z"/>
	<path class="s20" d="m448.6 109.9c0-1.5-0.8-2-2.7-2.5-1.2-0.3-1.6-0.6-1.6-1.1 0-0.6 0.5-0.9 1.3-0.9 0.8 0 1.7 0.3 2.3 0.7l0.3-1.4c-0.7-0.3-1.6-0.5-2.5-0.5-1.7 0-2.7 0.9-2.7 2.1 0 1.4 0.7 1.9 2.5 2.4 1.4 0.3 1.8 0.6 1.8 1.3 0 0.6-0.6 1-1.6 1-1 0-1.9-0.4-2.6-0.9l-0.3 1.3c0.7 0.4 1.8 0.8 2.8 0.8 2 0 3-0.9 3-2.3z"/>
	<path class="s20" d="m457.5 101.9l-0.2-1.3q-0.3-0.1-0.6-0.1c-1.4 0-2.4 0.6-2.4 2.1v1.8h-1.1v1.2h1.1v6.4h1.4v-6.4h1.7l-0.1-1.2h-1.6v-1.6c0-0.7 0.4-1 1.1-1 0.3 0 0.6 0 0.7 0.1z"/>
	<path class="s20" d="m463.1 105.6l-0.2-1.4c-1.2 0.1-2.1 0.9-2.7 1.7l-0.2-1.5h-1.1v7.6h1.4v-4.5c0.5-1 1.6-1.9 2.8-1.9z"/>
	<path class="s20" d="m470.9 108.2c0-2.5-1.5-4-3.5-4-2 0-3.5 1.5-3.5 4 0 2.5 1.5 4 3.5 4 2 0 3.5-1.5 3.5-4zm-1.4 0c0 1.6-0.7 2.8-2.1 2.8-1.3 0-2.1-1.2-2.1-2.8 0-1.6 0.7-2.8 2.1-2.8 1.4 0 2.1 1.2 2.1 2.8z"/>
	<path class="s20" d="m483.6 112v-5.6c0-1.3-0.7-2.2-2.2-2.2-1 0-2 0.6-2.7 1.3-0.2-0.8-0.9-1.3-2-1.3-1 0-1.9 0.6-2.6 1.3l-0.2-1.1h-1.1v7.6h1.4v-5.3c0.7-0.7 1.4-1.2 2.1-1.2 0.9 0 1.2 0.5 1.2 1.3v5.2h1.4v-5.3c0.7-0.7 1.4-1.2 2.1-1.2 0.9 0 1.2 0.5 1.2 1.3v5.2z"/>
	<path class="s20" d="m347.3 132v-5.6c0-1.3-0.7-2.2-2.2-2.2-1.1 0-1.9 0.6-2.6 1.2v-5l-1.4 0.3v11.3h1.4v-5.3c0.7-0.7 1.5-1.2 2.3-1.2 0.8 0 1.1 0.5 1.1 1.3v5.2z"/>
	<path class="s20" d="m351.3 121.9c0-0.5-0.4-0.9-0.9-0.9-0.5 0-0.9 0.4-0.9 0.9 0 0.5 0.4 0.9 0.9 0.9 0.5 0 0.9-0.4 0.9-0.9zm-0.2 10.1v-7.6h-1.4v7.6z"/>
	<path class="s20" d="m358.8 129.9c0-1.5-0.9-2-2.8-2.5-1.2-0.3-1.5-0.6-1.5-1.1 0-0.6 0.4-0.9 1.3-0.9 0.8 0 1.6 0.3 2.3 0.7l0.2-1.4c-0.7-0.3-1.6-0.5-2.5-0.5-1.7 0-2.7 0.9-2.7 2.1 0 1.4 0.7 1.9 2.5 2.4 1.4 0.3 1.8 0.6 1.8 1.3 0 0.6-0.5 1-1.5 1-1.1 0-2-0.4-2.7-0.9l-0.2 1.3c0.6 0.4 1.8 0.8 2.8 0.8 1.9 0 3-0.9 3-2.3z"/>
	<path class="s20" d="m364.2 132l-0.2-1.2q-0.3 0.1-0.7 0.1c-0.8 0-1-0.4-1-1v-4.3h1.8l-0.2-1.2h-1.6v-2.8l-1.4 0.2v2.6h-1.2v1.2h1.2v4.5c0 1.5 0.9 2 2.2 2 0.5 0 0.8 0 1.1-0.1z"/>
	<path class="s20" d="m372.5 128.2c0-2.5-1.5-4-3.6-4-2 0-3.5 1.5-3.5 4 0 2.5 1.5 4 3.5 4 2.1 0 3.6-1.5 3.6-4zm-1.5 0c0 1.6-0.7 2.8-2.1 2.8-1.3 0-2-1.2-2-2.8 0-1.6 0.7-2.8 2-2.8 1.4 0 2.1 1.2 2.1 2.8z"/>
	<path class="s20" d="m378.6 125.6l-0.3-1.4c-1.2 0.1-2.1 0.9-2.6 1.7l-0.3-1.5h-1.1v7.6h1.4v-4.5c0.5-1 1.6-1.9 2.9-1.9z"/>
	<path class="s20" d="m380.6 134.9c1.1 0 1.9-0.4 2.5-2.1l3.2-8.4h-1.5l-2 5.9-2.1-6-1.4 0.2 2.8 7.5-0.2 0.5c-0.3 0.9-0.8 1.2-1.4 1.2-0.2 0-0.5-0.1-0.7-0.1l0.2 1.2c0.1 0.1 0.3 0.1 0.6 0.1z"/>
	<path class="s20" d="m394.9 132l-0.2-1.2q-0.2 0.1-0.6 0.1c-0.8 0-1.1-0.4-1.1-1v-4.3h1.9l-0.2-1.2h-1.7v-2.8l-1.4 0.2v2.6h-1.1v1.2h1.1v4.5c0 1.5 0.9 2 2.3 2 0.5 0 0.8 0 1-0.1z"/>
	<path class="s20" d="m403.2 128.2c0-2.5-1.5-4-3.5-4-2.1 0-3.5 1.5-3.5 4 0 2.5 1.4 4 3.5 4 2 0 3.5-1.5 3.5-4zm-1.4 0c0 1.6-0.7 2.8-2.1 2.8-1.4 0-2.1-1.2-2.1-2.8 0-1.6 0.7-2.8 2.1-2.8 1.4 0 2.1 1.2 2.1 2.8z"/>
	<path class="s20" d="m404.6 128.4c0 2.6 1.4 3.8 3 3.8 1.1 0 1.9-0.6 2.5-1.3l0.2 1.1h1.1v-11.6l-1.4 0.3v3.9c-0.5-0.2-1.2-0.3-1.9-0.3-1.9 0-3.5 1.3-3.5 4.1zm1.4-0.1c0-1.9 0.9-2.8 2.1-2.8 0.8 0 1.3 0.1 1.9 0.4v3.7c-0.6 0.8-1.3 1.3-2.2 1.3-1 0-1.8-0.9-1.8-2.6z"/>
	<path class="s20" d="m419.4 132v-5.3c0-1.7-0.9-2.5-2.7-2.5-1.2 0-2.1 0.3-3 0.6l0.2 1.3c0.8-0.4 1.7-0.7 2.6-0.7 0.9 0 1.5 0.4 1.5 1.3v0.3c-3.2 0.4-4.8 1.1-4.8 3 0 1.3 0.9 2.2 2.2 2.2 1.3 0 2.1-0.6 2.7-1.2l0.2 1zm-1.4-2.1c-0.7 0.7-1.5 1.1-2.3 1.1-0.7 0-1.2-0.4-1.2-1 0-0.8 0.6-1.6 3.5-1.9z"/>
	<path class="s20" d="m422 134.9c1.2 0 2-0.4 2.6-2.1l3.1-8.4h-1.5l-2 5.9-2-6-1.4 0.2 2.7 7.5-0.1 0.5c-0.4 0.9-0.8 1.2-1.4 1.2-0.2 0-0.5-0.1-0.8-0.1l0.2 1.2c0.2 0.1 0.3 0.1 0.6 0.1z"/>
	<path class="s20" d="m431.1 128.7l0.9-0.2 0.2-1.6c1.9-0.8 3-1.6 3-3.3 0-1.8-1.3-2.8-3.2-2.8-1.4 0-2.5 0.4-3.5 1.1l0.2 1.5c0.9-0.7 1.9-1.3 3.2-1.3 1 0 1.8 0.6 1.8 1.5 0 1.1-0.6 1.6-2.1 2.2l-0.7 0.3zm-0.3 3.3h1.6v-1.9h-1.6z"/>
	<path fill-rule="evenodd" class="s0" d="m25 67h175c4.4 0 8 3.6 8 8v32c0 4.4-3.6 8-8 8h-175c-4.4 0-8-3.6-8-8v-32c0-4.4 3.6-8 8-8z"/>
	<path fill-rule="evenodd" class="s1" d="m35.8 102.5c-0.3 0-0.6-0.3-0.5-0.6l0.7-4.1h-4.1c-0.3 0-0.5-0.2-0.5-0.6l0.3-1.3c0-0.2 0.2-0.4 0.5-0.4h4.2l1.2-7h-4c-0.3 0-0.6-0.3-0.5-0.6l0.2-1.3c0.1-0.3 0.3-0.4 0.5-0.4h4.3l0.7-4.3c0.1-0.2 0.3-0.4 0.5-0.4h1.3c0.3 0 0.6 0.3 0.5 0.6l-0.7 4.1h7l0.7-4.3c0.1-0.2 0.3-0.4 0.5-0.4h1.4c0.3 0 0.5 0.3 0.4 0.6l-0.7 4.1h4.1c0.3 0 0.5 0.2 0.5 0.6l-0.2 1.3c-0.1 0.2-0.3 0.4-0.5 0.4h-4.3l-1.2 7h4c0.4 0 0.6 0.3 0.5 0.6l-0.2 1.3c0 0.3-0.2 0.4-0.5 0.4h-4.2l-0.8 4.3c0 0.2-0.2 0.4-0.5 0.4h-1.3c-0.3 0-0.5-0.3-0.5-0.6l0.7-4.1h-7l-0.7 4.3c-0.1 0.2-0.3 0.4-0.5 0.4zm4.2-14l-1.2 7h7l1.2-7z"/>
	<path class="s2" d="m72.2 93.9c0-2-1.1-2.8-3.8-3.5-1.6-0.4-2-0.7-2-1.3 0-0.6 0.5-1 1.5-1 1 0 2.3 0.4 3.3 1l0.4-2.2c-1.1-0.5-2.3-0.7-3.7-0.7-2.5 0-3.9 1.3-3.9 3.1 0 1.9 1 2.7 3.6 3.3 1.7 0.5 2.2 0.8 2.2 1.5 0 0.7-0.6 1.1-1.8 1.1-1.3 0-2.7-0.5-3.9-1.2l-0.3 2.2c1 0.5 2.6 1 4.1 1 2.8 0 4.3-1.2 4.3-3.3z"/>
	<path class="s2" d="m80 97l-0.3-2.2q-0.4 0.1-0.9 0.1c-1 0-1.4-0.5-1.4-1.4v-5h2.5l-0.3-2.1h-2.2v-3.8l-2.6 0.4v3.4h-1.5v2.1h1.5v5.5c0 2.4 1.4 3.2 3.5 3.2 0.8 0 1.3-0.1 1.7-0.2z"/>
	<path class="s2" d="m81.9 86.4v7.6c0 2 1 3.2 3.1 3.2 1.4 0 2.5-0.8 3.5-1.7l0.2 1.5h2.3v-10.6h-2.7v7.1c-0.7 0.8-1.6 1.4-2.4 1.4-0.9 0-1.3-0.7-1.3-1.6v-6.9z"/>
	<path class="s2" d="m93.1 92c0 3.6 1.8 5.2 4 5.2 1.5 0 2.6-0.8 3.3-1.7l0.2 1.5h2.3v-15.9l-2.7 0.4v5.2c-0.6-0.3-1.4-0.4-2.4-0.4-2.5 0-4.7 1.7-4.7 5.7zm2.7-0.2c0-2.3 1-3.4 2.4-3.4 0.9 0 1.4 0.1 2 0.4v4.6c-0.7 0.9-1.4 1.5-2.4 1.5-1.1 0-2-1-2-3.1z"/>
	<path class="s2" d="m106.7 101c1.9 0 3.1-0.8 4-3.3l4.1-11.3h-2.7l-2.3 7.5-2.4-7.7-2.8 0.4 3.9 10.4-0.1 0.3c-0.4 1.1-1.1 1.5-2 1.5q-0.7 0-1.1-0.1l0.3 2.2c0.3 0.1 0.5 0.1 1.1 0.1z"/>
	<path class="s2" d="m121.6 91.9v-2.5h-5.7v2.5z"/>
	<path class="s2" d="m133.5 97.4c0-1.6-1.3-2.3-3.5-2.6l-1.4-0.1c-1.6-0.3-2-0.3-2-0.7 0-0.2 0.2-0.4 0.5-0.6q0.4 0.1 0.8 0.1c2.3 0 4.3-1.4 4.3-3.7 0-0.4-0.1-0.9-0.3-1.3l1.9-0.2-0.3-2.1-2.6 0.9c-0.8-0.6-1.8-0.9-3-0.9-2.4 0-4.3 1.4-4.3 3.7 0 1.4 0.8 2.5 2 3.1q-1.3 0.8-1.3 1.7 0 0.7 0.6 1.2c-1.3 0.7-2 1.5-2 2.5 0 1.7 2.2 2.6 5 2.6 3.1 0 5.6-1.3 5.6-3.6zm-3.7-7.6c0 1.2-0.7 2.1-1.9 2.1-1.1 0-1.8-0.9-1.8-2 0-1.2 0.6-2.1 1.8-2.1 1.1 0 1.9 0.9 1.9 2zm-1.7 9.6c-2 0-2.9-0.5-2.9-1.3 0-0.6 0.3-1.1 1.1-1.6 0.5 0.1 0.9 0.1 1.6 0.2l1.4 0.2c1.3 0.2 1.8 0.5 1.8 1.1 0 0.8-1.1 1.4-3 1.4z"/>
	<path class="s2" d="m141.8 88.8l-0.4-2.6c-1.7 0-2.7 1.1-3.4 2.3l-0.3-2.1h-2.3v10.6h2.7v-6.1c0.7-1.1 2.1-2 3.7-2.1z"/>
	<path class="s2" d="m152.7 91.7c0-3.5-2.1-5.5-5-5.5-2.9 0-5 2-5 5.5 0 3.5 2.1 5.5 4.9 5.5 2.9 0 5.1-2.1 5.1-5.5zm-2.6 0c0 2-0.8 3.4-2.5 3.4-1.5 0-2.4-1.5-2.4-3.4 0-2 0.9-3.4 2.4-3.4 1.6 0 2.5 1.4 2.5 3.4z"/>
	<path class="s2" d="m154.8 86.4v7.6c0 2 1 3.2 3 3.2 1.4 0 2.6-0.8 3.5-1.7l0.3 1.5h2.2v-10.6h-2.6v7.1c-0.8 0.8-1.6 1.4-2.4 1.4-1 0-1.4-0.7-1.4-1.6v-6.9z"/>
	<path class="s2" d="m176.3 91.4c0-3.6-1.8-5.2-4-5.2-1.5 0-2.5 0.8-3.3 1.6l-0.2-1.4h-2.3v14.7l2.7-0.4v-4c0.6 0.2 1.4 0.4 2.4 0.4 2.5 0 4.7-1.8 4.7-5.7zm-2.7 0.1c0 2.4-1 3.5-2.4 3.5-0.9 0-1.4-0.2-2-0.5v-4.5c0.7-0.9 1.4-1.5 2.4-1.5 1.1 0 2 1 2 3z"/>
	<path fill-rule="evenodd" class="s0" d="m57 19h162c4.4 0 8 3.6 8 8v24c0 4.4-3.6 8-8 8h-162c-4.4 0-8-3.6-8-8v-24c0-4.4 3.6-8 8-8z"/>
	<path fill-rule="evenodd" class="s1" d="m62.9 48c-0.3 0-0.6-0.3-0.5-0.6l0.6-3.4h-3.4c-0.3 0-0.6-0.3-0.5-0.6l0.2-1c0-0.2 0.2-0.4 0.5-0.4h3.5l1.1-6h-3.4c-0.3 0-0.5-0.3-0.5-0.6l0.2-1c0-0.2 0.2-0.4 0.5-0.4h3.6l0.6-3.6c0-0.2 0.2-0.4 0.5-0.4h1c0.3 0 0.5 0.3 0.5 0.6l-0.6 3.4h6l0.6-3.6c0-0.2 0.2-0.4 0.5-0.4h1c0.3 0 0.5 0.3 0.5 0.6l-0.6 3.4h3.4c0.3 0 0.5 0.3 0.5 0.6l-0.2 1c-0.1 0.2-0.3 0.4-0.5 0.4h-3.6l-1.1 6h3.5c0.3 0 0.5 0.3 0.4 0.6l-0.1 1c-0.1 0.2-0.3 0.4-0.5 0.4h-3.6l-0.6 3.6c-0.1 0.2-0.3 0.4-0.5 0.4h-1c-0.3 0-0.6-0.3-0.5-0.6l0.6-3.4h-6l-0.6 3.6c-0.1 0.2-0.3 0.4-0.5 0.4zm3.5-12l-1.1 6h6l1.1-6z"/>
	<path class="s1" d="m100.9 40c0-3.2-1.7-4.7-3.8-4.7-1.4 0-2.3 0.7-3.1 1.5l-0.2-1.3h-1.4v13.2l1.8-0.2v-3.8c0.6 0.2 1.4 0.4 2.4 0.4 2.3 0 4.3-1.7 4.3-5.1zm-1.8 0c0 2.4-1.1 3.6-2.6 3.6-1 0-1.6-0.1-2.3-0.5v-4.6c0.7-1 1.6-1.7 2.7-1.7 1.3 0 2.2 1.2 2.2 3.2z"/>
	<path class="s1" d="m110.9 43.9l-0.3-1.6c-1 0.8-2 1.4-3.4 1.4-1.7 0-2.7-1.1-2.8-3.3h6.5v-0.4c0-2.6-1.3-4.7-4.1-4.7-2.4 0-4.2 1.8-4.2 4.9 0 3.5 2 5 4.4 5 1.6 0 2.8-0.5 3.9-1.3zm-4.1-7.2c1.4 0 2.1 0.8 2.3 2.4h-4.6c0.3-1.6 1.2-2.4 2.3-2.4z"/>
	<path class="s1" d="m117.7 45l-0.2-1.5q-0.4 0.1-0.8 0.1c-1 0-1.4-0.5-1.4-1.3v-5.3h2.3l-0.2-1.5h-2.1v-3.5l-1.7 0.3v3.2h-1.4v1.5h1.4v5.6c0 2 1.1 2.6 2.8 2.6 0.6 0 1-0.1 1.3-0.2z"/>
	<path class="s1" d="m124.1 40.2v-1.8h-4.9v1.8z"/>
	<path class="s1" d="m135.1 40c0-3.2-1.7-4.7-3.8-4.7-1.4 0-2.3 0.7-3.1 1.5l-0.2-1.3h-1.4v13.2l1.8-0.2v-3.8c0.6 0.2 1.4 0.4 2.4 0.4 2.3 0 4.3-1.7 4.3-5.1zm-1.8 0c0 2.4-1.1 3.6-2.6 3.6-1 0-1.6-0.1-2.3-0.5v-4.6c0.7-1 1.6-1.7 2.7-1.7 1.3 0 2.2 1.2 2.2 3.2z"/>
	<path class="s1" d="m145.1 45v-6.9c0-1.8-0.9-2.8-2.7-2.8-1.4 0-2.5 0.7-3.3 1.4v-6.1l-1.7 0.2v14.2h1.7v-6.6c0.9-0.9 1.9-1.5 2.8-1.5 1 0 1.5 0.6 1.5 1.6v6.5z"/>
	<path class="s1" d="m156.2 40.2c0-3.1-1.9-4.9-4.5-4.9-2.5 0-4.3 1.8-4.3 4.9 0 3.2 1.8 5 4.3 5 2.6 0 4.5-1.8 4.5-5zm-1.8 0c0 2-0.9 3.5-2.7 3.5-1.6 0-2.5-1.5-2.5-3.5 0-2 0.8-3.5 2.5-3.5 1.8 0 2.7 1.6 2.7 3.5z"/>
	<path class="s1" d="m163 45l-0.2-1.5q-0.3 0.1-0.8 0.1c-1 0-1.3-0.5-1.3-1.3v-5.3h2.3l-0.3-1.5h-2v-3.5l-1.8 0.3v3.2h-1.4v1.5h1.4v5.6c0 2 1.1 2.6 2.8 2.6 0.6 0 1-0.1 1.3-0.2z"/>
	<path class="s1" d="m173.4 40.2c0-3.1-1.9-4.9-4.4-4.9-2.6 0-4.4 1.8-4.4 4.9 0 3.2 1.8 5 4.4 5 2.5 0 4.4-1.8 4.4-5zm-1.8 0c0 2-0.9 3.5-2.6 3.5-1.7 0-2.6-1.5-2.6-3.5 0-2 0.8-3.5 2.6-3.5 1.7 0 2.6 1.6 2.6 3.5z"/>
	<path class="s1" d="m182.3 42.3c0-1.8-1-2.5-3.4-3.1-1.5-0.3-2-0.7-2-1.3 0-0.7 0.6-1.1 1.7-1.1 1 0 2 0.3 2.9 0.8l0.2-1.7c-0.9-0.4-1.9-0.6-3.1-0.6-2.1 0-3.4 1.1-3.4 2.6 0 1.7 0.9 2.4 3.2 2.9 1.7 0.5 2.2 0.8 2.2 1.7 0 0.8-0.7 1.2-1.9 1.2-1.3 0-2.5-0.5-3.4-1.1l-0.2 1.7c0.8 0.5 2.2 0.9 3.5 0.9 2.4 0 3.7-1.1 3.7-2.9z"/>
	<path fill-rule="evenodd" class="s0" d="m57 123h162c4.4 0 8 3.6 8 8v24c0 4.4-3.6 8-8 8h-162c-4.4 0-8-3.6-8-8v-24c0-4.4 3.6-8 8-8z"/>
	<path fill-rule="evenodd" class="s1" d="m62.9 152c-0.3 0-0.6-0.3-0.5-0.6l0.6-3.4h-3.4c-0.3 0-0.6-0.3-0.5-0.6l0.2-1c0-0.2 0.2-0.4 0.5-0.4h3.5l1.1-6h-3.4c-0.3 0-0.5-0.3-0.5-0.6l0.2-1c0-0.2 0.2-0.4 0.5-0.4h3.6l0.6-3.6c0-0.2 0.2-0.4 0.5-0.4h1c0.3 0 0.5 0.3 0.5 0.6l-0.6 3.4h6l0.6-3.6c0-0.2 0.2-0.4 0.5-0.4h1c0.3 0 0.5 0.3 0.5 0.6l-0.6 3.4h3.4c0.3 0 0.5 0.3 0.5 0.6l-0.2 1c-0.1 0.2-0.3 0.4-0.5 0.4h-3.6l-1.1 6h3.5c0.3 0 0.5 0.3 0.4 0.6l-0.1 1c-0.1 0.2-0.3 0.4-0.5 0.4h-3.6l-0.6 3.6c-0.1 0.2-0.3 0.4-0.5 0.4h-1c-0.3 0-0.6-0.3-0.5-0.6l0.6-3.4h-6l-0.6 3.6c-0.1 0.2-0.3 0.4-0.5 0.4zm3.5-12l-1.1 6h6l1.1-6z"/>
	<path class="s1" d="m100.5 149.7c0-1.5-1.3-2.1-3.3-2.5l-0.7-0.1c-1.7-0.3-2-0.4-2-0.7 0-0.2 0.2-0.4 0.5-0.6q0.3 0.1 0.7 0.1c1.9 0 3.6-1.3 3.6-3.3q0-0.8-0.3-1.5l1.8-0.2-0.3-1.6-2.4 0.8c-0.7-0.6-1.5-0.8-2.5-0.8-1.9 0-3.6 1.2-3.6 3.3 0 1.3 0.7 2.3 1.8 2.8-0.7 0.4-1 0.9-1 1.3 0 0.4 0.1 0.7 0.6 1-1.4 0.7-2.1 1.5-2.1 2.5 0 1.7 2 2.4 4.5 2.4 2.5 0 4.7-0.9 4.7-2.9zm-2.9-7.1c0 1.1-0.7 2-2 2-1.1 0-1.9-0.9-1.9-2 0-1.1 0.7-2 1.9-2 1.2 0 2 0.8 2 2zm-1.7 8.8c-1.9 0-2.9-0.6-2.9-1.4 0-0.6 0.5-1.2 1.7-1.7 0.3 0 0.6 0.1 1.1 0.2l1.2 0.2c1.3 0.2 1.8 0.6 1.8 1.2 0 0.8-1.1 1.5-2.9 1.5z"/>
	<path class="s1" d="m109.6 149v-6.7c0-2.1-1.1-3-3.4-3-1.5 0-2.6 0.3-3.7 0.8l0.2 1.5c1-0.5 2.1-0.8 3.3-0.8 1.1 0 1.8 0.4 1.8 1.6v0.4c-4 0.4-6 1.4-6 3.7 0 1.7 1.1 2.7 2.8 2.7 1.6 0 2.6-0.7 3.4-1.5l0.2 1.3zm-1.8-2.6c-0.8 0.8-1.8 1.3-2.9 1.3-0.9 0-1.4-0.5-1.4-1.3 0-0.9 0.8-1.9 4.3-2.2z"/>
	<path class="s1" d="m125.9 149v-6.9c0-1.8-0.9-2.8-2.7-2.8-1.3 0-2.5 0.7-3.4 1.5-0.3-0.9-1.1-1.5-2.5-1.5-1.3 0-2.4 0.7-3.3 1.5l-0.2-1.3h-1.4v9.5h1.7v-6.6c0.9-0.9 1.8-1.5 2.7-1.5 1.1 0 1.4 0.6 1.4 1.6v6.5h1.8v-6.6c0.9-0.9 1.8-1.5 2.7-1.5 1.1 0 1.4 0.6 1.4 1.6v6.5z"/>
	<path class="s1" d="m136.4 147.9l-0.3-1.6c-1 0.8-2 1.4-3.4 1.4-1.7 0-2.7-1.1-2.8-3.3h6.5v-0.4c0-2.6-1.3-4.7-4.1-4.7-2.4 0-4.2 1.8-4.2 4.9 0 3.5 2 5 4.5 5 1.5 0 2.7-0.5 3.8-1.3zm-4.1-7.2c1.4 0 2.1 0.8 2.3 2.4h-4.6c0.3-1.6 1.2-2.4 2.3-2.4z"/>
	<path class="s1" d="m145.3 146.3c0-1.8-1.1-2.5-3.4-3.1-1.5-0.3-2-0.7-2-1.3 0-0.7 0.6-1.1 1.6-1.1 1 0 2.1 0.3 2.9 0.8l0.3-1.7c-0.9-0.4-1.9-0.6-3.1-0.6-2.1 0-3.4 1.1-3.4 2.6 0 1.7 0.9 2.4 3.2 2.9 1.7 0.5 2.2 0.8 2.2 1.7 0 0.8-0.7 1.2-1.9 1.2-1.3 0-2.5-0.5-3.4-1.1l-0.2 1.7c0.8 0.5 2.2 0.9 3.4 0.9 2.5 0 3.8-1.1 3.8-2.9z"/>
	<path fill-rule="evenodd" class="s0" d="m57 171h162c4.4 0 8 3.6 8 8v24c0 4.4-3.6 8-8 8h-162c-4.4 0-8-3.6-8-8v-24c0-4.4 3.6-8 8-8z"/>
	<path fill-rule="evenodd" class="s1" d="m62.9 200c-0.3 0-0.6-0.3-0.5-0.6l0.6-3.4h-3.4c-0.3 0-0.6-0.3-0.5-0.6l0.2-1c0-0.2 0.2-0.4 0.5-0.4h3.5l1.1-6h-3.4c-0.3 0-0.5-0.3-0.5-0.6l0.2-1c0-0.2 0.2-0.4 0.5-0.4h3.6l0.6-3.6c0-0.2 0.2-0.4 0.5-0.4h1c0.3 0 0.5 0.3 0.5 0.6l-0.6 3.4h6l0.6-3.6c0-0.2 0.2-0.4 0.5-0.4h1c0.3 0 0.5 0.3 0.5 0.6l-0.6 3.4h3.4c0.3 0 0.5 0.3 0.5 0.6l-0.2 1c-0.1 0.2-0.3 0.4-0.5 0.4h-3.6l-1.1 6h3.5c0.3 0 0.5 0.3 0.4 0.6l-0.1 1c-0.1 0.2-0.3 0.4-0.5 0.4h-3.6l-0.6 3.6c-0.1 0.2-0.3 0.4-0.5 0.4h-1c-0.3 0-0.6-0.3-0.5-0.6l0.6-3.4h-6l-0.6 3.6c-0.1 0.2-0.3 0.4-0.5 0.4zm3.5-12l-1.1 6h6l1.1-6z"/>
	<path class="s1" d="m99.6 196.2l-0.3-1.6c-0.9 0.8-1.9 1-2.8 1-1.6 0-2.8-1.1-2.8-3.4 0-2.2 1.1-3.4 2.7-3.4 1.1 0 2 0.4 2.8 1.1l0.3-1.8c-0.7-0.4-1.7-0.8-3.1-0.8-2.5 0-4.5 1.7-4.5 4.9 0 3.2 1.8 5 4.4 5 1.4 0 2.4-0.3 3.3-1z"/>
	<path class="s1" d="m109.8 192.2c0-3.1-1.8-4.9-4.4-4.9-2.5 0-4.4 1.8-4.4 4.9 0 3.2 1.9 5 4.4 5 2.6 0 4.4-1.8 4.4-5zm-1.8 0c0 2-0.8 3.5-2.6 3.5-1.7 0-2.6-1.5-2.6-3.5 0-2 0.9-3.5 2.6-3.5 1.7 0 2.6 1.6 2.6 3.5z"/>
	<path class="s1" d="m120.4 192.2c0-3.1-1.9-4.9-4.5-4.9-2.5 0-4.3 1.8-4.3 4.9 0 3.2 1.8 5 4.3 5 2.6 0 4.5-1.8 4.5-5zm-1.8 0c0 2-0.9 3.5-2.7 3.5-1.6 0-2.5-1.5-2.5-3.5 0-2 0.8-3.5 2.5-3.5 1.8 0 2.7 1.6 2.7 3.5z"/>
	<path class="s1" d="m128.7 197.1l1.9-0.3-4.3-5.1 4-4.2h-2.2l-3.7 4v-8.9l-1.7 0.2v14.2h1.7v-5z"/>
	<path class="s1" d="m134.4 184.4c0-0.6-0.5-1.1-1.1-1.1-0.6 0-1.1 0.5-1.1 1.1 0 0.6 0.5 1.1 1.1 1.1 0.6 0 1.1-0.5 1.1-1.1zm-0.2 12.6v-9.5h-1.8v9.5z"/>
	<path class="s1" d="m144.9 197v-6.9c0-1.8-0.9-2.8-2.7-2.8-1.4 0-2.5 0.7-3.4 1.5l-0.2-1.3h-1.5v9.5h1.8v-6.6c0.9-0.9 1.8-1.5 2.8-1.5 1 0 1.4 0.6 1.4 1.6v6.5z"/>
	<path class="s1" d="m155.8 197.7c0-1.5-1.3-2.1-3.3-2.5l-0.7-0.1c-1.7-0.3-2-0.4-2-0.7 0-0.2 0.2-0.4 0.5-0.6q0.3 0.1 0.7 0.1c1.9 0 3.6-1.3 3.6-3.3q0-0.8-0.3-1.5l1.8-0.2-0.3-1.6-2.4 0.8c-0.7-0.6-1.5-0.8-2.5-0.8-1.9 0-3.6 1.2-3.6 3.3 0 1.3 0.7 2.3 1.8 2.8-0.7 0.4-1 0.9-1 1.3q-0.1 0.6 0.6 1c-1.4 0.7-2.1 1.5-2.1 2.5 0 1.7 2 2.4 4.5 2.4 2.5 0 4.7-0.9 4.7-2.9zm-2.9-7.1c0 1.1-0.7 2-2 2-1.1 0-1.9-0.9-1.9-2 0-1.1 0.7-2 1.9-2 1.2 0 2 0.8 2 2zm-1.7 8.8c-1.9 0-2.9-0.6-2.9-1.4 0-0.6 0.5-1.2 1.7-1.7 0.3 0 0.6 0.1 1.1 0.2l1.2 0.2c1.3 0.2 1.8 0.6 1.8 1.2 0 0.8-1.1 1.5-2.9 1.5z"/>
	<path class="s33" d="m15.5 28.4l6.4-2.8c0.1 0 0.1-0.2 0-0.2l-6.4-2.9h-0.1l-2.8-6.4c0-0.1-0.2-0.1-0.2 0l-2.9 6.4-6.4 2.9c-0.1 0-0.1 0.2 0 0.2l6.4 2.8 2.9 6.4h0.2l2.8-6.4z"/>
	<path class="s34" d="m546.5 329.3h-62.3l-9.6 46.4c3.4 1.9 7 3.3 10.7 4.2-3.3 9.4 4.5 6.1 8.9 4.2l3.2-1.4c6.3 1.2 13 2.1 19.3 2.9-5.8 16.4 3 11.1 7.8 8.4 4.8-2.7 5.6-3.5 6.5-6.9l12.2 0.9c0 0 3.1-22.6 3.3-58.7z"/>
	<path class="s35" d="m499.6 198.3c-2.4 3.6-3.5 10.4-4.4 17.4-0.9 7-2.5 18.3-0.7 26.7z"/>
	<path class="s3" d="m522.8 366.9c0 4.2 2.4 7.6-2 9.5-6.3 2.8-9.2 5.7-13.9 7.1-4.7 1.4-12 3.5-8.3-3.8 3.7-7.3 6.5-14 6.5-14z"/>
	<path class="s36" d="m488.8 355.3c-0.5 4.2 1.5 7.8-3.1 9.2-6.6 2-9.9 4.6-14.7 5.3-4.8 0.7-12.4 2.1-7.7-4.7 4.7-6.8 8.1-13.2 8.1-13.2z"/>
	<path class="s4" d="m469.5 315.1c0.8-2.9 2.4-5.7 4.6-7.8 2.2-2.2 4.9-3.7 7.9-4.5l6.3-1.5c4.9-34.1-0.6-41.1 25.5-52l21.8-3.6c0 0 22.2-2.5 31.8 7.5l-6.6 38.9c0 0 8 24.3 7.5 37.2h-29.1l-7.2 41.6c-47.5-0.9-72-19.6-72-19.6z"/>
	<path class="s37" d="m517.9 320c1.3-6.8 1.2-9.4 9.7-10.2l13.3-1.2-1-2.6-28.6-1.2 20.7-19.8 30 5.1c0.9 3.8 1.5 7.6 1.6 11.4 3.5 2.2 2.6 5 2 7.8 1.5 6.9 2.9 14.5 2.7 20h-29.1c-0.1 9-2.8 14.7-3.3 20.5-0.5 5.8-2.7 21.2-2.7 21.2q-12-0.3-23.9-2z"/>
	<path class="s38" d="m560.3 301.4l-28.3 1.9c0 0 7.5-2.1 14.3-3.3q6.3-1.2 12.7-1.7c1 0 1.5 0.9 1.9 2.2q0.1 0.2 0.1 0.4 0 0.1-0.1 0.3-0.1 0.1-0.3 0.2-0.1 0.1-0.3 0z"/>
	<path class="s39" d="m522.8 306.5c-10.7 3-12.2 3.6-17.5 12.2-5.3 8.6-5.6 8.1-10.1 3.7-4.5-4.4-10.5-11-12.7-13.5-2.2-2.5 0.2-3 14.2-4.9 14-1.9 33.1 0.5 26.1 2.5z"/>
	<path class="s5" d="m554.3 277.2c-2-3.7-3.5-7.8-4.2-12-0.9-3.1-2.9 1-1.3 6.3 1.2 3.6 3.3 6.7 6.1 9.1z"/>
	<path class="s5" d="m561.2 245.4c-27.4 33.1-52.9 56.6-54 10.1z"/>
	<path class="s6" d="m546.3 250.8c-25.4 16.2-31.8 21.9-31.9 6.4z"/>
	<path class="s2" d="m490.8 279.8c1.5-14.4 3.1-20.7 16.4-27.5-2.7 9.2-1.9 27.5-1.9 27.5z"/>
	<path class="s40" d="m502.7 267.9q0.9 5.6 2.7 10.9l-2.4 0.3q-1.8-5.3-2.8-10.9c-0.5-4.2 1.8-4.9 2.5-0.3z"/>
	<path class="s7" d="m528.3 206.7v-7.8c0-2.5 0.8-5 2.3-7 1.5-2.1 3.6-3.6 6-4.4 2.7-0.8 5.6-0.7 8.2 0.4 2.6 1.1 4.7 3.1 6 5.5 4.7 9 13.8 22.9 17.5 35.8 5.8 20.5-17.9 27.8-44.7 29.2-26.8 1.4-30.7-9.9-29.2-27.1 1-10.9 2.5-22 3.6-28.8 0.3-1.9 1.1-3.7 2.5-5.2 1.3-1.4 3-2.5 4.9-3 2.1-0.5 4.4-0.3 6.4 0.6 2 0.9 3.7 2.4 4.7 4.3l4.1 7.5z"/>
	<path class="s8" d="m499 238.8l1.7-0.9 10.1 2.1h10l16.7-5.6c0 0 7.5-15.7 8.8 0.5 1 11.2-3 18.2-5.5 21.5q-8.5 1.5-17.2 1.9c-4.3 0.4-8.7 0.2-13-0.5-3.4-3.6-8.9-10.6-11.6-19z"/>
	<path class="s41" d="m536.6 187.5c4.6-0.5 7.8 7.6 10.6 16.8 2.8 9.2 0.7 22.8-0.7 29.2-3.6 16.5-9.5 22.7-14.5 24.2 3-0.3 6-0.7 8.9-1.2 18.6-3.4 31.9-11.4 27.4-27.3-3.7-12.9-12.8-26.8-17.5-35.8l-0.7-1.2-1-1.3c-0.1 0-0.1 0-0.1-0.1l-0.9-0.8q-1.1-1-2.4-1.7l-1.9-0.7c-2.3-0.7-4.8-0.8-7.2-0.1z"/>
	<path class="s8" d="m532 257.7l1.9-0.2 1.9-0.2 2.7-0.4 0.9-0.2 1.4-0.2c2.5-3.3 6.5-10.3 5.5-21.5v-0.6c-3.7 15.8-9.4 21.9-14.3 23.3z"/>
	<path class="s42" d="m532 257.7l1.9-0.2 1.9-0.2 2.7-0.4 0.9-0.2 1.4-0.2c2.5-3.3 6.5-10.3 5.5-21.5v-0.6c-3.7 15.8-9.4 21.9-14.3 23.3z"/>
	<path class="s10" d="m501.5 236.5l0.3 1.9c11.2 4.6 13.1 6.1 38.3-4v-1.8l-1 0.4c-21.7 7.3-25.8 8.2-37.6 3.5z"/>
	<path class="s11" d="m550.4 233.9c0.5-4-1.9-7.7-5.5-8.2-3.6-0.5-7 2.3-7.6 6.4-0.6 4 1.9 7.7 5.5 8.2 3.6 0.5 7-2.3 7.6-6.4z"/>
	<path class="s11" d="m501.7 243c1.9-0.7 2.5-3.9 1.3-7.1-1.1-3.3-3.6-5.5-5.4-4.8-1.9 0.6-2.5 3.8-1.4 7.1 1.2 3.3 3.6 5.4 5.5 4.8z"/>
	<path class="s12" d="m521.8 228.2c0.4-0.7-0.5-1.2-1.3-1.3q-0.4-0.1-0.8 0-0.4 0.2-0.6 0.5l-2.2 3.6c-0.5 1.1 0.5 1 1.6 0.2 1.1-0.8 2.6-1.7 3.3-3z"/>
	<path class="s12" d="m510.7 231.2l-1.1-1.6q-0.3-0.4-0.2-1 0.1-0.5 0.4-1l0.3-0.4c0.1-0.2 0.4-0.1 0.5 0.1q0.9 1.8 1.6 3.7c0.3 1.4-0.6 1.5-1.5 0.2z"/>
	<path class="s43" d="m499.6 274.4c-2.6-7.6-8.9-10.6-16-10.4l7.2 10.4z"/>
	<path class="s44" d="m526.6 267.8c-19.2-6.5-27.6 5.4-27.6 5.4-2.2-2.9-5.2-5.1-8.6-6.4-3.5-1.3-7.2-1.5-10.8-0.8l-3.2 5.8 29 11.4z"/>
	<path class="s45" d="m499.3 277.3l-0.3-2.9-3.5 2.1z"/>
	<path class="s46" d="m528.6 267l13.2 34.2-32 8.9h-2.1l-22.3-10.4-12.6-30.7 1.2-1.2 23.7 8.6z"/>
	<path class="s47" d="m472.8 269l23.9 8.8 11 32.3-22-9.2z"/>
	<path class="s48" d="m529.2 268.4l-30.2 9.4 10.8 32.3 32-8.9z"/>
	<path class="s49" d="m471.8 244.9l-3.8-1.7c-0.1 0-0.1-0.1 0-0.2l3.8-1.7h0.1l1.7-3.8c0-0.1 0.1-0.1 0.1 0l1.7 3.8h0.1l3.8 1.7v0.2l-3.8 1.7h-0.1l-1.7 3.8h-0.1l-1.7-3.8z"/>
	<path class="s31" d="m608.7 316.1l-3.8-1.7c-0.1 0-0.1-0.1 0-0.1l3.8-1.7 1.7-3.8h0.2l1.7 3.8 3.8 1.7c0.1 0 0.1 0.1 0 0.1l-3.8 1.7-1.7 3.8h-0.2z"/>
	<path class="s13" d="m518.9 208.7l9.4-2h-7.7l-4.1-7.5c-1-1.9-2.7-3.4-4.7-4.3-2-0.9-4.3-1.1-6.4-0.6l-1.8 0.7c4.5-1.5 6.7 3.5 8.3 9.7 1 3.4 1 5.2 7 4z"/>
	<path class="s14" d="m504.7 213.8c2-0.3 3.3-2.5 3-4.9-0.3-2.4-2.1-4.1-4.1-3.8-2 0.2-3.3 2.4-3 4.8 0.3 2.4 2.2 4.1 4.1 3.9z"/>
	<path class="s14" d="m538.5 207.4c1.9-0.5 3.1-2.7 2.5-5.1-0.5-2.4-2.5-3.9-4.5-3.5-1.9 0.5-3 2.7-2.5 5.1 0.6 2.4 2.6 3.9 4.5 3.5z"/>
	<path class="s13" d="m535.6 280.6c-2.8 0.5-5.7 1.3-6.8 1.6-1.1 0.3-1.5 0.5-1.1 1.8 0.4 1.3 0.4 1.2 2.8 1l5.7-0.3z"/>
	<path class="s2" d="m573.7 279.4c2.1-6.6-0.4-7.3-1.3-10.6-0.3-1-0.5-5.6-1.1-8.3-0.7-3.4-2.6-6.5-5.4-8.7-6-4.4-14.5 6.8-12.9 25.3-3.7 0.6-8.1 1.5-11.9 2.3 1.8 2.6 3.3 5.5 4.5 8.4q0.9 2.8 1.2 5.6c4.6-0.4 9.9-0.7 14-1.3 15.7-2 11.9-9.4 12.9-12.7z"/>
	<path class="s50" d="m543.2 278.9l3.8-0.7c1.9-0.4 2.8-0.2 1.8 0.4-1 0.6-1.2 1.1 1.6 1.5 2.8 0.4 2.6 1.9 1.8 2.6-0.8 0.7-1.5 1.9 0.7 2.5 2.2 0.6 2.6 1.7 1.2 2.5-1.4 0.8-1.9 1.8 0.2 2.5 2.1 0.7 1.9 1.9 0 2.6l-4.9 0.4z"/>
	<path class="s13" d="m546.8 293.4c-0.4-3-1-7.1-5.7-14l-6.9 1.5 0.9 3.4-4.5 3.1c-1.5 1.1-1.6 1.4-1.2 2.1 0.2 0.6 0.6 1.1 1.1 1.4 0.3 0.2 1.1-0.3 2.2-0.7l3.5-1.1c0.5-0.1 0.7 0.2 0.3 0.5-0.4 0.3-3.3 1.7-3.8 2.1-0.5 0.4-0.7 0.7-0.5 1.1 0.2 0.4 0.4 1.5 1.5 1.4 1.1-0.1 4.5-1.2 4.5-1.2 2.4 1 5.5 0.6 8.6 0.4z"/>
	<path class="s40" d="m553 277.1c2.8 0.1 7.2 2.2 10.6 4.5 3.4 2.3 3.9 0.7 2.8-1-1.1-1.7-5.1-2.6-9-3.5-3.9-0.9-4.4-0.7-4.4-0.7z"/>
	<path class="s40" d="m556.4 276.9c-1.3-0.2-2-1.5 0.3-2.2l5.6-1.6c0.8-0.1 1.3-2.2-1.1-1.6-2.4 0.6-8.3 3.6-8.3 3.6 0 0-1.7 1.5 0.1 2z"/>
	<path class="s6" d="m534.2 284.9l1.9-1.3-0.5-0.9-2.1 2.2z"/>
	<path class="s6" d="m536.5 289.6l1.1-0.6-0.6-0.6-0.8 0.7z"/>
	<path class="s51" d="m545.1 278.6c2 1.9 3.6 4.1 4.7 6.6 1.1 2.4 1.7 5.1 1.7 7.8l-4.7 0.4q-0.3-2.8-1.2-5.6c-1.2-2.9-2.7-5.8-4.5-8.4z"/>
	<path class="s52" d="m570.9 273.8c-0.2-0.3-0.4-0.5-0.7-0.6-0.3-0.2-0.7-0.2-1-0.1q-2.6 0.7-5 1.6c-1.1 0.6 2.8 1.7 5.7 2.3 2.9 0.6 2.5-0.5 1-3.2z"/>
	<path class="s53" d="m538.3 289.2c0.9-0.9 0.9-1.8-0.3-2.4-1.2-0.6-1.2-1.6-0.7-2.3 0.5-0.7 1.4-1.8-0.4-2.4-1.8-0.6-0.9-1.6 0.5-1.9h0.1l3.6-0.8c3.3 4.9 4.6 8.4 5.2 11.1 0 0-6 0.7-7.3 0.4-1.3-0.3-1.6-0.9-0.7-1.7z"/>
	<path class="s54" d="m477.5 280.6l4.2 2q0.5 0.3 0.7 0.8c0.4 1 0.7 1.8-0.1 1.8l-4.1-0.3c-2.7-1.9-2.2-2.7-0.7-4.3z"/>
	<path class="s54" d="m478.9 284.2l4.1 2c0.4 0.2 0.6 0.5 0.8 0.8 0.4 1 0.7 1.8-0.1 1.8l-4.1-0.3c-2.8-1.9-2.2-2.7-0.7-4.3z"/>
	<path class="s54" d="m480.6 288.6l2.2 1c0.2 0.1 0.3 0.6 0.3 1.3 0 0.7-0.3 0.6-1 0.5q-1.2 0-2.3-0.3c-0.6-0.1-0.6-0.2-0.6-0.8v-2.1z"/>
	<path class="s55" d="m539.2 329.3c1.4-8.3 1.6-9.9 1.9-11 0.3-1.1 2.4 8.1 2.6 11z"/>
	<path class="s56" d="m523.4 323.8c1.5 11.9 3.5 24.7 4.5 31.4 1 6.7 2.1 1.7 3.3-3.5 1.2-5.2 0.7-7.1-2-16.6-2.7-9.5-6.7-17.9-5.8-11.3z"/>
	<path class="s57" d="m507.7 318.9c-7 10.3-18.7 27.1-21.1 31.5-2.4 4.4 0.4 1.9 4.8-1.4 4.4-3.3 5.2-4.2 8.1-9.1 2.9-4.9 12.1-26.7 8.2-21z"/>
	<path class="s58" d="m476.6 310.9c2.4 9.2 6.4 20.8 7.5 24.3 1.1 3.5 4.9 2.3 8 0.8 3.1-1.5 1.7-0.8-0.6 2.1-1.8 2.3-4.2 4-6.9 4.9-1.5 0.6-4.2 2.4-5.8-7.7-1.6-10.1-3.4-29.1-2.2-24.4z"/>
	<path class="s59" d="m467.6 349.6c0.8 5.8 6 4.2 8.6 2.5 2.6-1.7 6.2-1.3 7.4 4.6 0.5 2.5 3 4.8 6.8 1.7 3.8-3.1 7-2.1 7.7 2 0.7 4.1 4 5.1 7.5 1.2 3.5-3.9 7.5-2 8.5 2.9 1 4.9 5.5 3.8 7.8-0.2 2.3-4 6.4-2.2 7.1 2.2 0.7 4.4 4.2 1.7 4.8 0.2-0.4 2.6-0.6 4.3-0.6 4.3-4.3-0.1-8.7-0.3-12.9-0.7-39.8-3.4-60.3-19-60.3-19l0.8-3c1.1-4.4 6.1-4.5 6.8 1.3z"/>
	<path class="s60" d="m510.9 359.8c1.5 0.6 2.7 2.3 3.2 4.7 0.9 4 5.5 3.8 7.8-0.2 2.3-4 6.4-2.2 7.1 2.2 0.7 4.4 4.2 1.7 4.8 0.2-0.3 1.8-0.4 3.2-0.5 3.8q-0.1 0.3-0.1 0.5-12-0.3-23.9-2c0 0 0.6-3.8 1.6-9.2z"/>
	<path class="s38" d="m561.2 309.8c-0.6 1.5-1.4 0.8-3.1 0.4-4.8-1.4-9.9-3.4-12-3.6-2.1-0.2-3-1.1 1.5-1 4.5 0.1 10.9 0.4 12.9 0.6 2 0.2 1.7 1.1 0.7 3.6z"/>
	<path class="s15" d="m534.5 188.5c-3.5 2.9-3.7 8.9-3.8 11.3-0.1 2.4 0.1 6.7 0 7.8-0.1 1.1-0.2 1.5-3.6 3.6-3.4 2.1-2.1 0.3-0.7-1.7 1.4-2 1.9-2.8 1.9-2.8v-7.8c0-2.1 0.6-4.2 1.7-6 1-1.9 2.6-3.4 4.5-4.4z"/>
	<path class="s16" d="m502.6 206.3c-1.3 0.7-1.1 3.9 0 2.5 1.1-1.4 1.9-3.4 0-2.5z"/>
	<path class="s16" d="m535.5 200.3c-1.3 0.6-1.2 3.9 0 2.4 1.2-1.5 1.9-3.4 0-2.4z"/>
	<g>
		<path class="s61" d="m548.4 202.4c-1.7 0.7-3.2 1.7-4.4 3-1.3 1.2-2.3 2.7-3 4.3-1.3 2.9 0.7 7.6 5.3 2.4 4.6-5.2 6.7-11.8 2.1-9.7z"/>
	</g>
	<g>
		<path class="s61" d="m495.9 217.5c0.4-3.4 0.8-6.6 1.3-9.5 1.2 1.8 2.1 3.8 2.4 5.8 0.4 2.4-1.4 5.4-3.7 3.7z"/>
	</g>
	<g>
		<path class="s61" d="m553.3 217c-5.3 3.3-7 3.5-9.6 3.2-2.6-0.3-2-2.1 2-4.9 4-2.8 6-3.3 8.6-2.3 2.6 1 0.8 2.8-1 4z"/>
	</g>
	<g>
		<path class="s61" d="m495.1 224.2c0.1-1.2 0.3-2.3 0.4-3.5 1.9 2.3 1.6 3.6-0.4 3.5z"/>
	</g>
	<path class="s17" d="m544.5 232.7c0.9-2.4 0.5-4.8-0.9-5.3-1.4-0.5-3.2 1-4.1 3.4-0.9 2.4-0.5 4.7 0.9 5.2 1.4 0.6 3.3-0.9 4.1-3.3z"/>
	<path class="s17" d="m498.2 237.8c0.8-0.1 1.3-1.4 1.1-3-0.3-1.6-1-2.8-1.8-2.7-0.8 0.1-1.2 1.5-1 3.1 0.2 1.5 1 2.7 1.7 2.6z"/>
	<path class="s15" d="m501.2 198.1c-1.9 2-2 5.2 0 2.7 2-2.5 2.3-5.1 0-2.7z"/>
	<path class="s7" d="m523.4 247c-5.4 2.2-9.4 1.4-11.9 0.4-2.5-1-2.1 1.7 2.3 3.9 4.4 2.2 5.5 1.4 7.7-0.5 2.2-1.9 5-5.1 1.9-3.8z"/>
	<path class="s62" d="m199.1 273.2l-14.4 50.3-38.7 6.1-0.9-1.1 0.4-2.2-1.3-1.6h-2.2l-1-1.2 9.4-56.4h43.7c1.4 0.3 2.7 1 3.6 2.2 0.9 1.1 1.4 2.5 1.4 3.9z"/>
	<path class="s63" d="m199.1 273.2h-43.7l-9.4 56.4h43.7z"/>
	<path class="s64" d="m213.5 263.1l-2.2-1 2.2-0.9 0.9-2.2h0.1l1 2.2 2.1 0.9c0.1 0 0.1 0.1 0 0.1l-2.1 1-1 2.1h-0.1l-0.9-2.1z"/>
	<path class="s65" d="m246.5 314.1v12.5h3.8v3h-94.1c-1.3-1.2-2.3-2.6-3-4.2-0.6-1.6-1-3.3-1-5 0-1.8 0.4-3.5 1-5.1 0.7-1.6 1.7-3 3-4.2h94.1v3z"/>
	<path class="s13" d="m202.2 311.1h-46c-1.2 1.2-2.2 2.6-2.9 4.2-0.7 1.6-1.1 3.3-1.1 5 0 1.8 0.4 3.5 1.1 5.1 0.7 1.6 1.7 3 2.9 4.2h46c-1.2-1.2-2.2-2.6-2.9-4.2-0.7-1.6-1.1-3.3-1.1-5 0-1.8 0.4-3.5 1.1-5.1 0.7-1.6 1.7-3 2.9-4.2z"/>
	<path class="s66" d="m164 311.1h-1.8c-1.2 1.2-2.2 2.6-2.9 4.2-0.7 1.6-1.1 3.3-1.1 5 0 1.8 0.4 3.5 1.1 5.1 0.7 1.6 1.7 3 2.9 4.2h1.8c-1.2-1.2-2.2-2.6-2.9-4.2-0.7-1.6-1.1-3.3-1.1-5 0-1.8 0.4-3.5 1.1-5.1 0.7-1.6 1.7-3 2.9-4.2z"/>
	<path class="s66" d="m195.6 311.1h-1.7c-1.2 1.2-2.2 2.6-2.9 4.2-0.7 1.6-1.1 3.3-1.1 5 0 1.8 0.4 3.5 1.1 5.1 0.7 1.6 1.7 3 2.9 4.2h1.7c-1.2-1.2-2.2-2.6-2.9-4.2-0.7-1.6-1-3.3-1-5 0-1.8 0.3-3.5 1-5.1 0.7-1.6 1.7-3 2.9-4.2z"/>
	<path class="s67" d="m240.5 282.3h-64.3c2.2 4.5 3.3 9.4 3.3 14.4 0 5-1.1 9.9-3.3 14.4h65.4c2.1-4.3 3.2-9 3.3-13.8 0.1-4.8-0.9-9.6-2.8-14q-0.2-0.5-0.7-0.7-0.4-0.3-0.9-0.3z"/>
	<path class="s67" d="m171 282.3h69.1v3.9h-69.1q-0.3 0-0.6-0.2-0.2-0.3-0.2-0.6v-2.3q0-0.3 0.2-0.6 0.3-0.2 0.6-0.2z"/>
	<path class="s67" d="m171 307.2h69.1v3.9h-69.1q-0.3 0-0.6-0.2-0.2-0.3-0.2-0.6v-2.2q0-0.2 0-0.3 0.1-0.2 0.2-0.3 0.1-0.2 0.3-0.2 0.1-0.1 0.3-0.1z"/>
	<path class="s68" d="m171 282.3h38.3v3.9h-38.3q-0.3 0-0.6-0.2-0.2-0.3-0.2-0.6v-2.3q0-0.3 0.2-0.6 0.3-0.2 0.6-0.2z"/>
	<path class="s68" d="m171 307.2h38.3v3.9h-38.3q-0.3 0-0.6-0.2-0.2-0.3-0.2-0.6v-2.2q0-0.2 0-0.3 0.1-0.2 0.2-0.3 0.1-0.2 0.3-0.2 0.1-0.1 0.3-0.1z"/>
	<path class="s69" d="m238.9 286.1h-30.7v21.1h30.7z"/>
	<path class="s44" d="m212.2 286.1h-38.9v21.1h38.9z"/>
	<path class="s69" d="m214.7 291.5l-41.4-2.7v-2.7h41.4z"/>
	<path class="s3" d="m238.9 286.1v21.1c3.2-5.8 3.2-15.2 0-21.1z"/>
	<path class="s69" d="m214.4 293.1h-41.1v0.8h41.1z"/>
	<path class="s69" d="m218.1 299.2h-44.8v0.8h44.8z"/>
	<path class="s69" d="m218.1 301.4h-44.8v0.8h44.8z"/>
	<path class="s70" d="m221 290.2h1.7c0.4 0 0.7 0.1 1 0.4 0.3 0.3 0.4 0.6 0.4 1v8.5l2.1-2 2.1 2v-8.6c0-0.5-0.2-0.9-0.5-1.2-0.3-0.3-0.7-0.5-1.2-0.5h-5.6z"/>
	<path class="s71" d="m193.3 268.7h-39.8l-9.3 56 1.3 1.6 9.1-54.7h1.3 39.7z"/>
	<path class="s3" d="m193.3 268.7c0.6 0.2 1.2 0.5 1.6 1.1 0.4 0.5 0.7 1.1 0.7 1.8z"/>
	<path class="s3" d="m205.1 326.6v-12.5c-1.5 1.7-2.3 4-2.3 6.3 0 2.2 0.8 4.5 2.3 6.2z"/>
	<path class="s72" d="m246.5 314.1h-41.4v12.5h41.4z"/>
	<path class="s73" d="m246.4 317.5h-38.5v0.6h38.5z"/>
	<path class="s73" d="m246.4 316.2h-38.5v0.6h38.5z"/>
	<path class="s73" d="m246.4 324.1h-38.5v0.6h38.5z"/>
	<path class="s63" d="m235.1 325.5l-1.1-0.9-1.2 0.9v-5.1q0-0.4-0.4-0.7-0.3-0.3-0.7-0.3h-0.4v-0.2h2.9q0.4 0 0.6 0.3 0.3 0.3 0.3 0.7z"/>
	<g id="Clip-Path" clip-path="url(#cp3)">
		<g>
			<path fill-rule="evenodd" class="s74" d="m304 116c-11.1 0-20-8.9-20-20 0-11.1 8.9-20 20-20 11.1 0 20 8.9 20 20 0 11.1-8.9 20-20 20z"/>
			<path class="s75" d="m293.7 102.5c2.4 8.1 11.8 13.8 19.3 8.5 7.5-5.3 0-16.2 0-16.2 0 0 4.1-10.3-6.1-12.7-10.2-2.5-12.8 2-13.2 20.4z"/>
			<path class="s76" d="m308.9 96.6c-1.1 0-2.1-1.2-2.1-2.8 0-1.5 1-2.7 2.1-2.7 1.2 0 2.1 1.2 2.1 2.7 0 1.6-0.9 2.8-2.1 2.8z"/>
			<path class="s77" d="m309.8 95.9c-0.3 0-0.5-0.5-0.5-1 0.1-0.6 0.3-1 0.6-1 0.3 0 0.5 0.5 0.5 1.1 0 0.5-0.3 0.9-0.6 0.9z"/>
			<path class="s77" d="m311.3 88.7q-0.2-0.6-0.8-1-0.5-0.4-1.2-0.4c-0.4 0-0.8 0.1-1.2 0.4q-0.5 0.4-0.7 1z"/>
			<path class="s78" d="m311.1 100.4c-2 0.5-4.2 0.1-6-1.9-0.2-0.3-0.6-0.4-0.9-0.5-0.4 0-0.7 0.1-1 0.3-0.3 0.2-0.5 0.6-0.6 0.9-0.1 0.4 0 0.7 0.2 1 2.8 4.6 7.1 5.2 9.7 2.7q0.3-0.2 0.4-0.6 0.1-0.4 0-0.7 0-0.3-0.2-0.6-0.2-0.2-0.4-0.4-0.3-0.2-0.6-0.2-0.3-0.1-0.6 0z"/>
			<path class="s76" d="m309.5 100.6q0.8 0 1.6-0.2h0.5v1.3c0 0-0.8 0.6-3.8 0.3v-0.7l-5.2-1.8q0-0.3 0.2-0.6 0.1-0.3 0.4-0.5 0 0 0 0 0-0.1 0-0.1 0.4-0.2 0.8-0.2c0 0 0.1 0 0.2 0h0.5c0 0.1 0.1 0.1 0.1 0.1 0 0.1 0.1 0 0.1 0.1l0.2 0.1q0.5 0.6 1 1l0.8 0.5q0.5 0.3 1.1 0.5 0.8 0.2 1.5 0.2z"/>
			<path class="s79" d="m303.2 98.3q0 0 0 0 0 0 0 0 0.4-0.2 0.8-0.2c0-0.1 0.1 0 0.2 0h0.5c0 0 0.1 0 0.1 0.1 0 0 0.1 0 0.1 0l0.2 0.2q0.2 0.3 0.6 0.6l-1.5 0.9-1.6-0.6q0-0.3 0.2-0.5 0.1-0.3 0.4-0.5z"/>
			<path class="s77" d="m295.9 85.8c1.9-4.3 5.3-5.1 11-3.7q1.7 0.3 3.3 1.2c0.3 1.7-2.3 2.3-7.1 0.7 1.6 2.9-1.7 8-7.2 1.8z"/>
			<path class="s77" d="m302.6 81.9l0.3-3.5q0-0.5-0.2-0.9-0.1-0.5-0.5-0.8-0.3-0.4-0.8-0.6-0.4-0.1-0.9-0.1-0.6 0-1 0.3-0.5 0.3-0.8 0.8-0.3 0.4-0.3 1-0.1 0.5 0.2 1l1.6 3.6z"/>
			<path class="s80" d="m288.8 100.6l1.6 0.6 3.3-2.2v2.7l2.8 2.2q0.9 0.7 1.4 1.7 0.5 1.1 0.6 2.2l0.1 2.2c4 3.3 9.6 4.4 14.4 1q1.2-0.8 2.1-1.9l1.6 0.5c0 0-3.3 14.1-8.9 16.6-5.6 2.6-9.4 0-9.4 0-5.9-19.8-4.2-23.5-18.6-17.8l-0.7-4z"/>
			<path class="s75" d="m300.4 94.3l-10.5-9.8-1 1.2 8.1 15.1z"/>
			<path class="s81" d="m296.5 92.1l-4.1-2.9 3.2 5.7-0.6-2.2z"/>
		</g>
	</g>
	<g id="Clip-Path" clip-path="url(#cp4)">
		<g>
			<path fill-rule="evenodd" class="s82" d="m304 192c-11.1 0-20-8.9-20-20 0-11.1 8.9-20 20-20 11.1 0 20 8.9 20 20 0 11.1-8.9 20-20 20z"/>
			<path class="s83" d="m315.3 156.7l-0.1 0.2-0.1 0.4-0.1 0.1-0.1 0.4c-3 6.9-8.7 12-12.5 15.6-4 3.7-8.4 6.8-13.2 9.2-4.7 2.3-6.8 0.3-6.3-3.6l0.5-1.9 2.3-9.8 0.1-0.5c1.6-6.3 4-10 11.9-11.9l12-3c4.2-1 7.1 0.4 5.6 4.8z"/>
			<path class="s84" d="m314.1 151.9c-3.8 0.7-11 5.3-18.1 12-7 6.7-12.4 14.2-12.9 17.8 0.6 2 2.7 2.6 6.1 0.9 4.8-2.4 9.2-5.5 13.2-9.2 3.8-3.6 9.5-8.7 12.5-15.6l0.1-0.4 0.1-0.1 0.1-0.4 0.1-0.2c0.9-2.6 0.3-4.1-1.2-4.8z"/>
			<path class="s45" d="m302.8 170.9c6.8-6.5 11.4-12.9 10.1-14.2-1.2-1.3-7.8 2.9-14.6 9.4-6.9 6.6-11.5 12.9-10.2 14.2 1.2 1.3 7.8-2.9 14.7-9.4z"/>
			<path class="s85" d="m301.3 182.2l-1.8 1.3q-0.7 0.5-1.1 1.1-0.4 0.7-0.5 1.5l-0.3 2.4-3.2 2.9c-0.6 0.7-1 1.6-1.1 2.5v2.3c0 0 17.6 9.3 27 7.7 9.4-1.7 3.6-17.9 3.6-17.9q-0.1-0.2-0.3-0.3-0.3-0.2-0.5-0.2l-2.8-0.2-1.2-2.9q-0.2-0.4-0.5-0.7-0.4-0.3-0.8-0.4l-8.2-1.7z"/>
			<path class="s86" d="m301.7 187.1c-2.5-0.5-2.3-0.4-1.6-1.6 0.4-0.7 1-1.3 1.7-1.7z"/>
			<path class="s87" d="m305.6 163.9c-0.3-0.3-2.9 1.5-5.7 4.1-2.8 2.6-4.8 4.9-4.5 5.2 3.4 5.2 5.6 10 6.3 13.9l13.7 2.7c-0.7-12.2-6.4-20.5-9.8-25.9z"/>
			<path class="s88" d="m310.8 174.7c-0.2-0.5-0.5-0.7-0.8-0.7-0.3 0.1-0.4 0.5-0.3 1 0.1 0.4 0.4 0.7 0.7 0.6 0.3-0.1 0.5-0.5 0.4-0.9z"/>
			<path class="s88" d="m306.3 177.2c0.2-0.3 0-0.8-0.4-1-0.4-0.3-0.9-0.3-1.1 0-0.2 0.3-0.1 0.8 0.3 1.1 0.5 0.3 1 0.2 1.2-0.1z"/>
			<path class="s89" d="m309.1 181.4c1.1-0.5 2.2-1.1 2.7-1 0.5 0.2 0.3 1.1-0.3 2.1-0.5 1-0.4 0.6-1.6 0.2-1.3-0.3-1.7-0.8-0.8-1.3z"/>
			<path class="s90" d="m309.6 181.2l-0.9 0.7c0 0.3 0.5 0.7 1.2 0.8 0.6 0.2 1.4 0.3 1.6-0.2l0.2-0.5c-0.3-0.2-1.2-0.9-2.1-0.8z"/>
			<path class="s2" d="m311.3 180.4q-1.1 0.4-2.2 1c-0.5 0.3-0.5 0.5-0.2 0.8l2.6-1.2c0.1-0.1 0-0.4-0.2-0.6z"/>
			<path class="s45" d="m314.6 176.9c0-0.1 0-0.2 0-0.2q0-0.6-0.4-1.1-0.4-0.4-1-0.5 0.1 0.1 0.2 0.3 0.1 0.1 0 0.3 0 0.2-0.1 0.4-0.1 0.1-0.2 0.2-0.6 0.4-1.2 0.4-0.9 0.1-1.6 0.5-0.7 0.5-1.2 1.2c-1.9-0.1-2.6 1.1-3.9 1.8q-0.6 0.3-1.2 0.4c-1.4 0.2-1.6-0.3-1.6-1.1-1.5 1.2-0.6 2.9 0.6 3.4 0.7 0.3 1.6 0.1 2.5-0.6 2.4 0.6 3.2 0.2 4.6-2 2.3 0.6 3.7-0.3 3.8-2.4q0.3-0.2 0.5-0.4 0.2-0.3 0.2-0.6z"/>
			<path class="s91" d="m310.1 180.3c2.3 0.6 3.7-0.3 3.8-2.4q0.3-0.2 0.5-0.4 0.2-0.3 0.2-0.6c0-0.1 0-0.2 0-0.2q0-0.3-0.2-0.6c0.1 0.3 0 0.6-0.2 0.9-0.2 0.2-0.5 0.4-0.8 0.5-0.7 1.5-2 1.8-3.6 1.5 0 0-1.8 2.4-4.2 1.9-1.8 1.4-3.6 1.2-4-0.2 0 0.5 0.1 0.9 0.3 1.3 0.3 0.4 0.6 0.7 1.1 0.9 0.7 0.3 1.6 0.1 2.5-0.6 2.4 0.6 3.2 0.2 4.6-2z"/>
		</g>
	</g>
</svg>